<svg width="81" height="75" viewBox="0 0 81 75" fill="none" xmlns="http://www.w3.org/2000/svg">
<g clip-path="url(#clip0_411_3644)">
<path fill-rule="evenodd" clip-rule="evenodd" d="M74.8826 16.7919C72.7721 18.4214 70.8972 18.0263 70.8972 18.0263C71.3293 19.3796 70.4457 20.5448 69.3759 20.5844C68.3058 20.6237 67.5404 19.5178 67.9821 18.7769C68.522 17.7694 69.2284 18.3523 69.2284 18.3523C68.7673 18.3919 68.5023 18.9153 68.8163 19.1919C69.4053 19.7052 69.8568 19.2117 69.9158 18.8659C69.9749 18.5202 69.8274 17.7302 68.9048 17.5721C67.0889 17.3452 67.3145 19.3893 67.3145 19.3893C66.9317 18.0263 65.6509 18.2487 65.6509 18.2487C65.6509 18.2487 65.4298 19.5373 66.7846 19.9228C66.7846 19.9228 64.7525 19.6955 64.9784 21.5224C65.1352 22.4506 65.9207 22.599 66.264 22.5396C66.6077 22.4805 67.0986 22.0263 66.588 21.4334C66.3131 21.1176 65.7929 21.3841 65.7538 21.8484C65.7538 21.8484 65.1746 21.1373 66.1759 20.5942C66.912 20.1497 68.0115 20.9201 67.9721 21.9965C67.9328 23.0731 66.7746 23.9617 65.4298 23.5273C65.4298 23.5273 65.8226 25.4136 64.2029 27.5367C62.5832 25.4136 62.976 23.5273 62.976 23.5273C61.6312 23.9617 60.4727 23.0731 60.4336 21.9965C60.3943 20.9201 61.4937 20.1497 62.2298 20.5942C63.2312 21.1373 62.652 21.8484 62.652 21.8484C62.6126 21.3841 62.0924 21.1176 61.8174 21.4334C61.3072 22.0263 61.7981 22.4805 62.1414 22.5396C62.4851 22.599 63.2703 22.4506 63.4274 21.5224C63.653 19.6955 61.6212 19.9228 61.6212 19.9228C62.976 19.5373 62.7549 18.2487 62.7549 18.2487C62.7549 18.2487 61.4741 18.0263 61.091 19.3893C61.091 19.3893 61.3169 17.3452 59.501 17.5721C58.5784 17.7302 58.4309 18.5202 58.49 18.8659C58.5487 19.2117 59.0002 19.7052 59.5891 19.1919C59.9034 18.9153 59.6385 18.3919 59.177 18.3523C59.177 18.3523 59.8838 17.7694 60.4236 18.7769C60.8654 19.5178 60.0996 20.6237 59.0295 20.5844C57.9598 20.5448 57.0765 19.3792 57.5083 18.0263C57.5083 18.0263 55.6333 18.4214 53.5232 16.7919C55.6333 15.1623 57.5083 15.5575 57.5083 15.5575C57.0765 14.2045 57.9598 13.039 59.0299 12.9997C60.0996 12.96 60.8654 14.0663 60.4236 14.8068C59.8838 15.8143 59.177 15.2315 59.177 15.2315C59.6385 15.1919 59.9034 14.6685 59.5891 14.3919C59.0005 13.8786 58.5487 14.3724 58.49 14.7179C58.4309 15.0636 58.5784 15.8536 59.501 16.0117C61.3169 16.2389 61.091 14.1945 61.091 14.1945C61.4741 15.5575 62.7549 15.3351 62.7549 15.3351C62.7549 15.3351 62.976 14.0464 61.6212 13.6613C61.6212 13.6613 63.6533 13.8883 63.4274 12.0614C63.2703 11.1331 62.4851 10.9851 62.1414 11.0442C61.7981 11.1032 61.3072 11.5578 61.8174 12.1503C62.0924 12.4663 62.6126 12.1996 62.652 11.7354C62.652 11.7354 63.2312 12.4464 62.2298 12.9896C61.4937 13.4341 60.3943 12.664 60.4336 11.5873C60.4727 10.5107 61.6312 9.62205 62.976 10.0565C62.976 10.0565 62.5832 8.17013 64.2029 6.04708C65.8226 8.17013 65.4298 10.0565 65.4298 10.0565C66.7746 9.62205 67.9328 10.5107 67.9721 11.5873C68.0115 12.664 66.912 13.4341 66.1759 12.9896C65.1746 12.4464 65.7538 11.7354 65.7538 11.7354C65.7929 12.1996 66.3134 12.4663 66.588 12.1503C67.0986 11.5578 66.6077 11.1032 66.264 11.0442C65.9207 10.9851 65.1352 11.1331 64.9784 12.0614C64.7525 13.8883 66.7846 13.6613 66.7846 13.6613C65.4298 14.0464 65.6509 15.3354 65.6509 15.3354C65.6509 15.3354 66.9317 15.5575 67.3145 14.1945C67.3145 14.1945 67.0889 16.2389 68.9048 16.0117C69.8274 15.8536 69.9749 15.0636 69.9158 14.7179C69.8568 14.3724 69.4053 13.8786 68.8163 14.3919C68.5023 14.6685 68.7673 15.1919 69.2284 15.2315C69.2284 15.2315 68.522 15.8143 67.9821 14.8068C67.5404 14.0663 68.3058 12.96 69.3759 12.9997C70.4457 13.039 71.3293 14.2045 70.8975 15.5575C70.8975 15.5575 72.7721 15.1623 74.8826 16.7919ZM80.6204 16.4231C72.896 14.0828 66.8956 8.04578 64.5695 0.274351C64.5208 0.111721 64.3717 0 64.2029 0C64.0338 0 63.885 0.111721 63.8363 0.274351C61.5102 8.04578 55.5098 14.0828 47.7854 16.4231C47.6234 16.472 47.5127 16.622 47.5127 16.7919C47.5127 16.9617 47.6234 17.1117 47.7854 17.1607C55.5098 19.501 61.5102 25.538 63.8363 33.3094C63.885 33.4721 64.0338 33.5838 64.2029 33.5838C64.3717 33.5838 64.5208 33.4721 64.5695 33.3094C66.8956 25.538 72.896 19.501 80.6204 17.1607C80.7821 17.1117 80.8928 16.9617 80.8928 16.7919C80.8928 16.622 80.7821 16.472 80.6204 16.4231Z" fill="#CBA069"/>
<path fill-rule="evenodd" clip-rule="evenodd" d="M64.2028 15.291C63.3793 15.291 62.7109 15.9632 62.7109 16.792C62.7109 17.6209 63.3793 18.293 64.2028 18.293C65.0267 18.293 65.695 17.6209 65.695 16.792C65.695 15.9632 65.0267 15.291 64.2028 15.291Z" fill="#CBA069"/>
<path fill-rule="evenodd" clip-rule="evenodd" d="M14.3647 74.7008L13.1629 72.7641C13.1629 72.7641 13.1941 74.6498 13.1941 74.7008H12.6924V71.9385H13.1551L14.3724 73.8869C14.3724 73.8869 14.314 72.0018 14.3101 71.9385H14.8155V74.7008H14.3647Z" fill="#CBA069"/>
<path fill-rule="evenodd" clip-rule="evenodd" d="M17.5394 72.4352L17.1583 73.707H17.9166L17.5394 72.4352ZM18.2119 74.7008L18.0528 74.1606H17.0221L16.8627 74.7008H16.3105L17.2399 71.9385H17.8234L18.7606 74.7008H18.2119Z" fill="#CBA069"/>
<path fill-rule="evenodd" clip-rule="evenodd" d="M21.0285 72.4044V74.7008H20.515V72.4044H19.7686V71.9385H21.7868V72.4044H21.0285Z" fill="#CBA069"/>
<path fill-rule="evenodd" clip-rule="evenodd" d="M23.3096 71.9385H23.8149V74.7005H23.3096V71.9385Z" fill="#CBA069"/>
<path fill-rule="evenodd" clip-rule="evenodd" d="M26.7879 74.2899C27.1962 74.2899 27.5812 73.973 27.5812 73.3474C27.5812 72.8542 27.3246 72.3415 26.7802 72.3415C26.329 72.3415 25.9947 72.6977 25.9947 73.3042C25.9947 73.7344 26.2009 74.2899 26.7879 74.2899ZM26.7841 71.8682C27.6202 71.8682 28.0985 72.5568 28.0985 73.3042C28.0985 73.9302 27.7603 74.7711 26.7724 74.7711C25.9634 74.7711 25.4658 74.0984 25.4658 73.3234C25.4658 72.5136 25.9909 71.8682 26.7841 71.8682Z" fill="#CBA069"/>
<path fill-rule="evenodd" clip-rule="evenodd" d="M31.4219 74.7008L30.2205 72.7641C30.2205 72.7641 30.2515 74.6498 30.2515 74.7008H29.75V71.9385H30.2124L31.4297 73.8869C31.4297 73.8869 31.3713 72.0018 31.3678 71.9385H31.8731V74.7008H31.4219Z" fill="#CBA069"/>
<path fill-rule="evenodd" clip-rule="evenodd" d="M34.597 72.4352L34.2159 73.707H34.9743L34.597 72.4352ZM35.2696 74.7008L35.1101 74.1606H34.0797L33.9203 74.7008H33.3682L34.2976 71.9385H34.8807L35.8182 74.7008H35.2696Z" fill="#CBA069"/>
<path fill-rule="evenodd" clip-rule="evenodd" d="M37.3252 74.7008V71.9385H37.8425V74.2313H38.9313V74.7008H37.3252Z" fill="#CBA069"/>
<path fill-rule="evenodd" clip-rule="evenodd" d="M45.0999 73.9297C45.0105 74.1644 44.7033 74.7709 43.914 74.7709C43.2647 74.7709 42.6309 74.3248 42.6309 73.292C42.6309 72.6781 42.9768 71.8677 43.9333 71.8677C44.641 71.8677 44.9327 72.3258 45.0496 72.7206L44.54 72.854C44.5087 72.5527 44.256 72.3411 43.9527 72.3411C43.5057 72.3411 43.1869 72.6855 43.1869 73.2998C43.1869 73.6755 43.3386 74.282 43.9491 74.282C44.3028 74.282 44.5323 74.0079 44.6139 73.7261L45.0999 73.9297Z" fill="#CBA069"/>
<path fill-rule="evenodd" clip-rule="evenodd" d="M47.828 74.2899C48.2362 74.2899 48.6212 73.973 48.6212 73.3474C48.6212 72.8542 48.3647 72.3415 47.8203 72.3415C47.3691 72.3415 47.0348 72.6977 47.0348 73.3042C47.0348 73.7344 47.241 74.2899 47.828 74.2899ZM47.8241 71.8682C48.6603 71.8682 49.1385 72.5568 49.1385 73.3042C49.1385 73.9302 48.8003 74.7711 47.8125 74.7711C47.0035 74.7711 46.5059 74.0984 46.5059 73.3234C46.5059 72.5136 47.0309 71.8682 47.8241 71.8682Z" fill="#CBA069"/>
<path fill-rule="evenodd" clip-rule="evenodd" d="M52.8314 74.7008C52.8314 74.6343 52.8821 72.4317 52.8821 72.4317L52.287 74.7008H51.8242L51.2295 72.4317C51.2295 72.4317 51.2798 74.6109 51.2798 74.7008H50.7783V71.9385H51.5247L52.0614 73.9888L52.5903 71.9385H53.3332V74.7008H52.8314Z" fill="#CBA069"/>
<path fill-rule="evenodd" clip-rule="evenodd" d="M55.6313 73.3391H56.0824C56.448 73.3391 56.631 73.167 56.631 72.8424C56.631 72.3963 56.2728 72.3807 56.024 72.3807H55.6313V73.3391ZM56.1834 71.9385C56.7514 71.9385 57.1599 72.2907 57.1599 72.858C57.1599 73.3589 56.8718 73.7615 56.1566 73.7615H55.6313V74.7005H55.1182V71.9385H56.1834Z" fill="#CBA069"/>
<path fill-rule="evenodd" clip-rule="evenodd" d="M59.4935 72.4352L59.1124 73.707H59.8704L59.4935 72.4352ZM60.1661 74.7008L60.0066 74.1606H58.9762L58.8168 74.7008H58.2646L59.1941 71.9385H59.7772L60.7147 74.7008H60.1661Z" fill="#CBA069"/>
<path fill-rule="evenodd" clip-rule="evenodd" d="M63.893 74.7008L62.6912 72.7641C62.6912 72.7641 62.7225 74.6498 62.7225 74.7008H62.2207V71.9385H62.6835L63.9007 73.8869C63.9007 73.8869 63.8423 72.0018 63.8384 71.9385H64.3441V74.7008H63.893Z" fill="#CBA069"/>
<path fill-rule="evenodd" clip-rule="evenodd" d="M67.2747 73.6093V74.7008H66.7651V73.6093L65.8477 71.9385H66.4308L67.0259 73.081L67.6245 71.9385H68.2002L67.2747 73.6093Z" fill="#CBA069"/>
<path fill-rule="evenodd" clip-rule="evenodd" d="M6.24829 46.6372L3.47335 42.4957L2.187 43.7716V46.6372H0V33.584H2.187V40.9239L5.77069 37.3927H8.58213L5.07199 40.9239L8.9313 46.6372H6.24829Z" fill="#17405E"/>
<path fill-rule="evenodd" clip-rule="evenodd" d="M15.0464 42.0331C14.6789 42.2178 14.1457 42.4211 13.3006 42.551C12.2898 42.6987 11.2791 42.9022 11.2791 43.8263C11.2791 44.4367 11.6835 44.9545 12.7858 44.9545C13.7969 44.9545 15.0464 44.4367 15.0464 43.2717V42.0331ZM15.0464 46.637L14.9913 45.9159C14.3849 46.3964 13.4109 46.8587 12.2899 46.8587C10.1948 46.8587 8.94531 45.5834 8.94531 44.0298C8.94531 42.0143 10.4707 41.2195 12.2162 40.9052C13.5946 40.6464 14.4582 40.4246 15.0464 40.2211C15.0464 39.5185 14.8444 38.8344 13.4661 38.8344C11.7935 38.8344 11.6099 39.7402 11.6099 40.2211L9.36774 40.0919C9.40453 39.4818 9.53358 37.1152 13.3925 37.1152C16.0939 37.1152 17.2515 38.1136 17.2515 39.7402V45.1393C17.2515 45.8419 17.2886 46.0451 17.6559 46.637H15.0464Z" fill="#17405E"/>
<path fill-rule="evenodd" clip-rule="evenodd" d="M18.6504 46.6371V44.9361L23.6124 39.3708H19.147V37.3926H26.5161V39.1117L21.6645 44.6773H26.5161V46.6371H18.6504Z" fill="#17405E"/>
<path fill-rule="evenodd" clip-rule="evenodd" d="M33.5519 42.0331C33.1843 42.2178 32.6508 42.4211 31.8059 42.551C30.7951 42.6987 29.7844 42.9022 29.7844 43.8263C29.7844 44.4367 30.1887 44.9545 31.2911 44.9545C32.302 44.9545 33.5519 44.4367 33.5519 43.2717V42.0331ZM33.5519 46.637L33.4967 45.9159C32.8903 46.3964 31.9162 46.8587 30.7951 46.8587C28.7 46.8587 27.4502 45.5834 27.4502 44.0298C27.4502 42.0143 28.9757 41.2195 30.7215 40.9052C32.0998 40.6464 32.9636 40.4246 33.5519 40.2211C33.5519 39.5185 33.3498 38.8344 31.9711 38.8344C30.2988 38.8344 30.1152 39.7402 30.1152 40.2211L27.873 40.0919C27.9098 39.4818 28.0385 37.1152 31.8978 37.1152C34.5994 37.1152 35.7566 38.1136 35.7566 39.7402V45.1393C35.7566 45.8419 35.7937 46.0451 36.1613 46.637H33.5519Z" fill="#17405E"/>
<path fill-rule="evenodd" clip-rule="evenodd" d="M43.9836 46.6372L41.2087 42.4957L39.922 43.7716V46.6372H37.7354V33.584H39.922V40.9239L43.506 37.3927H46.3172L42.8074 40.9239L46.6667 46.6372H43.9836Z" fill="#17405E"/>
<path fill-rule="evenodd" clip-rule="evenodd" d="M53.7426 46.6372V41.2197C53.7426 39.87 53.081 39.2233 52.0151 39.2233C50.8208 39.2233 49.7181 40.1291 49.7181 41.5158V46.6372H47.5127V33.584H49.7181V38.3356C50.2693 37.7626 51.2619 37.1155 52.6218 37.1155C54.6246 37.1155 55.9112 38.2616 55.9112 40.3879V46.6372H53.7426Z" fill="#17405E"/>
<path fill-rule="evenodd" clip-rule="evenodd" d="M20.4609 53.9481H21.8027V50.6572H24.0078V53.9481H25.9741V55.5202H24.0078V60.105C24.0078 60.4563 24.0262 60.8631 24.2282 61.0848C24.4857 61.3621 24.9633 61.3621 25.0553 61.3621C25.3677 61.3621 25.6984 61.3257 25.9741 61.2514V63.1186C25.6804 63.1556 25.1469 63.2666 24.3938 63.2666C22.4275 63.2666 21.8027 62.5455 21.8027 61.0296V55.5202H20.4609V53.9481Z" fill="#17405E"/>
<path fill-rule="evenodd" clip-rule="evenodd" d="M31.1735 61.4365C32.7907 61.4365 33.5442 60.0498 33.5442 58.6443C33.5442 57.1657 32.7539 55.6676 31.0635 55.6676C29.7769 55.6676 28.6929 56.6108 28.6929 58.478C28.6929 60.105 29.5929 61.4365 31.1735 61.4365ZM31.1735 63.4702C27.8289 63.4702 26.3955 60.7894 26.3955 58.5336C26.3955 56.3151 27.8473 53.6709 31.1 53.6709C33.1031 53.6709 35.8232 55.0202 35.8413 58.5336C35.8413 61.0112 34.2978 63.4702 31.1735 63.4702Z" fill="#17405E"/>
<path fill-rule="evenodd" clip-rule="evenodd" d="M43.4249 63.1927V62.2499C42.9657 62.6752 42.0466 63.4148 40.4476 63.4148C38.9224 63.4148 38.1692 62.7492 37.8013 62.1947C37.3053 61.4547 37.2686 60.6041 37.2686 59.7538V53.9482H39.492V59.2732C39.492 60.1606 39.7128 61.3255 41.2934 61.3255C42.359 61.3255 42.9105 60.6229 43.0757 60.2901C43.4065 59.6427 43.4249 58.7739 43.4249 58.0713V53.9482H45.63V63.1927H43.4249Z" fill="#17405E"/>
<path fill-rule="evenodd" clip-rule="evenodd" d="M49.7614 53.9482V55.2609C50.4597 53.8001 52.0587 53.7446 52.4996 53.7446H52.6832V56.019C52.224 56.019 50.4597 56.0193 49.9269 57.7203C49.7614 58.2375 49.7614 58.6998 49.7614 59.2359V63.1927H47.6299V53.9482H49.7614Z" fill="#17405E"/>
<path fill-rule="evenodd" clip-rule="evenodd" d="M53.7236 53.9483H55.9106V63.1931H53.7236V53.9483ZM53.7236 50.269H55.9106V52.5064H53.7236V50.269Z" fill="#17405E"/>
<path fill-rule="evenodd" clip-rule="evenodd" d="M63.8722 56.8511C63.3762 55.8709 62.4388 55.4459 61.3732 55.4459C60.9501 55.4459 59.8474 55.5751 59.8474 56.4073C59.8474 57.0176 60.3989 57.2024 61.7223 57.4426L63.2107 57.7202C64.6077 57.979 65.6733 58.8108 65.6733 60.3086C65.6733 62.0095 64.0746 63.4702 61.5384 63.4702C59.0025 63.4702 57.6427 62.3423 57.1279 61.8063L58.7818 60.4563C59.2233 61.0482 60.0501 61.6397 61.428 61.6397C62.7515 61.6397 63.2291 60.956 63.2291 60.5491C63.2291 60.0128 62.7147 59.8092 61.8692 59.6612L60.73 59.4579C60.0133 59.3287 57.532 58.8664 57.532 56.6845C57.532 54.8543 59.2781 53.6709 61.4832 53.6709C62.2 53.6709 64.0562 53.7819 65.4345 55.3904L63.8722 56.8511Z" fill="#17405E"/>
<path fill-rule="evenodd" clip-rule="evenodd" d="M69.3332 53.9482V54.9832C69.7191 54.4657 70.8034 53.6709 72.2185 53.6709C73.266 53.6709 74.2584 54.1514 74.7728 55.0761C75.3611 54.3183 76.2982 53.6709 77.7317 53.6709C79.5876 53.6709 80.8926 54.6508 80.8926 56.8693V63.1927H78.7056V57.5349C78.7056 57.1839 78.632 55.7417 77.1621 55.7417C76.8126 55.7417 76.0226 55.8709 75.5263 56.6849C75.1035 57.3504 75.0855 58.1082 75.0855 58.8478V63.1927H72.8985V57.5164C72.8985 56.7956 72.5861 55.7602 71.3914 55.7602C71.171 55.7602 70.6931 55.8154 70.2338 56.2037C69.3332 56.9803 69.3148 58.2745 69.3148 59.3102V63.1927H67.1094V53.9482H69.3332Z" fill="#17405E"/>
</g>
<defs>
<clipPath id="clip0_411_3644">
<rect width="81" height="75" fill="white"/>
</clipPath>
</defs>
</svg>
