<svg width="140" height="33" viewBox="0 0 140 33" fill="none" xmlns="http://www.w3.org/2000/svg">
<path fill-rule="evenodd" clip-rule="evenodd" d="M122.156 27.6059V21.4503C122.156 18.4188 125.21 16.7324 128.263 16.7324H132.983V21.2141C132.983 24.3259 129.69 27.6059 126.619 27.6059H122.157H122.156Z" fill="#FDDB27"/>
<path fill-rule="evenodd" clip-rule="evenodd" d="M120.617 8.96944C117.526 8.96944 114.434 12.1108 114.434 15.18V27.6005H122.282V21.6289C122.282 18.5589 125.375 16.8513 128.466 16.8513H132.984V8.96875H120.617V8.96944Z" fill="#00B2CA"/>
<path d="M24.7956 27.6165H20.1123L18.5159 23.7961H13.3354L11.739 27.6165H7.05566L15.7427 9.14404H16.1086L24.7956 27.6172V27.6165ZM14.6963 20.4995H17.1296L15.926 17.569L14.6963 20.4995Z" fill="#144253"/>
<path d="M42.7184 18.4328C42.7184 20.9445 41.8546 24.0845 39.4213 26.0468L43.7126 31.2275L43.6604 31.3586H38.951L35.785 27.6954C35.1306 27.8266 34.4241 27.9049 33.6393 27.9049C26.6792 27.9049 24.5342 22.3576 24.5342 18.4328C24.5342 14.508 26.6798 8.98682 33.6393 8.98682C40.5988 8.98682 42.7184 14.6124 42.7184 18.4328ZM38.4538 18.4328C38.4538 17.0719 37.8524 12.9377 33.6393 12.9377C29.4263 12.9377 28.7987 17.0719 28.7987 18.4328C28.7987 19.7937 29.4002 23.9801 33.6393 23.9801C37.8785 23.9801 38.4538 19.7937 38.4538 18.4328Z" fill="#144253"/>
<path d="M48.3695 13.1995H43.5811V9.30078H57.4224V13.1995H52.5818V27.6167H48.3695V13.1995Z" fill="#144253"/>
<path d="M76.5221 18.4328C76.5221 22.3576 74.3764 27.9049 67.443 27.9049C60.5096 27.9049 58.3379 22.3576 58.3379 18.4328C58.3379 14.508 60.4835 8.98682 67.443 8.98682C74.4025 8.98682 76.5221 14.6124 76.5221 18.4328ZM72.2569 18.4328C72.2569 17.0719 71.6554 12.9377 67.4424 12.9377C63.2293 12.9377 62.6017 17.0719 62.6017 18.4328C62.6017 19.7937 63.2032 23.9801 67.4424 23.9801C71.6815 23.9801 72.2569 19.7937 72.2569 18.4328Z" fill="#144253"/>
<path d="M90.4146 18.433C91.7755 18.9562 92.7697 20.3954 92.7697 22.044C92.7697 24.5296 91.2262 27.6173 86.1501 27.6173H79.1377V9.30078H86.1501C91.2262 9.30078 92.7697 12.4147 92.7697 14.9003C92.7697 16.1561 91.8015 17.8569 90.4146 18.433ZM88.5305 14.9003C88.5305 14.4814 88.2428 13.1734 86.411 13.1734H83.2972V16.8105H86.4632C88.2683 16.7583 88.5299 15.3974 88.5299 14.9003H88.5305ZM88.5305 22.0433C88.5305 21.494 88.2689 20.3425 86.4638 20.2903H83.2979V23.718H86.4117C88.2435 23.718 88.5312 22.4621 88.5312 22.0433H88.5305Z" fill="#144253"/>
<path d="M99.3113 20.5258V23.718H107.789V27.6167H95.125V9.30078H107.789V13.1995H99.3113V16.6271H105.931V20.5258H99.3113Z" fill="#144253"/>
<path d="M77.3471 1.6001C75.9052 1.6001 74.4634 1.6001 73.0215 1.6001L69.2451 7.02448H73.6621C74.8904 5.21658 76.1188 3.408 77.3471 1.6001Z" fill="#144253"/>
</svg>
