<svg width="141" height="51" viewBox="0 0 141 51" fill="none" xmlns="http://www.w3.org/2000/svg">
<g clip-path="url(#clip0_411_3767)">
<path d="M25.1152 30.7641C24.2785 30.7641 23.4663 30.661 22.6787 30.4548C21.891 30.2486 21.251 29.9734 20.7588 29.6298L21.7187 27.4788C22.1815 27.7831 22.7181 28.0288 23.3284 28.2153C23.9387 28.4019 24.5393 28.4953 25.1301 28.4953C26.2524 28.4953 26.8136 28.2153 26.8136 27.6554C26.8136 27.3608 26.6535 27.1422 26.3335 26.9999C26.0136 26.8575 25.4992 26.7077 24.7905 26.5505C24.0126 26.3835 23.3628 26.2042 22.8411 26.0127C22.3192 25.8212 21.8713 25.5143 21.4973 25.092C21.1231 24.6697 20.9361 24.0999 20.9361 23.383C20.9361 22.7544 21.1084 22.1871 21.4529 21.6813C21.7975 21.1755 22.312 20.7752 22.9962 20.4805C23.6804 20.1859 24.5196 20.0386 25.5141 20.0386C26.1933 20.0386 26.8627 20.1148 27.5224 20.2669C28.182 20.4192 28.7628 20.6427 29.265 20.9373L28.3641 23.103C27.3796 22.5726 26.4247 22.3075 25.4992 22.3075C24.9184 22.3075 24.495 22.3933 24.2292 22.5652C23.9634 22.7371 23.8306 22.9606 23.8306 23.2356C23.8306 23.5106 23.988 23.7168 24.303 23.8544C24.6182 23.9918 25.1251 24.1344 25.8241 24.2817C26.6117 24.4486 27.264 24.628 27.7807 24.8195C28.2976 25.011 28.7456 25.3154 29.1246 25.7329C29.5037 26.1503 29.6932 26.7174 29.6932 27.4346C29.6932 28.0533 29.5209 28.6131 29.1763 29.1141C28.8317 29.6149 28.3148 30.0151 27.6258 30.3147C26.9366 30.6143 26.0997 30.7641 25.1152 30.7641ZM40.37 30.5579L40.3406 25.092L37.6823 29.5413H36.3828L33.7394 25.2393V30.5579H31.0371V20.2448H33.4441L37.077 26.197L40.621 20.2448H43.0282L43.0577 30.5579H40.37V30.5579ZM52.0511 28.5542H47.68L46.8678 30.5579H43.8848L48.4479 20.2448H51.3275L55.9054 30.5579H52.8634L52.0511 28.5542V28.5542ZM51.1946 26.4032L49.8655 23.103L48.5365 26.4032H51.1946ZM61.2513 27.8176H59.6564V30.5579H56.7325V20.2448H61.458C62.3932 20.2448 63.2054 20.3995 63.8946 20.709C64.5838 21.0183 65.1155 21.4603 65.4895 22.0348C65.8637 22.6094 66.0507 23.2848 66.0507 24.0606C66.0507 24.8071 65.8759 25.4579 65.5264 26.0127C65.177 26.5676 64.6773 27.0023 64.0276 27.3166L66.2574 30.5579H63.1267L61.2513 27.8176V27.8176ZM63.0971 24.0606C63.0971 23.5794 62.9445 23.2061 62.6394 22.941C62.3342 22.6757 61.8813 22.5431 61.2807 22.5431H59.6564V25.5635H61.2807C61.8813 25.5635 62.3342 25.4333 62.6394 25.173C62.9445 24.9127 63.0971 24.542 63.0971 24.0606ZM69.713 22.558H66.538V20.2448H75.7972V22.558H72.6369V30.5579H69.713V22.558ZM84.8203 30.7641C83.9836 30.7641 83.1713 30.661 82.3838 30.4548C81.596 30.2486 80.9561 29.9734 80.4638 29.6298L81.4237 27.4788C81.8865 27.7831 82.4231 28.0288 83.0334 28.2153C83.6438 28.4019 84.2443 28.4953 84.8351 28.4953C85.9574 28.4953 86.5186 28.2153 86.5186 27.6554C86.5186 27.3608 86.3585 27.1422 86.0386 26.9999C85.7186 26.8575 85.2042 26.7077 84.4955 26.5505C83.7177 26.3835 83.0678 26.2042 82.5461 26.0127C82.0243 25.8212 81.5763 25.5143 81.2023 25.092C80.8281 24.6697 80.6411 24.0999 80.6411 23.383C80.6411 22.7544 80.8134 22.1871 81.158 21.6813C81.5026 21.1755 82.017 20.7752 82.7012 20.4805C83.3855 20.1859 84.2246 20.0386 85.2191 20.0386C85.8984 20.0386 86.5677 20.1148 87.2275 20.2669C87.8871 20.4192 88.4678 20.6427 88.97 20.9373L88.0691 23.103C87.0846 22.5726 86.1297 22.3075 85.2042 22.3075C84.6235 22.3075 84.2 22.3933 83.9343 22.5652C83.6684 22.7371 83.5356 22.9606 83.5356 23.2356C83.5356 23.5106 83.693 23.7168 84.008 23.8544C84.3232 23.9918 84.8302 24.1344 85.5291 24.2817C86.3167 24.4486 86.969 24.628 87.4858 24.8195C88.0027 25.011 88.4506 25.3154 88.8296 25.7329C89.2088 26.1503 89.3982 26.7174 89.3982 27.4346C89.3982 28.0533 89.226 28.6131 88.8814 29.1141C88.5368 29.6149 88.0199 30.0151 87.3308 30.3147C86.6416 30.6143 85.8048 30.7641 84.8203 30.7641V30.7641ZM97.668 28.5542H93.2968L92.4846 30.5579H89.5016L94.0647 20.2448H96.9444L101.522 30.5579H98.4802L97.668 28.5542V28.5542ZM96.8114 26.4032L95.4823 23.103L94.1534 26.4032H96.8114ZM105.273 22.4991V24.7679H109.837V27.022H105.273V30.5579H102.349V20.2448H110.457V22.4991H105.273V22.4991ZM120.13 28.3038V30.5579H111.83V20.2448H119.938V22.4991H114.725V24.2375H119.317V26.4179H114.725V28.3038H120.13V28.3038ZM123.954 22.558H120.779V20.2448H130.038V22.558H126.878V30.5579H123.954V22.558ZM136.418 26.86V30.5579H133.494V26.8158L129.551 20.2448H132.637L135.089 24.3406L137.54 20.2448H140.376L136.418 26.86V26.86Z" fill="#1C1C20"/>
<path d="M74.1698 35.6478V40.1285H68.543V35.6478H69.1783V39.5716H71.0453V35.6478H71.674V39.5716H73.541V35.6478H74.1698ZM76.7874 38.6948H76.0816V40.1285H75.4657V36.7359H76.0816V38.1698H76.8003L77.9038 36.7359H78.5646L77.275 38.3683L78.6546 40.1285H77.9295L76.7874 38.6948V38.6948ZM80.6434 40.1669C80.3056 40.1669 80.0019 40.0922 79.7325 39.9429C79.463 39.7934 79.2523 39.5876 79.1005 39.3251C78.9486 39.0628 78.8727 38.765 78.8727 38.4323C78.8727 38.0994 78.9486 37.8018 79.1005 37.5393C79.2523 37.2769 79.463 37.0721 79.7325 36.9248C80.0019 36.7777 80.3056 36.7039 80.6434 36.7039C80.9814 36.7039 81.284 36.7777 81.5514 36.9248C81.8186 37.0721 82.0283 37.2769 82.1801 37.5393C82.3319 37.8018 82.4079 38.0994 82.4079 38.4323C82.4079 38.765 82.3319 39.0628 82.1801 39.3251C82.0283 39.5876 81.8186 39.7934 81.5514 39.9429C81.284 40.0922 80.9814 40.1669 80.6434 40.1669ZM80.6434 39.6293C80.8617 39.6293 81.0573 39.5791 81.2306 39.4788C81.4037 39.3785 81.5397 39.2377 81.6379 39.0564C81.7363 38.8749 81.7855 38.6669 81.7855 38.4323C81.7855 38.1975 81.7363 37.9895 81.6379 37.8082C81.5397 37.6268 81.4037 37.487 81.2306 37.3889C81.0573 37.2907 80.8617 37.2417 80.6434 37.2417C80.4253 37.2417 80.2297 37.2907 80.0564 37.3889C79.8831 37.487 79.7464 37.6268 79.6459 37.8082C79.5453 37.9895 79.4951 38.1975 79.4951 38.4323C79.4951 38.6669 79.5453 38.8749 79.6459 39.0564C79.7464 39.2377 79.8831 39.3785 80.0564 39.4788C80.2297 39.5791 80.4253 39.6293 80.6434 39.6293ZM86.1932 36.7359V40.1285H85.5773V37.2737H84.1144L84.076 38.0289C84.0545 38.4856 84.014 38.8665 83.954 39.1715C83.8941 39.4767 83.7958 39.721 83.659 39.9045C83.5221 40.0879 83.3318 40.1796 83.0879 40.1796C82.9768 40.1796 82.8506 40.1605 82.7094 40.1221L82.7479 39.6036C82.8035 39.6164 82.8547 39.6229 82.9019 39.6229C83.073 39.6229 83.2013 39.5481 83.2868 39.3988C83.3723 39.2494 83.428 39.0724 83.4536 38.8675C83.4793 38.6628 83.5027 38.3704 83.5242 37.9905L83.582 36.7359H86.1932V36.7359ZM88.5991 36.7039C89.0696 36.7039 89.43 36.8192 89.6802 37.0497C89.9304 37.2802 90.0556 37.6236 90.0556 38.0803V40.1285H89.4717V39.6804C89.369 39.8383 89.2225 39.9589 89.0322 40.042C88.8419 40.1254 88.6162 40.1669 88.3552 40.1669C87.9746 40.1669 87.6698 40.0752 87.441 39.8916C87.2121 39.7082 87.0977 39.4671 87.0977 39.1684C87.0977 38.8696 87.2069 38.6296 87.425 38.4483C87.6432 38.2668 87.9896 38.1763 88.4644 38.1763H89.4396V38.0545C89.4396 37.7901 89.3626 37.5873 89.2086 37.4464C89.0547 37.3057 88.828 37.2353 88.5285 37.2353C88.3275 37.2353 88.1307 37.2683 87.9382 37.3344C87.7457 37.4006 87.5832 37.4892 87.4508 37.6002L87.194 37.1393C87.3694 36.9984 87.5791 36.8907 87.8228 36.8159C88.0665 36.7414 88.3253 36.7039 88.5991 36.7039V36.7039ZM88.4579 39.6933C88.6932 39.6933 88.8964 39.641 89.0674 39.5364C89.2386 39.4318 89.3626 39.2835 89.4396 39.0915V38.6179H88.49C87.9681 38.6179 87.7074 38.7929 87.7074 39.1428C87.7074 39.3134 87.7735 39.4478 87.9061 39.546C88.0387 39.6441 88.2228 39.6933 88.4579 39.6933ZM90.9346 38.1058H92.6606V38.637H90.9346V38.1058ZM96.6641 36.2047H94.3545L94.3609 40.1285H93.7256V35.6478H96.6706L96.6641 36.2047ZM96.6833 36.7359H97.2993V39.2068L99.3846 36.7359H99.9426V40.1285H99.3268V37.6578L97.248 40.1285H96.6833V36.7359ZM105.056 36.7359V40.1285H104.498V37.6513L103.228 39.7444H102.958L101.701 37.6449V40.1285H101.136V36.7359H101.771L103.106 39.0275L104.479 36.7359H105.056V36.7359ZM106.256 36.7359H106.872V38.1763H108.809V36.7359H109.425V40.1285H108.809V38.7075H106.872V40.1285H106.256V36.7359ZM111.838 36.7039C112.308 36.7039 112.669 36.8192 112.919 37.0497C113.169 37.2802 113.294 37.6236 113.294 38.0803V40.1285H112.71V39.6804C112.608 39.8383 112.461 39.9589 112.271 40.042C112.08 40.1254 111.855 40.1669 111.594 40.1669C111.213 40.1669 110.908 40.0752 110.68 39.8916C110.451 39.7082 110.336 39.4671 110.336 39.1684C110.336 38.8696 110.445 38.6296 110.664 38.4483C110.882 38.2668 111.228 38.1763 111.703 38.1763H112.678V38.0545C112.678 37.7901 112.601 37.5873 112.447 37.4464C112.293 37.3057 112.067 37.2353 111.767 37.2353C111.566 37.2353 111.369 37.2683 111.177 37.3344C110.984 37.4006 110.822 37.4892 110.689 37.6002L110.433 37.1393C110.608 36.9984 110.818 36.8907 111.061 36.8159C111.305 36.7414 111.564 36.7039 111.838 36.7039V36.7039ZM111.697 39.6933C111.932 39.6933 112.135 39.641 112.306 39.5364C112.477 39.4318 112.601 39.2835 112.678 39.0915V38.6179H111.729C111.207 38.6179 110.946 38.7929 110.946 39.1428C110.946 39.3134 111.012 39.4478 111.145 39.546C111.277 39.6441 111.461 39.6933 111.697 39.6933ZM116.188 38.3619C116.414 38.4216 116.59 38.5176 116.714 38.6499C116.838 38.7822 116.9 38.9465 116.9 39.1428C116.9 39.3432 116.831 39.5214 116.695 39.6773C116.558 39.833 116.368 39.9546 116.127 40.042C115.885 40.1295 115.615 40.1734 115.315 40.1734C115.063 40.1734 114.816 40.1402 114.574 40.074C114.332 40.0079 114.118 39.913 113.929 39.7893L114.115 39.322C114.278 39.4244 114.464 39.5044 114.674 39.562C114.883 39.6196 115.095 39.6484 115.309 39.6484C115.6 39.6484 115.832 39.5983 116.005 39.498C116.178 39.3977 116.265 39.2622 116.265 39.0915C116.265 38.9336 116.195 38.812 116.056 38.7268C115.917 38.6413 115.722 38.5987 115.469 38.5987H114.847V38.157H115.424C115.655 38.157 115.837 38.1165 115.97 38.0354C116.102 37.9544 116.169 37.8434 116.169 37.7025C116.169 37.5489 116.09 37.4295 115.934 37.3442C115.778 37.2587 115.568 37.2162 115.302 37.2162C114.964 37.2162 114.607 37.3036 114.231 37.4785L114.064 37.0048C114.479 36.7958 114.913 36.6912 115.367 36.6912C115.64 36.6912 115.886 36.7297 116.104 36.8064C116.322 36.8833 116.494 36.9921 116.618 37.1328C116.742 37.2737 116.804 37.4337 116.804 37.6129C116.804 37.7794 116.748 37.9286 116.637 38.061C116.526 38.1933 116.376 38.2936 116.188 38.3619V38.3619ZM117.837 36.7359H118.453V39.2068L120.538 36.7359H121.096V40.1285H120.48V37.6578L118.401 40.1285H117.837V36.7359ZM125.016 36.7359V40.1285H124.464V39.0531H123.476H123.406L122.661 40.1285H122.001L122.828 38.9699C122.572 38.893 122.375 38.7662 122.238 38.589C122.101 38.412 122.033 38.1911 122.033 37.9265C122.033 37.5383 122.165 37.2427 122.43 37.0401C122.696 36.8374 123.061 36.7359 123.528 36.7359H125.016V36.7359ZM122.661 37.9458C122.661 38.172 122.733 38.3394 122.876 38.4483C123.02 38.557 123.235 38.6114 123.521 38.6114H124.464V37.2737H123.547C122.957 37.2737 122.661 37.4978 122.661 37.9458V37.9458ZM133.607 37.6769C133.389 37.6769 133.193 37.6322 133.02 37.5425C132.847 37.4529 132.711 37.3292 132.613 37.1713C132.514 37.0134 132.465 36.8362 132.465 36.6399C132.465 36.4438 132.514 36.2666 132.613 36.1087C132.711 35.9509 132.847 35.8281 133.02 35.7407C133.193 35.6533 133.389 35.6094 133.607 35.6094C133.825 35.6094 134.021 35.6533 134.194 35.7407C134.367 35.8281 134.502 35.9509 134.598 36.1087C134.695 36.2666 134.743 36.4438 134.743 36.6399C134.743 36.8362 134.695 37.0134 134.598 37.1713C134.502 37.3292 134.367 37.4529 134.194 37.5425C134.021 37.6322 133.825 37.6769 133.607 37.6769ZM131.239 35.6478H131.881V40.1285H131.355L128.66 36.7872V40.1285H128.019V35.6478H128.545L131.239 38.9891V35.6478V35.6478ZM133.607 35.9743C133.393 35.9743 133.221 36.0361 133.09 36.1599C132.96 36.2838 132.895 36.4438 132.895 36.6399C132.895 36.8362 132.961 36.9963 133.094 37.1201C133.226 37.2439 133.397 37.3057 133.607 37.3057C133.816 37.3057 133.987 37.2439 134.117 37.1201C134.247 36.9963 134.313 36.8362 134.313 36.6399C134.313 36.4438 134.247 36.2838 134.117 36.1599C133.987 36.0361 133.816 35.9743 133.607 35.9743ZM132.593 38.1825H134.621V38.5987H132.593V38.1825ZM140.376 35.6478V36.0832L138.56 40.1285H137.88L139.657 36.2047H137.604V37.0048H136.988V35.6478H140.376V35.6478Z" fill="#1C1C20"/>
<path d="M8.66356 38.968C7.39347 38.968 6.36381 39.9954 6.36381 41.2625C6.36381 42.5296 7.39347 43.5569 8.66356 43.5569C9.93365 43.5569 10.9633 42.5296 10.9633 41.2625C10.9633 39.9954 9.93365 38.968 8.66356 38.968ZM13.9883 7.55507C15.1856 7.55507 16.1561 6.58671 16.1561 5.39218C16.1561 4.19782 15.1856 3.22963 13.9883 3.22963C12.7911 3.22963 11.8207 4.19782 11.8207 5.39218C11.8207 6.58671 12.7911 7.55507 13.9883 7.55507ZM14.0035 43.4694C12.8098 43.4694 11.8422 44.4348 11.8422 45.6257C11.8422 46.8166 12.8098 47.7818 14.0035 47.7818C15.197 47.7818 16.1647 46.8166 16.1647 45.6257C16.1647 44.4348 15.197 43.4694 14.0035 43.4694V43.4694ZM7.20794 35.5441C7.20794 34.2275 6.1381 33.1601 4.81841 33.1601C3.49855 33.1601 2.4287 34.2275 2.4287 35.5441C2.4287 36.8607 3.49855 37.928 4.81841 37.928C6.1381 37.928 7.20794 36.8607 7.20794 35.5441V35.5441ZM20.3649 4.73677C21.4574 4.73677 22.3432 3.85304 22.3432 2.76293C22.3432 1.673 21.4574 0.789266 20.3649 0.789266C19.2722 0.789266 18.3864 1.673 18.3864 2.76293C18.3864 3.85304 19.2722 4.73677 20.3649 4.73677ZM4.81163 17.8668C6.13347 17.8668 7.20497 16.7977 7.20497 15.4789C7.20497 14.1604 6.13347 13.0914 4.81163 13.0914C3.48978 13.0914 2.41845 14.1604 2.41845 15.4789C2.41845 16.7977 3.48978 17.8668 4.81163 17.8668ZM5.24634 28.9578C5.24634 27.6169 4.15666 26.5299 2.81266 26.5299C1.46865 26.5299 0.379134 27.6169 0.379134 28.9578C0.379134 30.2988 1.46865 31.3857 2.81266 31.3857C4.15666 31.3857 5.24634 30.2988 5.24634 28.9578ZM8.65165 12.0592C9.92505 12.0592 10.957 11.0294 10.957 9.75936C10.957 8.48928 9.92505 7.45955 8.65165 7.45955C7.37859 7.45955 6.34661 8.48928 6.34661 9.75936C6.34661 11.0294 7.37859 12.0592 8.65165 12.0592ZM2.80984 24.4989C4.15484 24.4989 5.24502 23.4112 5.24502 22.0695C5.24502 20.7279 4.15484 19.6402 2.80984 19.6402C1.46518 19.6402 0.375 20.7279 0.375 22.0695C0.375 23.4112 1.46518 24.4989 2.80984 24.4989V24.4989ZM34.0033 4.87781C34.7925 4.87781 35.4325 4.23956 35.4325 3.452C35.4325 2.66461 34.7925 2.02603 34.0033 2.02603C33.2139 2.02603 32.574 2.66461 32.574 3.452C32.574 4.23956 33.2139 4.87781 34.0033 4.87781V4.87781ZM40.0969 43.2482C39.5248 43.2482 39.061 43.7108 39.061 44.2817C39.061 44.8525 39.5248 45.3152 40.0969 45.3152C40.6692 45.3152 41.1331 44.8525 41.1331 44.2817C41.1331 43.7108 40.6692 43.2482 40.0969 43.2482ZM40.0811 7.75435C40.6563 7.75435 41.1225 7.28914 41.1225 6.71538C41.1225 6.14146 40.6563 5.67642 40.0811 5.67642C39.506 5.67642 39.0397 6.14146 39.0397 6.71538C39.0397 7.28914 39.506 7.75435 40.0811 7.75435ZM44.9496 12.1765C45.2709 12.1765 45.5312 11.9168 45.5312 11.5964C45.5312 11.2759 45.2709 11.0164 44.9496 11.0164C44.6285 11.0164 44.3682 11.2759 44.3682 11.5964C44.3682 11.9168 44.6285 12.1765 44.9496 12.1765ZM44.9615 38.8197C44.6422 38.8197 44.3834 39.0778 44.3834 39.3964C44.3834 39.7149 44.6422 39.9733 44.9615 39.9733C45.2808 39.9733 45.5398 39.7149 45.5398 39.3964C45.5398 39.0778 45.2808 38.8197 44.9615 38.8197ZM34.0222 46.131C33.2366 46.131 32.5998 46.7663 32.5998 47.5501C32.5998 48.3337 33.2366 48.9691 34.0222 48.9691C34.8078 48.9691 35.4445 48.3337 35.4445 47.5501C35.4445 46.7663 34.8078 46.131 34.0222 46.131ZM27.235 3.83225C28.1927 3.83225 28.9691 3.0579 28.9691 2.10241C28.9691 1.14708 28.1927 0.372559 27.235 0.372559C26.2774 0.372559 25.5011 1.14708 25.5011 2.10241C25.5011 3.0579 26.2774 3.83225 27.235 3.83225ZM20.3839 46.2839C19.2952 46.2839 18.4125 47.1644 18.4125 48.2507C18.4125 49.3368 19.2952 50.2174 20.3839 50.2174C21.4727 50.2174 22.3552 49.3368 22.3552 48.2507C22.3552 47.1644 21.4727 46.2839 20.3839 46.2839ZM27.2547 47.1823C26.3006 47.1823 25.5274 47.9539 25.5274 48.9054C25.5274 49.8573 26.3006 50.6287 27.2547 50.6287C28.2085 50.6287 28.9818 49.8573 28.9818 48.9054C28.9818 47.9539 28.2085 47.1823 27.2547 47.1823Z" fill="#0AC9AC"/>
<path d="M12.8339 25.5002C12.8339 24.1527 11.7388 23.0601 10.388 23.0601C9.03736 23.0601 7.94238 24.1527 7.94238 25.5002C7.94238 26.8478 9.03736 27.9404 10.388 27.9404C11.7388 27.9404 12.8339 26.8478 12.8339 25.5002ZM15.9809 35.2573C14.7561 35.2573 13.7632 36.2479 13.7632 37.4699C13.7632 38.6919 14.7561 39.6826 15.9809 39.6826C17.2059 39.6826 18.1988 38.6919 18.1988 37.4699C18.1988 36.2479 17.2059 35.2573 15.9809 35.2573V35.2573ZM11.851 29.7271C10.5348 29.7271 9.46761 30.7916 9.46761 32.1049C9.46761 33.4181 10.5348 34.4828 11.851 34.4828C13.1674 34.4828 14.2345 33.4181 14.2345 32.1049C14.2345 30.7916 13.1674 29.7271 11.851 29.7271ZM11.8543 21.278C13.1729 21.278 14.2416 20.2116 14.2416 18.8964C14.2416 17.5811 13.1729 16.5147 11.8543 16.5147C10.536 16.5147 9.46712 17.5811 9.46712 18.8964C9.46712 20.2116 10.536 21.278 11.8543 21.278ZM35.0347 13.5798C35.5147 13.5798 35.9037 13.1918 35.9037 12.7132C35.9037 12.2343 35.5147 11.8463 35.0347 11.8463C34.555 11.8463 34.1659 12.2343 34.1659 12.7132C34.1659 13.1918 34.555 13.5798 35.0347 13.5798ZM15.987 11.315C14.759 11.315 13.7634 12.3082 13.7634 13.5334C13.7634 14.7586 14.759 15.7519 15.987 15.7519C17.2151 15.7519 18.2106 14.7586 18.2106 13.5334C18.2106 12.3082 17.2151 11.315 15.987 11.315ZM21.9921 38.6838C20.9333 38.6838 20.0749 39.5402 20.0749 40.5963C20.0749 41.6528 20.9333 42.5089 21.9921 42.5089C23.0508 42.5089 23.9092 41.6528 23.9092 40.5963C23.9092 39.5402 23.0508 38.6838 21.9921 38.6838ZM35.0269 37.4387C34.5497 37.4387 34.1628 37.8245 34.1628 38.3008C34.1628 38.7771 34.5497 39.1631 35.0269 39.1631C35.5043 39.1631 35.8913 38.7771 35.8913 38.3008C35.8913 37.8245 35.5043 37.4387 35.0269 37.4387ZM28.7724 8.63869C27.9528 8.63869 27.2882 9.3017 27.2882 10.1194C27.2882 10.9373 27.9528 11.6002 28.7724 11.6002C29.5922 11.6002 30.2566 10.9373 30.2566 10.1194C30.2566 9.3017 29.5922 8.63869 28.7724 8.63869ZM28.7671 39.4155C27.9508 39.4155 27.2892 40.0757 27.2892 40.8898C27.2892 41.7042 27.9508 42.3644 28.7671 42.3644C29.5833 42.3644 30.2451 41.7042 30.2451 40.8898C30.2451 40.0757 29.5833 39.4155 28.7671 39.4155V39.4155ZM21.9978 8.49121C20.9354 8.49121 20.0743 9.35053 20.0743 10.4104C20.0743 11.4704 20.9354 12.3297 21.9978 12.3297C23.0604 12.3297 23.9216 11.4704 23.9216 10.4104C23.9216 9.35053 23.0604 8.49121 21.9978 8.49121Z" fill="#F6BC00"/>
</g>
<defs>
<clipPath id="clip0_411_3767">
<rect width="140" height="50.2817" fill="white" transform="translate(0.375 0.359375)"/>
</clipPath>
</defs>
</svg>
