<svg width="140" height="31" viewBox="0 0 140 31" fill="none" xmlns="http://www.w3.org/2000/svg">
<path d="M58.0279 14.428C59.3695 9.85056 62.715 6.07286 67.1303 4.16699H61.1696L49.1973 16.5892L56.5165 29.8281C58.7412 29.8281 61.1017 29.8281 63.3263 29.8281C58.4525 26.4929 56.3637 20.0776 58.0279 14.428Z" fill="#004C97"/>
<path d="M40.9949 4.1499H38.108L44.8329 16.3168L31.8076 29.8281C32.8265 29.8281 33.8285 29.8281 34.8474 29.8281L47.7708 16.4019L40.9949 4.1499Z" fill="#004C97"/>
<path d="M59.5735 4.1499H56.5507L52.4071 8.45512L50.0296 4.1499H42.3027L48.6031 15.5511L59.5735 4.1499Z" fill="#004C97"/>
<path d="M36.4268 29.8281C39.4326 29.8281 42.4384 29.8281 45.4612 29.8281L49.8256 25.3187L52.322 29.8281C53.205 29.8281 54.3259 29.8281 55.2089 29.8281L48.3651 17.4399L36.4268 29.8281Z" fill="#004C97"/>
<path d="M71.1891 20.1457C69.9494 18.6482 69.8136 16.334 71.274 14.4111C73.4817 11.5012 78.2876 11.9777 81.4123 12.8626L84.1634 4.84771C74.7384 1.71665 60.2866 5.46032 59.5904 17.8144C59.2847 26.4249 67.4191 32.1084 75.6215 29.8112L78.4744 21.3709C76.012 21.9325 73.0062 22.3409 71.1891 20.1457Z" fill="#004C97"/>
<path d="M139.78 14.4282H125.736L124.428 20.6393H130.032C128.521 22.4431 126.075 23.1748 123.919 22.2729C121.201 21.1498 119.962 17.8656 121.167 14.9387C122.356 12.0289 125.532 10.5655 128.249 11.7056C129.149 12.0799 129.879 12.6925 130.423 13.4413L138.082 10.1911C135.585 6.14113 130.932 3.41846 125.6 3.41846C119.164 3.41846 113.712 7.38335 111.861 12.8627L112.32 4.15018H103.557L96.985 16.8106L95.5585 4.15018H86.7957L77.999 29.8283H86.7618L90.2771 19.6013L91.4998 29.8283H97.1888L102.776 19.3291L102.232 29.8283H110.995L111.522 19.8225C112.914 25.9656 118.688 30.5601 125.634 30.5601C134.396 30.5601 141.342 23.2939 139.78 14.4282Z" fill="#004C97"/>
<path d="M27.5109 0.44043H1.83406C0.81514 0.44043 0 1.25723 0 2.27823V28.0075C0 29.0285 0.81514 29.8452 1.83406 29.8452H27.5109C28.5299 29.8452 29.345 29.0285 29.345 28.0075V2.27823C29.345 1.27425 28.5299 0.44043 27.5109 0.44043ZM21.0238 26.1696H14.6725H8.32121L1.96992 15.1428L5.14557 9.62944L14.6725 26.1696L24.1994 9.62944L27.3751 15.1428L21.0238 26.1696ZM5.14557 9.62944L8.32121 4.11603H21.0238L24.1994 9.62944H5.14557Z" fill="#004C97"/>
</svg>
