<svg width="140" height="33" viewBox="0 0 140 33" fill="none" xmlns="http://www.w3.org/2000/svg">
<path d="M42.3397 13.9969C41.2773 13.9969 40.246 13.8656 39.246 13.6032C38.246 13.3406 37.4335 12.9906 36.8086 12.5532L38.0274 9.81568C38.6148 10.2032 39.296 10.5157 40.071 10.7532C40.846 10.9907 41.6085 11.1094 42.3585 11.1094C43.7834 11.1094 44.496 10.7532 44.496 10.0407C44.496 9.66576 44.2928 9.38761 43.8865 9.20635C43.4803 9.0251 42.8272 8.83454 41.9272 8.63445C40.9398 8.42197 40.1148 8.19387 39.4523 7.95017C38.7898 7.70635 38.221 7.31582 37.7461 6.77824C37.2711 6.24078 37.0336 5.51586 37.0336 4.60336C37.0336 3.80337 37.2524 3.08155 37.6899 2.43779C38.1273 1.79402 38.7804 1.28468 39.6492 0.909654C40.5179 0.534736 41.5834 0.347168 42.8459 0.347168C43.7085 0.347168 44.5584 0.444053 45.3959 0.637824C46.2334 0.831594 46.9708 1.11594 47.6084 1.49097L46.4646 4.24705C45.2147 3.57217 44.0021 3.23468 42.8272 3.23468C42.0897 3.23468 41.5522 3.34397 41.2147 3.56276C40.8772 3.78145 40.7085 4.0659 40.7085 4.4158C40.7085 4.7658 40.9084 5.02833 41.3085 5.20327C41.7084 5.37833 42.3522 5.55959 43.2397 5.74705C44.2396 5.95954 45.0678 6.18763 45.724 6.43145C46.3802 6.67516 46.949 7.0627 47.4302 7.59385C47.9114 8.12512 48.152 8.84704 48.152 9.75943C48.152 10.5469 47.9333 11.2594 47.4959 11.8969C47.0584 12.5344 46.4021 13.0438 45.5272 13.425C44.6522 13.8062 43.5897 13.9969 42.3397 13.9969ZM59.8482 3.57217V13.7344H56.4546V12.6469C56.0796 13.0594 55.6296 13.3719 55.1046 13.5843C54.5797 13.7968 54.0234 13.9031 53.4359 13.9031C52.1234 13.9031 51.0766 13.5156 50.2953 12.7406C49.5141 11.9656 49.1235 10.8032 49.1235 9.25319V3.57217H52.6859V8.67199C52.6859 9.43445 52.8296 9.99073 53.1172 10.3407C53.4046 10.6907 53.8234 10.8657 54.3734 10.8657C54.9359 10.8657 55.3953 10.6688 55.7515 10.2751C56.1077 9.88134 56.2858 9.27821 56.2858 8.46571V3.57217H59.8482ZM68.0008 3.40343C68.9258 3.40343 69.7663 3.61901 70.5225 4.05029C71.2788 4.48145 71.8788 5.09399 72.3225 5.88767C72.7663 6.68147 72.9881 7.60326 72.9881 8.65327C72.9881 9.70318 72.7663 10.6251 72.3225 11.4188C71.8788 12.2126 71.2788 12.825 70.5225 13.2563C69.7663 13.6875 68.9258 13.9031 68.0008 13.9031C66.8132 13.9031 65.8695 13.5469 65.1696 12.8344V17.3718H61.6071V3.57217H65.0009V4.58454C65.6633 3.79717 66.6633 3.40343 68.0008 3.40343ZM67.2508 11.072C67.8757 11.072 68.3882 10.8563 68.7882 10.4251C69.1882 9.99383 69.3883 9.40322 69.3883 8.65327C69.3883 7.90322 69.1882 7.3126 68.7882 6.88144C68.3882 6.45016 67.8757 6.23458 67.2508 6.23458C66.6258 6.23458 66.1133 6.45016 65.7133 6.88144C65.3133 7.3126 65.1134 7.90322 65.1134 8.65327C65.1134 9.40322 65.3133 9.99383 65.7133 10.4251C66.1133 10.8563 66.6258 11.072 67.2508 11.072ZM84.4968 8.67199C84.4968 8.69701 84.478 8.99077 84.4406 9.55326H77.0533C77.2032 10.0782 77.4938 10.4814 77.9251 10.7626C78.3563 11.0438 78.897 11.1845 79.5469 11.1845C80.0345 11.1845 80.4563 11.1157 80.8125 10.9782C81.1687 10.8407 81.5282 10.6157 81.8907 10.3032L83.7656 12.2532C82.7781 13.3532 81.3344 13.9031 79.4344 13.9031C78.2469 13.9031 77.2032 13.6781 76.3032 13.2281C75.4032 12.7781 74.7064 12.1532 74.2127 11.3532C73.719 10.5532 73.4721 9.64693 73.4721 8.63445C73.4721 7.63449 73.7127 6.73772 74.1939 5.94392C74.6752 5.15024 75.3408 4.52829 76.1907 4.07841C77.0408 3.62842 77.997 3.40343 79.0594 3.40343C80.0719 3.40343 80.9907 3.6127 81.8156 4.03147C82.6406 4.45023 83.2937 5.05646 83.7749 5.85014C84.2562 6.64393 84.4968 7.58455 84.4968 8.67199ZM79.0782 5.93451C78.5281 5.93451 78.0689 6.09086 77.7001 6.40333C77.3313 6.7158 77.097 7.14076 76.997 7.67822H81.1594C81.0593 7.14076 80.825 6.7158 80.4563 6.40333C80.0875 6.09086 79.6282 5.93451 79.0782 5.93451ZM89.012 4.79082C89.3744 4.32832 89.8463 3.98152 90.4275 3.75022C91.0088 3.51902 91.6744 3.40343 92.4244 3.40343V6.60949C92.0994 6.57207 91.8306 6.55325 91.6182 6.55325C90.8557 6.55325 90.2588 6.75953 89.8276 7.17199C89.3963 7.58455 89.1808 8.2158 89.1808 9.06573V13.7344H85.6183V3.57217H89.012V4.79082ZM105.358 13.7344L105.321 6.77824L101.946 12.4407H100.296L96.9395 6.96581V13.7344H93.5084V0.609699H96.5646L101.177 8.18446L105.677 0.609699H108.733L108.77 13.7344H105.358ZM115.798 13.9031C114.711 13.9031 113.729 13.6781 112.855 13.2281C111.979 12.7781 111.295 12.1532 110.801 11.3532C110.308 10.5532 110.061 9.64693 110.061 8.63445C110.061 7.63449 110.308 6.7345 110.801 5.93451C111.295 5.13462 111.976 4.51268 112.845 4.069C113.714 3.62521 114.698 3.40343 115.798 3.40343C116.898 3.40343 117.886 3.62521 118.761 4.069C119.636 4.51268 120.317 5.13142 120.804 5.92521C121.292 6.71889 121.536 7.62198 121.536 8.63445C121.536 9.64693 121.292 10.5532 120.804 11.3532C120.317 12.1532 119.636 12.7781 118.761 13.2281C117.886 13.6781 116.898 13.9031 115.798 13.9031ZM115.798 11.072C116.423 11.072 116.936 10.8563 117.336 10.4251C117.736 9.99383 117.936 9.39702 117.936 8.63445C117.936 7.88451 117.736 7.29699 117.336 6.87203C116.936 6.44706 116.423 6.23458 115.798 6.23458C115.173 6.23458 114.661 6.44706 114.261 6.87203C113.861 7.29699 113.661 7.88451 113.661 8.63445C113.661 9.39702 113.861 9.99383 114.261 10.4251C114.661 10.8563 115.173 11.072 115.798 11.072ZM135.894 3.40343C137.144 3.40343 138.141 3.77834 138.885 4.52829C139.628 5.27835 140 6.40952 140 7.92204V13.7344H136.438V8.50324C136.438 7.79072 136.304 7.26577 136.035 6.92827C135.766 6.59078 135.388 6.42204 134.9 6.42204C134.363 6.42204 133.932 6.6095 133.607 6.98452C133.282 7.35955 133.119 7.92824 133.119 8.6907V13.7344H129.557V8.50324C129.557 7.11574 129.044 6.42204 128.019 6.42204C127.469 6.42204 127.032 6.6095 126.707 6.98452C126.382 7.35955 126.219 7.92824 126.219 8.6907V13.7344H122.657V3.57217H126.051V4.64079C126.426 4.22833 126.873 3.91897 127.391 3.71279C127.91 3.50651 128.476 3.40343 129.088 3.40343C129.801 3.40343 130.438 3.53464 131.001 3.79717C131.563 4.05959 132.019 4.45964 132.369 4.99711C132.769 4.48456 133.275 4.09081 133.888 3.81588C134.5 3.54084 135.169 3.40343 135.894 3.40343Z" fill="#FF5995"/>
<path d="M44.1627 27.3795H38.9316L37.8488 29.8404H36.4004L40.8581 19.9969H42.2503L46.722 29.8404H45.2455L44.1627 27.3795V27.3795ZM43.6705 26.2545L41.5472 21.4312L39.4238 26.2545H43.6705V26.2545ZM50.7993 29.9248C50.0399 29.9248 49.3626 29.7607 48.7674 29.4326C48.172 29.1045 47.7056 28.6521 47.3681 28.0755C47.0306 27.499 46.8619 26.8452 46.8619 26.1139C46.8619 25.3827 47.0306 24.7287 47.3681 24.1522C47.7056 23.5756 48.172 23.1256 48.7674 22.8022C49.3626 22.4788 50.0399 22.3171 50.7993 22.3171C51.4743 22.3171 52.0766 22.4531 52.6064 22.7249C53.136 22.9968 53.5461 23.3905 53.8367 23.9062L52.8102 24.5671C52.5758 24.2109 52.2852 23.9437 51.9383 23.7655C51.5914 23.5874 51.2071 23.4984 50.7852 23.4984C50.2977 23.4984 49.8595 23.6062 49.4705 23.8218C49.0814 24.0374 48.7767 24.3444 48.5564 24.7428C48.3361 25.1413 48.2259 25.5983 48.2259 26.1139C48.2259 26.6389 48.3361 27.1006 48.5564 27.499C48.7767 27.8975 49.0814 28.2045 49.4705 28.4201C49.8595 28.6357 50.2977 28.7436 50.7852 28.7436C51.2071 28.7436 51.5914 28.6545 51.9383 28.4764C52.2852 28.2982 52.5758 28.031 52.8102 27.6748L53.8367 28.3217C53.5461 28.8373 53.136 29.2334 52.6064 29.5099C52.0766 29.7865 51.4743 29.9248 50.7993 29.9248V29.9248ZM57.9281 22.3171C58.9593 22.3171 59.7492 22.5702 60.2976 23.0765C60.846 23.5827 61.1202 24.3374 61.1202 25.3405V29.8404H59.8405V28.8561C59.6155 29.203 59.2944 29.4677 58.8773 29.6505C58.4601 29.8333 57.9656 29.9248 57.3937 29.9248C56.5594 29.9248 55.8914 29.7233 55.3899 29.3201C54.8883 28.9169 54.6375 28.3873 54.6375 27.7311C54.6375 27.0748 54.8766 26.5475 55.3547 26.149C55.8328 25.7506 56.5922 25.5514 57.6328 25.5514H59.7702V25.2843C59.7702 24.7031 59.6015 24.2577 59.264 23.9483C58.9265 23.639 58.4296 23.4843 57.7734 23.4843C57.3328 23.4843 56.9015 23.5569 56.4797 23.7022C56.0578 23.8476 55.7016 24.0421 55.4109 24.2858L54.8484 23.2734C55.2328 22.964 55.6922 22.7273 56.2265 22.5632C56.7609 22.3992 57.328 22.3171 57.9281 22.3171V22.3171ZM57.6187 28.8842C58.1343 28.8842 58.5796 28.7694 58.9546 28.5396C59.3296 28.3099 59.6015 27.9842 59.7702 27.5623V26.5217H57.689C56.5453 26.5217 55.9734 26.9061 55.9734 27.6748C55.9734 28.0499 56.1187 28.3452 56.4093 28.5607C56.7 28.7763 57.103 28.8842 57.6187 28.8842V28.8842ZM70.3301 19.4062V29.8404H69.0364V28.6592C68.7365 29.0716 68.3568 29.3858 67.8974 29.6013C67.438 29.8169 66.9317 29.9248 66.3787 29.9248C65.6568 29.9248 65.01 29.7654 64.4381 29.4467C63.8662 29.1279 63.4186 28.6802 63.0952 28.1037C62.7718 27.5271 62.61 26.8639 62.61 26.1139C62.61 25.364 62.7718 24.703 63.0952 24.1312C63.4186 23.5593 63.8662 23.114 64.4381 22.7952C65.01 22.4765 65.6568 22.3171 66.3787 22.3171C66.913 22.3171 67.4052 22.4179 67.8552 22.6194C68.3052 22.821 68.6802 23.1187 68.9802 23.5124V19.4062H70.3301V19.4062ZM66.4912 28.7436C66.9599 28.7436 67.3865 28.6334 67.7708 28.413C68.1552 28.1928 68.4552 27.8834 68.6708 27.4849C68.8864 27.0865 68.9942 26.6296 68.9942 26.1139C68.9942 25.5983 68.8864 25.1413 68.6708 24.7428C68.4552 24.3444 68.1552 24.0374 67.7708 23.8218C67.3865 23.6062 66.9599 23.4984 66.4912 23.4984C66.013 23.4984 65.5842 23.6062 65.2045 23.8218C64.8248 24.0374 64.5248 24.3444 64.3045 24.7428C64.0842 25.1413 63.974 25.5983 63.974 26.1139C63.974 26.6296 64.0842 27.0865 64.3045 27.4849C64.5248 27.8834 64.8248 28.1928 65.2045 28.413C65.5842 28.6334 66.013 28.7436 66.4912 28.7436ZM79.2589 26.1561C79.2589 26.2592 79.2494 26.3952 79.2307 26.5639H73.184C73.2684 27.2202 73.5567 27.7475 74.0489 28.1459C74.5411 28.5444 75.1527 28.7436 75.8839 28.7436C76.7745 28.7436 77.4917 28.4436 78.0354 27.8436L78.7808 28.7154C78.4433 29.1092 78.0237 29.4091 77.5222 29.6154C77.0206 29.8217 76.4605 29.9248 75.8417 29.9248C75.0543 29.9248 74.3558 29.763 73.7465 29.4396C73.1372 29.1161 72.666 28.6638 72.3333 28.0826C72.0004 27.5014 71.834 26.8452 71.834 26.1139C71.834 25.3921 71.9958 24.7405 72.3192 24.1593C72.6427 23.5781 73.0879 23.1256 73.6551 22.8022C74.2223 22.4788 74.862 22.3171 75.5746 22.3171C76.2871 22.3171 76.9222 22.4788 77.4801 22.8022C78.0378 23.1256 78.4737 23.5781 78.7878 24.1593C79.1019 24.7405 79.2589 25.4062 79.2589 26.1561V26.1561ZM75.5746 23.4562C74.9277 23.4562 74.3864 23.653 73.9504 24.0468C73.5145 24.4405 73.259 24.9562 73.184 25.5936H77.9651C77.8902 24.9655 77.6347 24.4523 77.1988 24.0538C76.7629 23.6554 76.2214 23.4562 75.5746 23.4562V23.4562ZM90.086 22.3171C91.0235 22.3171 91.7665 22.589 92.3149 23.1327C92.8633 23.6765 93.1375 24.4827 93.1375 25.5514V29.8404H91.7875V25.7061C91.7875 24.9843 91.6211 24.4405 91.2883 24.0749C90.9555 23.7093 90.4797 23.5265 89.861 23.5265C89.1766 23.5265 88.6329 23.7397 88.2298 24.1662C87.8266 24.5929 87.6251 25.2045 87.6251 26.0014V29.8404H86.2751V25.7061C86.2751 24.9843 86.1087 24.4405 85.776 24.0749C85.4431 23.7093 84.9673 23.5265 84.3486 23.5265C83.6642 23.5265 83.1205 23.7397 82.7174 24.1662C82.3142 24.5929 82.1127 25.2045 82.1127 26.0014V29.8404H80.7627V22.3874H82.0565V23.4984C82.3283 23.114 82.6846 22.821 83.1252 22.6194C83.5658 22.4179 84.0674 22.3171 84.6298 22.3171C85.211 22.3171 85.7267 22.4343 86.1767 22.6687C86.6267 22.9031 86.9736 23.2452 87.2173 23.6952C87.4985 23.2639 87.8899 22.9265 88.3915 22.6827C88.893 22.439 89.4578 22.3171 90.086 22.3171V22.3171ZM101.715 22.3874L98.1007 30.5857C97.7819 31.3451 97.4093 31.8794 96.9828 32.1888C96.5561 32.4982 96.0429 32.6528 95.4429 32.6528C95.0773 32.6528 94.7234 32.5943 94.3813 32.4771C94.039 32.3599 93.7554 32.1888 93.5304 31.9638L94.107 30.9513C94.4913 31.3169 94.9367 31.4997 95.4429 31.4997C95.771 31.4997 96.0452 31.413 96.2656 31.2396C96.4858 31.0661 96.685 30.7685 96.8632 30.3466L97.1022 29.8263L93.8117 22.3874H95.2179L97.8194 28.3498L100.393 22.3874H101.715V22.3874Z" fill="#FF5995"/>
<path fill-rule="evenodd" clip-rule="evenodd" d="M14.8213 0.494141C23.007 0.494141 29.6427 7.12995 29.6427 15.3155C29.6427 16.2462 29.556 17.1566 29.3919 18.0398C29.6761 16.3632 29.2376 14.4516 28.3203 13.0578C28.2027 12.8793 28.1032 12.7319 27.9719 12.5305C27.7454 12.1831 27.0448 11.3797 26.7651 11.1129C25.9642 10.3487 25.0759 9.55695 24.0999 8.96312C24.0078 8.9071 23.9284 8.85772 23.8331 8.7905L22.3096 7.91289C20.612 6.83597 20.1219 6.43869 19.0582 4.75654C18.3176 3.5855 18.051 2.80709 16.6364 1.92417C15.1362 0.988088 13.2461 0.592355 11.4728 0.874042C12.5489 0.625462 13.6698 0.494141 14.8213 0.494141ZM29.3461 18.2786C27.9733 25.0443 21.9922 30.1369 14.8213 30.1369C11.8466 30.1369 9.07687 29.26 6.75561 27.7511C6.76967 27.7584 6.78329 27.7658 6.79758 27.7729C9.45323 29.0952 14.5651 27.952 17.2253 27.0737C19.203 26.4206 22.476 24.8821 24.0495 23.4919L24.7375 22.9192C25.8287 21.8659 26.341 20.8112 26.4217 20.7276C26.6096 20.1016 26.9259 19.3137 26.8297 18.6396C26.6091 17.0921 25.8333 16.517 24.2921 16.2018C23.4004 16.0196 22.636 16.3133 22.1316 16.336C22.2494 16.1633 22.32 16.1109 22.4389 15.881C23.1794 14.4478 22.8897 12.7857 22.1555 11.4448C21.4244 10.1098 19.9087 9.22831 17.8179 9.37469C16.8499 9.44246 15.9566 9.67122 15.0531 9.82679C14.0595 9.99808 13.1747 10.052 12.1175 10.1039C11.3802 10.1401 9.81409 9.97926 9.1773 9.8011C8.39591 9.58264 7.58573 9.14793 7.18268 8.64822C7.04239 8.89137 7.4316 9.74817 7.5359 9.89477C7.86033 10.3506 7.98644 10.3844 8.5135 10.7016C10.1778 11.5161 13.9641 10.998 15.6602 10.4863C14.4671 11.6423 14.7153 12.8028 14.3556 14.3343C14.1743 15.1068 13.7686 15.0564 12.8912 15.489C11.9549 15.9508 11.2199 16.8363 11.1484 15.8183C11.1388 15.6804 11.1414 15.6554 11.1111 15.5127C10.7757 15.4055 10.3811 15.4896 10.0214 15.3889C9.89403 14.9805 9.9102 14.4813 9.7925 14.0921C9.68919 13.7507 9.44614 13.3188 9.23499 13.1178C9.01475 12.9082 8.51461 12.7276 8.22528 12.5944C7.66268 12.3354 7.62968 11.9411 7.4977 11.8514C7.42119 12.45 8.07857 12.712 8.28363 12.9995C8.93991 13.0687 9.43773 13.9393 9.5242 14.7346C9.55654 15.0312 9.48545 15.4543 9.66427 15.6385C9.91717 15.9091 10.5222 15.6942 10.883 15.6768C10.8586 16.002 10.7355 16.1342 10.8186 16.4492C11.0873 16.5618 11.0149 16.5381 11.3093 16.5093C11.1657 16.7631 9.75418 17.9062 9.47582 18.7624C9.31427 18.8082 9.02616 19.5193 8.96305 19.6598C8.87291 19.8601 8.81146 19.9808 8.72731 20.1939C8.51272 20.7377 8.06129 22.2095 8.01412 22.778C8.00217 22.921 7.99453 22.9417 8.08565 23.063C8.26237 22.3106 9.38491 19.6942 9.78208 19.3695C9.80102 19.1766 9.83457 19.18 9.99224 18.9383L10.795 17.8824C10.9722 17.6527 11.2043 17.394 11.3894 17.2164L12.7209 16.0877C13.3591 15.624 14.1666 15.4089 14.3603 15.2071C14.5793 14.9792 14.6348 14.597 14.7578 14.4497C14.8478 13.7938 15.0233 12.7525 15.2548 12.17C16.1572 9.89942 18.796 9.71496 20.5723 10.9463C21.4878 11.5809 22.3066 13.1539 21.9449 14.7351C21.5928 16.2743 20.7311 16.349 20.0181 16.8542C19.7287 17.0593 19.6699 17.3058 19.6285 17.7679C19.2827 17.7859 19.2325 17.6393 18.9861 17.6985L18.9684 18.1063C18.7323 18.1901 18.5588 18.1254 18.3516 18.0517C18.5283 18.4736 18.3956 18.4766 18.0538 18.3501C17.9214 18.5955 17.8326 18.8731 17.402 18.7987C16.8691 18.7067 15.8491 17.9054 15.754 17.0564C15.7141 16.6997 15.7831 16.3756 15.8722 16.0488C16.0342 15.4551 15.7571 15.7244 15.7828 15.2162C15.8046 14.7861 16.124 14.267 16.4254 14.1469L16.8487 14.0718C16.8554 14.0572 16.876 14.0675 16.8876 14.0608C16.3561 13.5885 15.3927 14.0454 15.5156 15.3778L15.7118 15.7056C15.3052 16.1012 15.3297 16.6113 15.3398 17.3215C15.3386 17.3214 15.2363 17.3146 15.2359 17.3146L15.1825 17.3433C15.3478 17.5131 15.6063 17.9165 15.6569 18.1806C15.7811 18.8298 14.8162 19.9511 14.3521 20.6561C13.4364 22.0468 14.4987 23.1755 15.5492 23.9862C15.7337 24.1377 15.9133 24.3261 16.1879 24.4015C15.9189 24.0048 15.773 24.1873 15.0725 23.2476C14.1389 21.9956 14.7685 21.0887 15.4174 20.08C15.583 19.8226 15.7218 19.6603 15.8908 19.4054L16.2848 18.7227C16.907 19.097 16.962 19.0824 17.7486 19.3086C17.6658 19.4523 17.3555 19.7281 17.2546 19.8373C16.9179 20.2014 16.1024 21.1116 15.9458 21.4938C16.2407 21.3327 17.7235 19.742 18.1934 19.2983C18.6069 18.9075 19.1615 18.435 19.6572 18.1336C20.4536 17.6494 21.1492 17.407 22.179 17.0934C23.0486 16.8287 24.5395 16.7847 24.9683 17.4342C25.5412 18.3022 25.0514 19.4946 24.7284 20.2361C24.6205 20.4841 24.1741 21.0359 23.9855 21.2431L21.6023 23.2387C21.4251 23.3699 21.2589 23.4525 21.0676 23.5792C19.5832 24.5611 18.0321 25.2499 16.3585 25.9315C14.3196 26.7621 6.84076 29.0462 6.28315 25.5522C6.00677 23.8203 6.70966 22.1463 7.51076 20.7264L8.89008 18.5793C8.73407 18.6696 8.2503 19.3267 8.15142 19.4764C7.37302 20.5349 6.75395 21.4236 6.10532 22.6031C5.36301 23.9529 4.79255 26.0991 6.13754 27.3267C2.41925 24.6338 0 20.2575 0 15.3155C0 9.02148 3.92368 3.64429 9.45821 1.4951C7.91303 2.23021 6.87564 3.49116 6.56096 5.47072C6.44968 6.17084 6.52707 6.47334 6.50781 7.13482C6.24937 7.27655 6.23321 7.27511 6.03069 7.46091C5.92273 7.5599 5.91099 7.5475 5.78532 7.65479C3.14107 9.91493 5.00282 14.8724 9.08451 14.553L8.71768 14.4042C6.83179 13.8744 5.78322 12.2022 5.93513 10.2986C6.00998 9.35908 6.37538 8.30275 6.94451 7.88244C7.37214 7.56676 7.18268 7.7592 7.46758 6.70199C7.57609 6.29961 7.79478 5.80456 7.98146 5.47515C9.38292 3.0022 12.5218 2.18736 15.2044 3.08036C16.1848 3.40678 16.6924 3.69169 17.4474 4.28529C19.0038 5.50881 19.5266 7.65977 21.4071 8.85871C22.7397 9.70842 23.0246 9.70532 24.478 10.9879C27.373 13.5426 28.4163 17.0356 27.1508 20.9081C26.8982 21.8811 26.127 23.0742 25.7646 23.8573C25.881 23.8093 25.8346 23.8233 25.9139 23.7634L26.2447 23.4386C26.867 22.7625 26.8557 22.8902 27.4837 22.054C27.6024 21.8959 27.7618 21.713 27.8715 21.5604L28.5417 20.4827C28.5938 20.3689 28.6128 20.2963 28.6748 20.1794C29.0049 19.5579 29.0787 19.2784 29.2697 18.5909C29.2983 18.4881 29.3237 18.3839 29.3461 18.2786V18.2786ZM10.1819 13.3336L10.4334 13.8289C10.7916 13.9017 11.2711 13.6833 11.4522 13.4619C11.6297 13.2447 11.8858 12.6392 11.6789 12.3719C11.4764 12.4695 11.3611 12.8883 11.1453 13.0451C10.904 13.2205 10.5143 13.2667 10.1819 13.3336ZM11.1362 20.0725C10.3921 21.9621 11.7285 23.6493 13.4332 24.3901C13.821 24.5587 14.7437 24.9531 15.1844 24.9825L14.7431 24.8034C14.178 24.4587 13.2953 24.0981 12.7153 23.4648C12.4087 23.1298 12.0808 22.6807 11.8877 22.2682C11.3843 21.193 11.4382 20.082 11.9391 19.0178C12.1089 18.6572 12.2804 18.4582 12.4341 18.1599C12.2391 18.2473 12.1825 18.3815 12.0512 18.5341L11.6881 18.9896C11.4622 19.3255 11.2587 19.6281 11.1362 20.0725V20.0725Z" fill="#FF5995"/>
</svg>
