<svg width="140" height="39" viewBox="0 0 140 39" fill="none" xmlns="http://www.w3.org/2000/svg">
<g clip-path="url(#clip0_411_3632)">
<path fill-rule="evenodd" clip-rule="evenodd" d="M129.898 29.6282C135.188 29.6282 139.477 25.2987 139.477 19.958C139.477 14.6171 135.188 10.2876 129.898 10.2876C124.607 10.2876 120.318 14.6171 120.318 19.958C120.318 25.2987 124.607 29.6282 129.898 29.6282ZM129.898 24.3536C132.302 24.3536 134.251 22.3855 134.251 19.958C134.251 17.5303 132.302 15.5623 129.898 15.5623C127.493 15.5623 125.543 17.5303 125.543 19.958C125.543 22.3855 127.493 24.3536 129.898 24.3536Z" fill="#818181"/>
<path d="M132.793 28.7593C132.038 27.9962 132.038 26.7588 132.793 25.9957C133.549 25.2325 134.775 25.2325 135.531 25.9957L136.686 27.1623C137.443 27.9254 137.443 29.1627 136.686 29.9259C135.931 30.6891 134.705 30.6891 133.949 29.9259L132.793 28.7593Z" fill="#FFCE03"/>
<path fill-rule="evenodd" clip-rule="evenodd" d="M136.25 27.6028L135.095 26.4362C134.58 25.9162 133.745 25.9162 133.23 26.4362C132.715 26.9561 132.715 27.799 133.23 28.3189L134.385 29.4855C134.9 30.0054 135.735 30.0054 136.25 29.4855C136.765 28.9656 136.765 28.1226 136.25 27.6028ZM132.793 25.9957C132.038 26.7588 132.038 27.9962 132.793 28.7593L133.949 29.9259C134.705 30.6891 135.931 30.6891 136.686 29.9259C137.443 29.1627 137.443 27.9254 136.686 27.1623L135.531 25.9957C134.775 25.2325 133.549 25.2325 132.793 25.9957Z" fill="white"/>
<path fill-rule="evenodd" clip-rule="evenodd" d="M18.9978 38.6779C29.49 38.6779 37.9956 30.0916 37.9956 19.4999C37.9956 8.9081 29.49 0.321777 18.9978 0.321777C8.50561 0.321777 0 8.9081 0 19.4999C0 30.0916 8.50561 38.6779 18.9978 38.6779ZM18.9978 31.0611C25.3229 31.0611 30.4504 25.885 30.4504 19.4999C30.4504 13.1147 25.3229 7.9386 18.9978 7.9386C12.6728 7.9386 7.54525 13.1147 7.54525 19.4999C7.54525 25.885 12.6728 31.0611 18.9978 31.0611Z" fill="#F2F2F2"/>
<path d="M9.7296 14.7432C7.83653 18.5527 8.82814 22.453 9.56058 23.927C11.7241 28.825 16.7723 30.1629 19.0259 30.2196H30.1815C30.452 27.7705 29.8435 25.1174 23.9276 25.2876H19.0259C14.1243 25.2876 13.5608 20.5822 13.7861 18.8248C13.8988 17.2942 15.1045 14.1989 19.0259 14.0629C22.9473 13.9268 24.2656 16.8973 24.4347 18.3146H16.4905V21.8861H29.3364C29.4716 21.0698 29.5054 20.4122 29.5054 20.1854C29.1674 9.13081 20.5472 8.45051 16.4905 9.30087C15.0257 9.52763 11.6227 10.9335 9.7296 14.7432Z" fill="#FFCE03"/>
<path d="M96.6391 12.1064C96.8031 11.8074 97.0419 11.608 97.3545 11.5084C97.6671 11.4087 98.0535 11.3589 98.5147 11.3589C98.9913 11.3589 99.3701 11.4004 99.6501 11.4834C99.9464 11.5665 100.16 11.6661 100.292 11.7824C100.439 11.8987 100.547 12.0731 100.613 12.3056C100.712 12.5714 100.76 12.995 100.76 13.5763V27.404C100.76 27.8027 100.744 28.0933 100.712 28.2761C100.694 28.4587 100.62 28.6747 100.489 28.9238C100.259 29.3723 99.6165 29.5966 98.5636 29.5966C97.9221 29.5966 97.4782 29.5467 97.2308 29.4471C96.9843 29.3474 96.7791 29.1896 96.6142 28.9737C92.912 23.9907 90.4769 20.7351 89.3087 19.207V27.404C89.3087 27.8027 89.2922 28.0933 89.2593 28.2761C89.2429 28.4587 89.1688 28.6747 89.0372 28.9238C88.8069 29.3723 88.1652 29.5966 87.1121 29.5966C86.0919 29.5966 85.4667 29.3723 85.2364 28.9238C85.1048 28.6747 85.0225 28.4505 84.9896 28.2511C84.9731 28.0518 84.9648 27.7611 84.9648 27.3791V13.4766C84.9648 12.8455 85.039 12.3887 85.187 12.1064C85.3516 11.8074 85.5901 11.608 85.9028 11.5084C86.2154 11.4087 86.6185 11.3589 87.1121 11.3589C87.6058 11.3589 87.9924 11.4087 88.2721 11.5084C88.5682 11.5914 88.7739 11.6911 88.8891 11.8074C88.9549 11.8571 89.1441 12.0731 89.4567 12.4551C92.9285 17.2222 95.2485 20.3697 96.4167 21.8978V13.4766C96.4167 12.8455 96.4905 12.3887 96.6391 12.1064Z" fill="#818181"/>
<path d="M113.416 12.6296L120.079 26.532C120.359 27.0967 120.499 27.5203 120.499 27.8027C120.499 28.4007 120.021 28.9405 119.067 29.4222C118.507 29.7046 118.063 29.8457 117.734 29.8457C117.422 29.8457 117.158 29.7709 116.944 29.6214C116.747 29.472 116.599 29.3142 116.5 29.1481C116.418 28.982 116.295 28.7328 116.13 28.4007L114.847 25.7099H108.01L106.727 28.4007C106.562 28.7328 106.431 28.9737 106.332 29.1232C106.25 29.2727 106.102 29.4304 105.888 29.5966C105.691 29.7461 105.427 29.8208 105.098 29.8208C104.785 29.8208 104.349 29.6796 103.79 29.3972C102.836 28.9322 102.358 28.4007 102.358 27.8027C102.358 27.5203 102.498 27.0967 102.778 26.532L109.442 12.6046C109.623 12.2226 109.894 11.9154 110.256 11.6828C110.635 11.4503 111.03 11.334 111.441 11.334C112.329 11.334 112.988 11.7659 113.416 12.6296ZM111.416 18.6091L109.787 22.0225H113.069L111.416 18.6091Z" fill="#818181"/>
<path fill-rule="evenodd" clip-rule="evenodd" d="M52.7709 30.2513C58.0614 30.2513 62.3502 25.9217 62.3502 20.581C62.3502 15.2402 58.0614 10.9106 52.7709 10.9106C47.4803 10.9106 43.1914 15.2402 43.1914 20.581C43.1914 25.9217 47.4803 30.2513 52.7709 30.2513ZM52.7709 24.9766C55.1757 24.9766 57.1251 23.0086 57.1251 20.581C57.1251 18.1533 55.1757 16.1854 52.7709 16.1854C50.366 16.1854 48.4166 18.1533 48.4166 20.581C48.4166 23.0086 50.366 24.9766 52.7709 24.9766Z" fill="#818181"/>
<path fill-rule="evenodd" clip-rule="evenodd" d="M73.7494 30.2513C79.0399 30.2513 83.3287 25.9217 83.3287 20.581C83.3287 15.2402 79.0399 10.9106 73.7494 10.9106C68.4588 10.9106 64.1699 15.2402 64.1699 20.581C64.1699 25.9217 68.4588 30.2513 73.7494 30.2513ZM73.7494 24.9766C76.1542 24.9766 78.1037 23.0086 78.1037 20.581C78.1037 18.1533 76.1542 16.1854 73.7494 16.1854C71.3446 16.1854 69.3951 18.1533 69.3951 20.581C69.3951 23.0086 71.3446 24.9766 73.7494 24.9766Z" fill="#818181"/>
<path d="M55.8815 29.1221C55.1255 28.359 55.1255 27.1216 55.8815 26.3585C56.6375 25.5953 57.8631 25.5953 58.6191 26.3585L59.7747 27.525C60.5307 28.2882 60.5307 29.5255 59.7747 30.2887C59.0187 31.0518 57.793 31.0518 57.037 30.2887L55.8815 29.1221Z" fill="#FFCE03"/>
<path fill-rule="evenodd" clip-rule="evenodd" d="M59.3384 27.9655L58.1828 26.799C57.6678 26.279 56.8328 26.279 56.3178 26.799C55.8027 27.3189 55.8027 28.1617 56.3178 28.6817L57.4733 29.8483C57.9884 30.3681 58.8234 30.3681 59.3384 29.8483C59.8534 29.3283 59.8534 28.4854 59.3384 27.9655ZM55.8815 26.3585C55.1255 27.1216 55.1255 28.359 55.8815 29.1221L57.037 30.2887C57.793 31.0518 59.0187 31.0518 59.7747 30.2887C60.5307 29.5255 60.5307 28.2882 59.7747 27.525L58.6191 26.3585C57.8631 25.5953 56.6375 25.5953 55.8815 26.3585Z" fill="white"/>
</g>
<defs>
<clipPath id="clip0_411_3632">
<rect width="140" height="38.3562" fill="white" transform="translate(0 0.321777)"/>
</clipPath>
</defs>
</svg>
