<svg width="135" height="75" viewBox="0 0 135 75" fill="none" xmlns="http://www.w3.org/2000/svg">
<path d="M23.4917 1.00355V24.4437H17.4588V15.7372H7.59547V24.5542H1.5625V1.11538H7.59547V10.4914H17.4588V1.11538H23.4917V1.00355ZM93.1078 24.4423H87.0748V12.7222L81.6217 20.7592H78.255L72.8033 12.6119V24.4423H66.7703V1.00355H71.295L79.8809 13.505L88.4669 1.00355H92.9916V24.4437L93.1078 24.4423ZM45.1883 0C35.5577 0 27.7839 7.14244 27.7839 15.9608C27.7839 19.0847 28.7123 21.988 30.4531 24.4423H38.8066C36.2552 22.5456 34.6306 19.6439 34.6306 16.2948C34.6306 10.7136 39.3864 6.13891 45.1883 6.13891C50.9903 6.13891 55.7475 10.7136 55.7475 16.2948C55.7475 19.6439 54.123 22.5456 51.57 24.4423H59.9234C61.548 21.988 62.5928 19.0847 62.5928 15.9608C62.5912 7.14244 54.8161 0 45.1883 0Z" fill="#DA0025"/>
<path d="M39.5038 18.6393C40.316 20.9833 42.5218 22.6579 45.1894 22.6579C47.8587 22.6579 50.063 20.9833 50.8752 18.6393H39.5038ZM104.132 10.3801H114.922V15.2902H104.132V19.3088H116.43V24.3308H97.9809V0.89209H116.43V5.91562H104.132V10.3801ZM22.3584 68.3208C22.3584 72.2275 19.1099 74.7938 13.6568 74.7938H1.3584V51.355H12.9599C18.2974 51.355 21.3146 53.8108 21.3146 57.6057C21.3146 59.7261 20.0381 62.07 17.949 62.7396C20.8506 63.4091 22.3584 65.865 22.3584 68.3208ZM7.3912 56.1549V61.065H11.9178C14.2381 61.065 15.5131 59.9497 15.5131 58.4989C15.5131 57.0466 14.2381 56.2667 11.9178 56.2667H7.3912V56.1549ZM16.4412 67.5394C16.4412 66.0872 15.1646 65.3072 12.9599 65.3072H7.3912V69.9954H12.8443C15.2802 69.9954 16.4412 68.9904 16.4412 67.5394ZM41.0381 70.7768H30.7115L29.0896 74.7938H22.5912L32.9178 51.355H38.7177L49.0443 74.7952H42.5475L41.0381 70.7768ZM39.0677 65.9768L35.8178 58.0516L32.5693 65.9768H39.0677ZM73.5271 51.355V74.7952H68.8865L57.1678 61.9583V74.7938H51.135V51.355H55.7756L67.4943 64.526V51.355H73.5271ZM88.2631 66.0886L84.6662 70.1057V74.9071H78.6318V51.4668H84.6662V62.1819L94.4115 51.4668H101.605L92.324 61.7346L102.418 74.9071H94.8772L88.2631 66.0886ZM44.9847 49.1722L40.3441 42.3637H35.8191V49.1722H29.6691V25.7334H40.3441C46.3784 25.7334 50.4378 28.8587 50.4378 33.9926C50.4378 37.0062 48.93 39.5739 46.3769 41.0247L52.0628 49.1722H44.9847ZM35.7019 37.2312H40.2284C42.5487 37.2312 44.405 36.004 44.405 34.1059C44.405 32.2092 42.5472 30.9805 40.2284 30.9805H35.7019V37.2312ZM61.1128 35.1095H71.9034V40.0197H61.1128V44.0383H73.4112V49.0603H54.9628V25.6215H73.4112V30.6451H61.1128V35.1095ZM100.447 37.4534C100.447 44.3737 94.994 49.284 87.3347 49.284H77.5893V25.8452H87.3347C94.8768 25.7334 100.447 30.5332 100.447 37.4534ZM94.2956 37.4534C94.2956 33.8808 91.28 31.0924 87.3362 31.0924H83.6222V44.0383H87.3362C91.28 43.9264 94.2956 41.1365 94.2956 37.4534ZM109.728 25.7334V49.1736H103.694V25.7319L109.728 25.7334ZM132.933 30.9791H125.972V49.1722H119.939V30.9791H112.977V25.7334H132.933V30.9791ZM19.8077 40.8011C18.8792 42.9214 16.9059 44.2619 14.2367 44.2619C10.2933 44.2619 7.50766 41.4706 7.50766 37.5653C7.50766 33.6586 10.2931 30.8687 14.2381 30.8687C16.9059 30.8687 18.8792 32.0959 19.8077 34.3281H26.1878C24.9122 28.9706 20.3873 25.3993 14.2381 25.3993C6.92797 25.3993 1.36 30.5332 1.36 37.5653C1.36 44.5959 6.92797 49.7298 14.2381 49.7298C20.3873 49.7298 24.9122 46.1586 26.1878 40.8011H19.8077Z" fill="#DA0025"/>
</svg>
