<svg width="140" height="47" viewBox="0 0 140 47" fill="none" xmlns="http://www.w3.org/2000/svg">
<g clip-path="url(#clip0_411_3732)">
<path d="M1.40766 20.1853C0.500638 21.0922 0.000831738 22.2989 1.15313e-07 23.5822C-0.000277093 24.8645 0.499252 26.0692 1.40683 26.9762C2.31345 27.8829 3.51999 28.3814 4.80278 28.3812C5.07222 28.3819 5.34721 28.3539 5.66975 28.2917C5.76788 28.2742 5.85353 28.2526 5.94252 28.231C6.14031 28.1776 6.3313 28.1183 6.50178 28.0549C6.59382 28.0196 6.68821 27.9836 6.78343 27.9411C6.95072 27.8646 7.12786 27.7686 7.32011 27.65C7.35947 27.6272 7.39425 27.607 7.43002 27.5872C7.45233 27.5745 7.47478 27.5638 7.49696 27.5501L8.30408 26.8458C8.39554 26.7456 8.48615 26.6312 8.58123 26.5073L8.61885 26.4584C8.64131 26.4296 8.67315 26.392 8.70631 26.3556L8.73454 26.3229L8.76215 26.2814L8.79223 26.2515C8.84531 26.1941 8.89946 26.1377 8.95408 26.0831C10.2572 24.7801 12.0979 24.0491 14.0043 24.0762C15.9026 24.103 17.7129 24.8822 18.9716 26.2152L19.0092 26.2544L19.042 26.3019C19.0711 26.3449 19.1059 26.3842 19.1398 26.4226C19.1802 26.4695 19.2197 26.5163 19.2581 26.5656L19.3257 26.6501C19.3838 26.7229 19.4404 26.7936 19.5008 26.8632L20.3173 27.5635C20.34 27.5789 20.364 27.5894 20.3877 27.6023L20.4482 27.6356C20.6265 27.7444 20.8081 27.8512 21.0015 27.9364C21.1087 27.9879 21.1941 28.0196 21.2828 28.0506C21.4759 28.1228 21.659 28.1806 21.8564 28.2306C21.942 28.2521 22.0272 28.2751 22.1167 28.2912C22.4538 28.3537 22.7314 28.3819 22.9903 28.3822C24.2725 28.3819 25.4778 27.8826 26.3864 26.9742C27.293 26.0676 27.794 24.8613 27.7952 23.5791C27.7936 20.9331 25.6385 18.7798 22.9898 18.7798C22.7218 18.7795 22.4468 18.808 22.1218 18.8692C22.027 18.887 21.9416 18.9086 21.8561 18.9306C21.6613 18.9799 21.4735 19.0381 21.2946 19.1039C21.1982 19.1407 21.1015 19.1766 21.0134 19.2168C20.8352 19.2984 20.6563 19.395 20.4792 19.5072L20.3749 19.5658C20.3517 19.5792 20.3277 19.5916 20.3045 19.6047L19.4873 20.3139C19.4017 20.4069 19.3201 20.5129 19.2335 20.6249L19.1739 20.7008C19.1551 20.7272 19.1217 20.7656 19.0882 20.8034L19.0638 20.8329L19.0325 20.8793L19.0018 20.9099C18.948 20.9676 18.8941 21.0229 18.8388 21.0782C17.5361 22.3809 15.6961 23.1119 13.7903 23.0846C11.891 23.058 10.0795 22.2774 8.82062 20.9445L8.78308 20.9049L8.752 20.8595C8.72254 20.8157 8.68769 20.7779 8.65377 20.7379C8.61338 20.6911 8.57392 20.6439 8.53608 20.5957C8.51169 20.5686 8.47038 20.5165 8.43031 20.4649C8.38415 20.4069 8.34038 20.3497 8.28823 20.2977L8.26992 20.2793L7.48837 19.6071C7.46952 19.5956 7.36141 19.5359 7.32842 19.5166C7.13507 19.3968 6.95446 19.2994 6.78371 19.2209C6.6889 19.1767 6.60311 19.1423 6.51079 19.11C6.32298 19.0401 6.13504 18.9805 5.93669 18.9276C5.85339 18.9082 5.75512 18.8855 5.65865 18.8659C5.34943 18.8092 5.07 18.7803 4.80125 18.7798C3.52096 18.7789 2.31511 19.2779 1.40835 20.1846L1.40766 20.1853Z" fill="#128FFF"/>
<path d="M62.1307 18.9457H65.8124L70.304 6.42799H67.0151L64.4133 14.1841C64.1924 14.9204 63.9715 16.074 63.9715 16.074H63.9224C63.9224 16.074 63.7015 14.9204 63.4807 14.1841L60.8788 6.42799H57.5898L62.1307 18.9457ZM72.3167 4.29251H75.4339V1.51904H72.3167V4.29251ZM72.3167 18.9457H75.4339V6.42799H72.3167V18.9457ZM78.0112 12.6868C78.0112 16.2459 80.6128 19.2403 84.7612 19.2403C86.5528 19.2403 88.5158 18.5777 89.7928 17.4486L88.5651 15.215C87.5589 16.025 86.2581 16.5895 84.982 16.5895C83.092 16.5895 81.4228 15.4604 81.2266 13.2759H89.8412C89.8905 12.8832 89.9397 12.466 89.9397 12.0732C89.9397 8.75974 87.9758 6.13346 84.3928 6.13346C80.6374 6.13346 78.0112 8.83335 78.0112 12.6868ZM81.2997 11.1405C81.5943 9.54504 82.7235 8.48974 84.3189 8.48974C85.7181 8.48974 86.7982 9.47143 86.8228 11.1405H81.2997ZM94.9466 18.9457H98.432L100.567 11.8032C100.74 11.1405 100.862 10.4534 100.862 10.4534H100.911C100.911 10.4534 101.034 11.1405 101.23 11.8032L103.341 18.9457H106.802L110.607 6.42799H107.367L105.182 14.6504C104.986 15.313 104.912 15.9759 104.912 15.9759H104.863C104.863 15.9759 104.765 15.313 104.593 14.6504L102.286 6.42799H99.512L97.2051 14.6422C97.0328 15.3049 96.9105 15.9677 96.9105 15.9677H96.8612C96.8612 15.9677 96.7874 15.3049 96.6158 14.6422L94.4312 6.42799H91.1428L94.9466 18.9457ZM58.9398 45.472H62.0571V40.1704C62.0571 39.5321 61.9833 39.0904 61.9833 39.0904H62.0324C62.9162 40.2194 64.2169 40.8576 65.6405 40.8576C68.9295 40.8576 71.3595 38.2804 71.3595 34.304C71.3595 30.426 69.1995 27.7507 65.8124 27.7507C64.1188 27.7507 62.5969 28.5115 61.7871 29.8615H61.7378C61.7378 29.8615 61.7871 29.4442 61.7871 28.9779V28.0453H58.9398V45.472ZM61.9588 34.3778C61.9588 31.6042 63.4807 30.426 65.1251 30.426C66.9413 30.426 68.2178 31.9724 68.2178 34.3531C68.2178 36.8322 66.7941 38.2313 65.076 38.2313C63.0388 38.2313 61.9588 36.3167 61.9588 34.3778ZM74.0103 40.563H77.1274V35.5067C77.1274 33.1504 78.2566 30.9415 80.8089 30.9415C81.0789 30.9415 81.4474 30.966 81.5697 30.9906V27.9224C81.3735 27.8979 81.1774 27.8734 80.9812 27.8734C79.0912 27.8734 77.5689 29.346 77.0051 31.1133H76.9558C76.9558 31.1133 77.0051 30.7206 77.0051 30.2542V28.0453H74.0103V40.563ZM82.6989 34.304C82.6989 38.1577 85.7674 40.8576 89.572 40.8576C93.3758 40.8576 96.4443 38.1577 96.4443 34.304C96.4443 30.4751 93.3758 27.7507 89.5474 27.7507C85.7674 27.7507 82.6989 30.4751 82.6989 34.304ZM85.8651 34.304C85.8651 31.9969 87.5343 30.4015 89.572 30.4015C91.6089 30.4015 93.3028 31.9969 93.3028 34.304C93.3028 36.6358 91.6089 38.2067 89.572 38.2067C87.5343 38.2067 85.8651 36.6358 85.8651 34.304ZM99.0212 25.9098H102.139V23.1363H99.0212V25.9098ZM99.0212 40.6857C99.0212 42.7229 97.4012 42.9929 96.5181 42.9929C96.2966 42.9929 96.1251 42.9684 95.9782 42.9438V45.5701C96.2966 45.6193 96.6158 45.6438 96.9105 45.6438C98.6289 45.6438 102.139 45.1284 102.139 40.9311V28.0453H99.0212V40.6857ZM104.716 34.304C104.716 37.8631 107.317 40.8576 111.466 40.8576C113.257 40.8576 115.221 40.1949 116.497 39.0658L115.27 36.8322C114.264 37.6422 112.963 38.2067 111.687 38.2067C109.797 38.2067 108.127 37.0777 107.931 34.8931H116.547C116.595 34.5005 116.644 34.0833 116.644 33.6904C116.644 30.377 114.681 27.7507 111.097 27.7507C107.342 27.7507 104.716 30.4506 104.716 34.304ZM108.005 32.7578C108.3 31.1623 109.428 30.107 111.024 30.107C112.423 30.107 113.503 31.0887 113.527 32.7578H108.005ZM118.485 34.304C118.485 37.9367 121.136 40.8576 125.284 40.8576C127.297 40.8576 129.26 40.0721 130.439 38.8204L129.236 36.6113C128.304 37.5194 126.88 38.2067 125.554 38.2067C123.149 38.2067 121.651 36.3905 121.651 34.2795C121.651 32.1442 123.149 30.4015 125.456 30.4015C126.684 30.4015 127.91 30.966 128.696 31.7514L130.095 29.616C128.892 28.3153 126.978 27.7507 125.284 27.7507C121.136 27.7507 118.485 30.7451 118.485 34.304ZM133.31 35.9731C133.31 40.1704 136.771 40.6857 138.514 40.6857C138.931 40.6857 139.226 40.6367 139.471 40.6121V37.8877C139.226 37.9367 139.078 37.9367 138.907 37.9367C138.047 37.9367 136.427 37.6422 136.427 35.5805V30.696H139.275V28.217H136.427V24.6335H133.384V28.217H131.69V30.696H133.31V35.9731Z" fill="black"/>
<path d="M42.4239 23.5809C42.4239 23.5809 39.8047 19.8697 35.5124 22.2708C36.2992 21.8354 40.5705 17.4413 36.0459 13.8798C33.4637 12.0482 29.9724 13.4642 29.9724 16.0577C29.9724 17.1274 30.8396 17.9944 31.9092 17.9944C32.9786 17.9944 33.8457 17.1274 33.8457 16.0577C33.8457 15.6051 33.6903 15.1885 33.43 14.8588C34.1181 15.0561 35.9102 16.0558 35.9896 18.1922C36.0365 19.4512 35.4434 20.4723 34.4262 21.2593C32.8073 22.5118 30.1044 22.5075 28.2634 20.5258C25.4108 17.6164 25.9048 13.4635 28.4001 11.1532C29.6621 10.0576 31.0816 9.43359 32.7904 9.43359C34.3686 9.43359 35.8146 9.99921 36.937 10.9387C41.1507 15.1524 45.3644 19.3661 49.5781 23.5798L49.577 23.5809L49.5781 23.582C45.3644 27.7957 41.1507 32.0094 36.937 36.2231C35.8146 37.1626 34.3686 37.7282 32.7904 37.7282C31.0816 37.7282 29.6621 37.1042 28.4001 36.0086C25.9048 33.6983 25.4108 29.5454 28.2634 26.636C30.1044 24.6543 32.8073 24.65 34.4262 25.9025C35.4434 26.6895 36.0365 27.7106 35.9896 28.9696C35.9102 31.106 34.1181 32.1057 33.43 32.303C33.6903 31.9733 33.8457 31.5567 33.8457 31.1041C33.8457 30.0344 32.9786 29.1674 31.9092 29.1674C30.8396 29.1674 29.9724 30.0344 29.9724 31.1041C29.9724 33.6976 33.4637 35.1136 36.0459 33.282C40.5705 29.7205 36.2992 25.3264 35.5124 24.891C39.8047 27.2921 42.4239 23.5809 42.4239 23.5809Z" fill="#128FFF"/>
<path d="M10.4936 29.3177C9.58576 30.2256 9.08676 31.4313 9.08691 32.7138C9.08722 35.3607 11.2398 37.5155 13.8851 37.516C15.1685 37.5159 16.3755 37.017 17.2834 36.1092C18.19 35.2026 18.6891 33.9965 18.6891 32.714C18.6891 30.0674 16.5344 27.9127 13.8857 27.9106C12.6054 27.9119 11.4001 28.4113 10.4936 29.3177Z" fill="#128FFF"/>
<path d="M10.4936 10.957C9.58576 11.8648 9.08676 13.0705 9.08691 14.353C9.08722 17 11.2398 19.1547 13.8851 19.1553C15.1685 19.1551 16.3755 18.6563 17.2834 17.7484C18.19 16.8418 18.6891 15.6357 18.6891 14.3532C18.6891 11.7067 16.5344 9.55188 13.8857 9.5498C12.6054 9.55111 11.4001 10.0505 10.4936 10.957Z" fill="#128FFF"/>
<path d="M19.7631 1.82995C18.8553 2.73781 18.3563 3.94354 18.3564 5.22604C18.3567 7.87297 20.5094 10.0277 23.1546 10.0282C24.438 10.0282 25.6451 9.52931 26.5529 8.62139C27.4595 7.71481 27.9587 6.50868 27.9587 5.22617C27.9587 2.57967 25.8039 0.424931 23.1552 0.422852C21.8749 0.424099 20.6696 0.923484 19.7631 1.82995Z" fill="#128FFF"/>
<path d="M19.7631 38.3783C18.8553 39.2861 18.3563 40.4919 18.3564 41.7743C18.3567 44.4213 20.5094 46.576 23.1546 46.5766C24.438 46.5764 25.6451 46.0777 26.5529 45.1697C27.4595 44.2631 27.9587 43.057 27.9587 41.7745C27.9587 39.128 25.8039 36.9733 23.1552 36.9712C21.8749 36.9724 20.6696 37.4718 19.7631 38.3783Z" fill="#128FFF"/>
</g>
<defs>
<clipPath id="clip0_411_3732">
<rect width="140" height="46.1538" fill="white" transform="translate(0 0.422852)"/>
</clipPath>
</defs>
</svg>
