<svg width="140" height="17" viewBox="0 0 140 17" fill="none" xmlns="http://www.w3.org/2000/svg">
<g clip-path="url(#clip0_411_3720)">
<path d="M49.8744 7.73519H50.8674C52.0349 7.7934 53.2049 7.68739 54.3428 7.42028C54.9441 7.21904 55.4845 6.86926 55.9135 6.40358C56.315 5.98336 56.5984 5.4651 56.735 4.901C56.8188 4.60422 56.803 4.28823 56.6898 4.00126C56.5705 3.75735 56.3597 3.56994 56.1031 3.47941C55.452 3.33247 54.7834 3.27794 54.1171 3.31746H51.7972L49.8744 7.73519ZM46.1914 16.3097H42.9688L49.6487 0.690207H55.9677C56.8882 0.632602 57.8106 0.767448 58.6758 1.08609C58.9658 1.21069 59.2278 1.39191 59.4464 1.61907C59.665 1.84623 59.8358 2.11472 59.9486 2.40872C60.2006 3.1146 60.232 3.88002 60.0388 4.60409C59.8539 5.42208 59.5271 6.20159 59.073 6.90743C58.6643 7.58474 58.1492 8.1923 57.5474 8.70692C57.0476 9.12634 56.4878 9.46902 55.8864 9.72363C55.1822 9.98528 54.4486 10.1605 53.7019 10.2455C52.7508 10.3349 51.7954 10.3709 50.8403 10.3534H48.746L46.1914 16.3097Z" fill="#0157A5"/>
<path d="M63.1353 10.1198C63.0068 10.5717 62.975 11.0455 63.0419 11.5104C63.1088 11.9754 63.2728 12.4212 63.5234 12.819C63.7911 13.1889 64.1507 13.4829 64.567 13.6722C64.9833 13.8615 65.4418 13.9396 65.8975 13.8987C66.8677 13.8613 67.807 13.5492 68.6056 12.9989C69.637 12.3212 70.5111 11.4316 71.1693 10.3897C71.8877 9.36052 72.4081 8.20727 72.7039 6.98865C72.8568 6.50727 72.9045 5.99884 72.8438 5.49755C72.783 4.99626 72.6153 4.51375 72.3518 4.08248C72.0735 3.73475 71.7117 3.46258 71.2999 3.29116C70.8881 3.11974 70.4396 3.0546 69.9958 3.10176C69.1581 3.13145 68.337 3.34332 67.5901 3.72255C66.8432 4.10178 66.1885 4.63919 65.6718 5.29713C64.4197 6.6608 63.5455 8.32599 63.1353 10.1288M59.9216 10.1917C60.1569 9.17896 60.5114 8.19744 60.9778 7.26757C61.5987 5.94739 62.4242 4.73287 63.4241 3.6686C64.3907 2.6758 65.5359 1.87307 66.8002 1.30227C68.0712 0.707569 69.4583 0.400321 70.8624 0.402532C71.6721 0.337626 72.4857 0.46715 73.2349 0.780247C73.9841 1.09334 74.6471 1.58089 75.1683 2.20202C75.6452 2.89285 75.9595 3.68212 76.0877 4.51094C76.2159 5.33976 76.1546 6.18673 75.9085 6.98865C75.5078 8.7199 74.7517 10.3497 73.6878 11.7753C72.6578 13.2557 71.3064 14.4858 69.734 15.3743C68.2598 16.1892 66.5993 16.6107 64.9136 16.5979C63.6821 16.6659 62.4638 16.3171 61.4562 15.6082C60.651 15.0081 60.0952 14.1339 59.8946 13.1519C59.6888 12.1758 59.6888 11.1678 59.8946 10.1917" fill="#0157A5"/>
<path d="M76.1883 11.2803L79.2845 11.1183C79.0932 11.7625 79.1185 12.4513 79.3568 13.0798C79.7058 13.6316 80.5152 13.9075 81.785 13.9075C82.63 13.9618 83.4721 13.7645 84.2043 13.3407C84.7056 13.0338 85.0655 12.5425 85.2063 11.9731C85.2564 11.7645 85.2503 11.5464 85.1884 11.3409C85.1266 11.1355 85.0113 10.95 84.8542 10.8034C84.2512 10.3335 83.5859 9.949 82.8773 9.66073C82.0497 9.28776 81.2555 8.84529 80.5032 8.33811C80.0273 7.99668 79.6706 7.51529 79.4831 6.9615C79.2844 6.32167 79.2688 5.63927 79.438 4.99106C79.7295 3.67004 80.4972 2.50152 81.5955 1.707C82.8959 0.784803 84.4697 0.325298 86.0638 0.402374C87.9053 0.402374 89.2353 0.831252 90.0538 1.68901C90.4675 2.14915 90.7652 2.70097 90.9222 3.2987C91.0792 3.89643 91.0909 4.52286 90.9565 5.12602L87.8422 5.26099C87.9034 4.96047 87.8962 4.6501 87.8213 4.3527C87.7463 4.0553 87.6054 3.77843 87.4089 3.54248C87.1454 3.31887 86.8392 3.15093 86.5086 3.04885C86.1781 2.94677 85.8302 2.91268 85.4861 2.94865C84.7862 2.90104 84.088 3.06403 83.4821 3.41651C83.0601 3.68895 82.762 4.11529 82.6516 4.60417C82.597 4.79835 82.5941 5.00335 82.6432 5.19899C82.6922 5.39462 82.7916 5.57414 82.9315 5.71986C83.5515 6.22445 84.2417 6.63663 84.9806 6.94351C86.0967 7.38248 87.1219 8.02304 88.0046 8.83297C88.2917 9.22419 88.4829 9.67699 88.5628 10.1551C88.6428 10.6332 88.6093 11.1233 88.465 11.5862C88.1244 13.0222 87.2626 14.2817 86.0458 15.1222C84.6306 16.1334 82.9207 16.652 81.1802 16.5977C80.0232 16.6386 78.8729 16.4075 77.8222 15.9229C77.4248 15.7457 77.0697 15.4864 76.7803 15.1622C76.4908 14.8381 76.2737 14.4564 76.1431 14.0425C75.9028 13.1373 75.9028 12.1854 76.1431 11.2803" fill="#0157A5"/>
<path d="M96.0205 16.31H92.7979L98.3856 3.30868H93.7908L94.8921 0.69043H107.232L106.14 3.30868H101.608L96.0205 16.31Z" fill="#0157A5"/>
<path d="M102.276 13.3589H105.318L104.081 16.31H101.039L102.276 13.3589Z" fill="#0157A5"/>
<path d="M107.016 16.31L113.723 0.69043H116.945L114.093 7.33053L122.795 0.69043H127.11L118.742 6.81768L121.811 16.31H118.155L115.934 8.86909L112.278 11.5413L110.229 16.31H107.016Z" fill="#0157A5"/>
<path d="M122.497 16.31L123.544 13.8447L134.918 3.30868H127.579L128.708 0.69043H140.009L139.017 3.10174L127.552 13.7187H129.24H132.075H135.776L134.656 16.337L122.497 16.31Z" fill="#0157A5"/>
<path fill-rule="evenodd" clip-rule="evenodd" d="M43.2845 0.591309C39.2856 0.852234 35.2866 1.11316 29.7892 1.40108C24.2917 1.68899 17.386 2.0129 12.1684 1.88694C8.08459 1.77195 4.01604 1.33876 0 0.591309C1.25786 1.79433 2.74296 2.7363 4.36908 3.36252C7.42263 4.36656 10.636 4.79971 13.8474 4.64015C19.0231 4.45082 24.1818 3.93695 29.2927 3.10159C34.4381 2.3548 38.8162 1.47306 43.2845 0.591309Z" fill="#0157A5"/>
<path fill-rule="evenodd" clip-rule="evenodd" d="M42.264 3.48842C36.3784 4.49613 30.5289 5.50384 26.4848 6.18765C22.4407 6.87145 20.3374 7.08739 18.2521 7.24035C16.326 7.38101 14.392 7.38101 12.4658 7.24035C11.0315 7.09672 9.60817 6.85928 8.20508 6.52955C9.93723 7.36014 11.7528 8.00555 13.6213 8.455C16.3585 9.04192 19.1537 9.31661 21.9532 9.27376C24.8209 9.17281 27.6807 8.9145 30.5199 8.49999L35.2771 7.91515C34.5867 8.81566 34.0667 9.834 33.7425 10.9203C33.5136 11.998 33.5823 13.1174 33.9411 14.1594C34.2306 14.901 34.6877 15.566 35.2771 16.1028C35.6463 14.4263 36.1628 12.7854 36.8207 11.1992C37.5628 9.60923 38.4705 8.10138 39.5288 6.7005C40.3722 5.57289 41.2762 4.49161 42.2369 3.46143" fill="#0157A5"/>
</g>
<defs>
<clipPath id="clip0_411_3720">
<rect width="140" height="16.1954" fill="white" transform="translate(0 0.402344)"/>
</clipPath>
</defs>
</svg>
