<svg width="140" height="45" viewBox="0 0 140 45" fill="none" xmlns="http://www.w3.org/2000/svg">
<path d="M7.99642 22.676C7.93551 21.1441 9.10872 20.3279 9.64047 22.575C10.1725 24.8221 10.8991 29.8393 10.8991 29.8393C10.8991 29.8393 8.08435 29.3436 8.11472 29.1436C8.14508 28.9434 7.99642 22.676 7.99642 22.676Z" fill="url(#paint0_linear_411_3773)"/>
<path d="M5.2831 18.9056C5.20782 17.0137 6.65675 16.0056 7.31385 18.7808C7.97076 21.556 8.86816 27.7525 8.86816 27.7525C8.86816 27.7525 5.39164 27.1405 5.42905 26.8933C5.46674 26.6462 5.2831 18.9056 5.2831 18.9056Z" fill="url(#paint1_linear_411_3773)"/>
<path d="M2.55689 16.2619C2.4733 14.1585 4.08409 13.0377 4.81457 16.1232C5.54478 19.2086 6.54248 26.0976 6.54248 26.0976C6.54248 26.0976 1.9176 21.3246 1.95926 21.0498C2.00093 20.7751 2.55689 16.2619 2.55689 16.2619Z" fill="url(#paint2_linear_411_3773)"/>
<path d="M0.0434333 15.6862C-0.236178 17.7491 0.757462 26.9365 5.27977 30.5363C9.80189 34.1363 20.2974 34.7372 20.9439 44.8871C20.9439 44.8871 28.0504 37.7763 25.3258 31.1583C23.3679 26.4026 19.4562 24.7862 16.6275 23.2588C13.7985 21.7314 11.6269 17.2023 10.8255 17.9956C10.0238 18.7893 8.9402 22.5516 13.7134 26.0126C18.4863 29.4738 10.9461 28.3416 7.51548 25.9464C4.08459 23.5512 3.23582 18.3653 2.3265 15.4863C1.92588 14.2178 1.48938 13.7056 1.10259 13.7056C0.611148 13.7058 0.199686 14.5323 0.0434333 15.6862Z" fill="#FF4A4A"/>
<path d="M27.136 32.603C26.9727 31.748 26.9301 30.7628 27.6756 30.3137C28.5756 29.7715 29.5082 29.1806 30.0796 28.7606C32.1903 27.2087 34.0811 25.3941 35.3259 23.6817C37.1619 21.1563 38.7138 17.7451 38.1061 14.6036C37.9181 13.6325 37.501 12.7367 36.9281 11.9359C36.1973 10.9144 35.2128 10.0476 34.1279 9.3764V0.186523C42.1108 0.296172 48.5493 6.83604 48.5493 14.8924C48.5493 15.478 48.5059 16.0528 48.4398 16.6205C48.2212 20.0771 47.1275 23.96 44.3326 27.8585C40.1579 33.682 30.9539 40.2751 24.2002 42.6928C25.3561 41.1199 28.0021 37.5054 27.136 32.603Z" fill="url(#paint3_linear_411_3773)"/>
<path d="M26.1444 2.51064C28.4393 0.997521 31.1799 0.113281 34.13 0.113281C42.2067 0.113281 48.7541 6.69962 48.7541 14.8243C48.7541 15.41 48.7108 15.9847 48.6446 16.5524C48.5046 18.7669 47.9128 21.1214 46.7729 23.5524C47.457 16.8165 41.806 11.1591 35.1423 11.1591C30.6692 11.1591 25.2602 14.0202 23.6046 20.9936C23.5295 20.8387 22.847 19.4917 22.2932 17.6508C20.9847 13.4105 20.3252 6.91611 26.1444 2.51064Z" fill="#4A72FF"/>
<path d="M15.7842 1.31348C18.9798 1.31348 21.5704 3.90464 21.5704 7.10108C21.5704 10.2975 18.9798 12.8888 15.7842 12.8888C12.5886 12.8888 9.99805 10.2975 9.99805 7.10108C9.99805 3.90464 12.5886 1.31348 15.7842 1.31348Z" fill="#4A72FF"/>
<path d="M53.9463 9.74313C53.9463 8.01644 54.4422 6.69104 55.4342 5.76671C56.426 4.84248 57.8562 4.38037 59.7247 4.38037C61.5933 4.38037 63.0234 4.84248 64.0153 5.76671C65.0073 6.69104 65.5031 8.01644 65.5031 9.74313V20.8342C65.5031 22.0328 65.261 23.0281 64.7765 23.8204C64.8688 24.0235 64.99 24.1504 65.1399 24.2012C65.2899 24.252 65.5262 24.2774 65.8492 24.2774H66.1952V27.2634H65.6762C64.8227 27.2634 64.1249 27.1365 63.5828 26.8826C63.0406 26.6286 62.6427 26.2681 62.389 25.8009C61.997 25.9228 61.5816 26.0193 61.1434 26.0904C60.7051 26.1615 60.2322 26.197 59.7247 26.197C57.8562 26.197 56.426 25.7349 55.4342 24.8106C54.4422 23.8863 53.9463 22.5609 53.9463 20.8342V9.74313ZM57.7524 21.0476C57.7524 21.8195 57.9312 22.3629 58.2887 22.6777C58.6463 22.9926 59.1249 23.15 59.7247 23.15C60.3245 23.15 60.8031 22.9926 61.1607 22.6777C61.5183 22.3629 61.6971 21.8195 61.6971 21.0476V9.52986C61.6971 8.75786 61.5183 8.21458 61.1607 7.89969C60.8031 7.5848 60.3245 7.42735 59.7247 7.42735C59.1249 7.42735 58.6463 7.5848 58.2887 7.89969C57.9312 8.21458 57.7524 8.75786 57.7524 9.52986V21.0476Z" fill="#192640"/>
<path d="M80.3821 25.9532H76.5414L75.884 22.0835H71.2127L70.5553 25.9532H67.0605L70.9359 4.62402H76.5068L80.3821 25.9532ZM71.6972 19.1887H75.365L73.5311 8.4023L71.6972 19.1887Z" fill="#192640"/>
<path d="M90.1046 19.7677L92.6998 4.62402H97.9938V25.9532H94.3951V10.6571L91.7655 25.9532H88.1669L85.3297 10.8704V25.9532H82.0078V4.62402H87.3019L90.1046 19.7677Z" fill="#192640"/>
<path d="M100.45 9.74313C100.45 8.01644 100.946 6.69104 101.938 5.76671C102.93 4.84248 104.36 4.38037 106.229 4.38037C108.097 4.38037 109.527 4.84248 110.519 5.76671C111.511 6.69104 112.007 8.01644 112.007 9.74313V20.8342C112.007 22.0328 111.765 23.0281 111.28 23.8204C111.373 24.0235 111.494 24.1504 111.644 24.2012C111.794 24.252 112.03 24.2774 112.353 24.2774H112.699V27.2634H112.18C111.327 27.2634 110.629 27.1365 110.087 26.8826C109.545 26.6286 109.147 26.2681 108.893 25.8009C108.501 25.9228 108.085 26.0193 107.647 26.0904C107.209 26.1615 106.736 26.197 106.229 26.197C104.36 26.197 102.93 25.7349 101.938 24.8106C100.946 23.8863 100.45 22.5609 100.45 20.8342V9.74313ZM104.256 21.0476C104.256 21.8195 104.435 22.3629 104.793 22.6777C105.15 22.9926 105.629 23.15 106.229 23.15C106.828 23.15 107.307 22.9926 107.665 22.6777C108.022 22.3629 108.201 21.8195 108.201 21.0476V9.52986C108.201 8.75786 108.022 8.21458 107.665 7.89969C107.307 7.5848 106.828 7.42735 106.229 7.42735C105.629 7.42735 105.15 7.5848 104.793 7.89969C104.435 8.21458 104.256 8.75786 104.256 9.52986V21.0476Z" fill="#192640"/>
<path d="M117.958 21.0476C117.958 21.8195 118.137 22.3629 118.495 22.6777C118.852 22.9926 119.331 23.15 119.931 23.15C120.531 23.15 121.009 22.9926 121.367 22.6777C121.724 22.3629 121.903 21.8195 121.903 21.0476V9.52986C121.903 8.75786 121.724 8.21458 121.367 7.89969C121.009 7.5848 120.531 7.42735 119.931 7.42735C119.331 7.42735 118.852 7.5848 118.495 7.89969C118.137 8.21458 117.958 8.75786 117.958 9.52986V21.0476ZM114.152 9.74313C114.152 8.01644 114.648 6.69104 115.64 5.76671C116.632 4.84248 118.062 4.38037 119.931 4.38037C121.799 4.38037 123.229 4.84248 124.221 5.76671C125.213 6.69104 125.709 8.01644 125.709 9.74313V20.8342C125.709 22.5609 125.213 23.8863 124.221 24.8106C123.229 25.7349 121.799 26.197 119.931 26.197C118.062 26.197 116.632 25.7349 115.64 24.8106C114.648 23.8863 114.152 22.5609 114.152 20.8342V9.74313Z" fill="#192640"/>
<path d="M136.124 25.9532C136.078 25.8109 136.032 25.679 135.986 25.5571C135.94 25.4351 135.899 25.2828 135.865 25.1C135.83 24.9172 135.807 24.6836 135.796 24.3992C135.784 24.1148 135.778 23.7594 135.778 23.3327V19.981C135.778 18.9857 135.582 18.2849 135.19 17.8786C134.798 17.4723 134.164 17.2691 133.287 17.2691H131.972V25.9532H128.166V4.62402H133.91C135.894 4.62402 137.33 5.03032 138.218 5.8429C139.106 6.65538 139.55 7.88437 139.55 9.52977V11.2056C139.55 13.3995 138.72 14.8417 137.059 15.5323C138.027 15.8777 138.691 16.4414 139.048 17.2234C139.406 18.0055 139.585 18.9552 139.585 20.0724V23.3632C139.585 23.8914 139.608 24.3535 139.654 24.7496C139.7 25.1457 139.815 25.5469 140 25.9532H136.124ZM131.972 7.6711V14.2221H133.46C134.175 14.2221 134.735 14.0596 135.138 13.7346C135.542 13.4096 135.744 12.8205 135.744 11.9673V9.86491C135.744 9.09302 135.588 8.53439 135.277 8.18903C134.965 7.84367 134.475 7.6711 133.806 7.6711H131.972Z" fill="#192640"/>
<path d="M56.6299 41.1184C55.8615 41.1184 55.2756 40.9257 54.8721 40.5403C54.4684 40.1549 54.2666 39.6111 54.2666 38.9088V34.0787C54.2666 33.3764 54.4684 32.8326 54.8721 32.4473C55.2756 32.0619 55.8615 31.8691 56.6299 31.8691C57.3981 31.8691 57.9841 32.0619 58.3877 32.4473C58.7913 32.8326 58.9931 33.3764 58.9931 34.0787V35.0293H57.4761V33.9888C57.4761 33.4321 57.2086 33.1538 56.6737 33.1538C56.1388 33.1538 55.8712 33.4321 55.8712 33.9888V39.0116C55.8712 39.5598 56.1388 39.8338 56.6737 39.8338C57.2086 39.8338 57.4761 39.5598 57.4761 39.0116V37.637H58.9931V38.9088C58.9931 39.6111 58.7913 40.1549 58.3877 40.5403C57.9841 40.9257 57.3981 41.1184 56.6299 41.1184ZM62.8364 41.1184C62.0487 41.1184 61.4458 40.9214 61.0275 40.5275C60.6094 40.1335 60.4002 39.5769 60.4002 38.8575V34.13C60.4002 33.4107 60.6094 32.854 61.0275 32.4601C61.4458 32.0661 62.0487 31.8691 62.8364 31.8691C63.6242 31.8691 64.2272 32.0661 64.6453 32.4601C65.0636 32.854 65.2725 33.4107 65.2725 34.13V38.8575C65.2725 39.5769 65.0636 40.1335 64.6453 40.5275C64.2272 40.9214 63.6242 41.1184 62.8364 41.1184ZM62.8364 39.8338C63.3907 39.8338 63.6679 39.5383 63.6679 38.9474V34.0402C63.6679 33.4492 63.3907 33.1538 62.8364 33.1538C62.2821 33.1538 62.0049 33.4492 62.0049 34.0402V38.9474C62.0049 39.5383 62.2821 39.8338 62.8364 39.8338ZM66.8838 31.9976H68.897L70.458 37.3802H70.4871V31.9976H71.9167V40.9899H70.2682L68.3426 34.4255H68.3134V40.9899H66.8838V31.9976ZM73.6447 31.9976H75.6579L77.2188 37.3802H77.2479V31.9976H78.6775V40.9899H77.0291L75.1035 34.4255H75.0743V40.9899H73.6447V31.9976ZM80.4055 31.9976H84.7818V33.2822H82.0102V35.6588H84.213V36.9434H82.0102V39.7053H84.7818V40.9899H80.4055V31.9976ZM88.4939 41.1184C87.7255 41.1184 87.1396 40.9257 86.736 40.5403C86.3323 40.1549 86.1306 39.6111 86.1306 38.9088V34.0787C86.1306 33.3764 86.3323 32.8326 86.736 32.4473C87.1396 32.0619 87.7255 31.8691 88.4939 31.8691C89.2621 31.8691 89.848 32.0619 90.2517 32.4473C90.6553 32.8326 90.857 33.3764 90.857 34.0787V35.0293H89.3399V33.9888C89.3399 33.4321 89.0726 33.1538 88.5376 33.1538C88.0028 33.1538 87.7352 33.4321 87.7352 33.9888V39.0116C87.7352 39.5598 88.0028 39.8338 88.5376 39.8338C89.0726 39.8338 89.3399 39.5598 89.3399 39.0116V37.637H90.857V38.9088C90.857 39.6111 90.6553 40.1549 90.2517 40.5403C89.848 40.9257 89.2621 41.1184 88.4939 41.1184ZM93.6062 33.2822H91.9285V31.9976H96.8886V33.2822H95.2109V40.9899H93.6062V33.2822Z" fill="#192640"/>
<defs>
<linearGradient id="paint0_linear_411_3773" x1="9.44661" y1="21.188" x2="9.44661" y2="29.8393" gradientUnits="userSpaceOnUse">
<stop stop-color="white"/>
<stop offset="1" stop-color="white" stop-opacity="0"/>
</linearGradient>
<linearGradient id="paint1_linear_411_3773" x1="6.94143" y1="18.5037" x2="7.87579" y2="26.9701" gradientUnits="userSpaceOnUse">
<stop stop-color="#FF4A4A"/>
<stop offset="1" stop-color="#BA2830"/>
</linearGradient>
<linearGradient id="paint2_linear_411_3773" x1="4.25073" y1="14.2188" x2="4.25073" y2="26.0976" gradientUnits="userSpaceOnUse">
<stop stop-color="white"/>
<stop offset="1" stop-color="white" stop-opacity="0"/>
</linearGradient>
<linearGradient id="paint3_linear_411_3773" x1="42.7819" y1="35.3689" x2="29.1203" y2="14.8733" gradientUnits="userSpaceOnUse">
<stop stop-color="#4A72FF"/>
<stop offset="1" stop-color="#001561"/>
</linearGradient>
</defs>
</svg>
