<svg width="140" height="27" viewBox="0 0 140 27" fill="none" xmlns="http://www.w3.org/2000/svg">
<g clip-path="url(#clip0_411_3740)">
<path d="M17.2643 6.56686C17.2643 4.61513 16.6156 3.15862 15.3182 2.19732C14.0208 1.23602 12.3401 0.755371 10.2761 0.755371H-0.0292969V21.2339H4.48208V13.7912H8.33001L12.7087 21.2776H17.795L12.9298 12.9318C15.4509 11.854 17.2643 9.74206 17.2643 6.56686ZM4.48208 4.2947H8.99345C10.1581 4.2947 11.087 4.48404 11.7799 4.86274C12.4728 5.24143 12.8119 5.96969 12.8119 7.04751C12.8119 9.9314 11.4555 10.5286 8.80179 10.5286H4.48208V4.2947Z" fill="#4A78EC"/>
<path d="M24.813 5.96973C22.6163 5.96973 20.8176 6.71255 19.4023 8.21276C17.987 9.71297 17.2793 11.6064 17.2793 13.9077C17.2793 16.2527 17.987 18.1316 19.3876 19.5444C20.7881 20.9572 22.6458 21.6709 24.9604 21.6709C26.6854 21.6709 28.1744 21.234 29.4276 20.3455C30.6807 19.457 31.5358 18.2336 32.0076 16.6314H28.0417C27.4667 18.0733 26.4347 18.787 24.9899 18.787C23.8842 18.787 23.0291 18.452 22.4099 17.782C21.8054 17.1121 21.4811 16.1362 21.4663 14.8545H32.2435V14.4466C32.2435 11.8395 31.5801 9.77123 30.2384 8.24189C28.8821 6.72711 27.0834 5.96973 24.813 5.96973ZM21.4663 12.2619C21.5843 11.2277 21.9381 10.4121 22.5426 9.81492C23.147 9.21775 23.8989 8.92645 24.813 8.92645C25.786 8.92645 26.5379 9.23232 27.0834 9.85862C27.6289 10.4849 27.9533 11.286 28.0417 12.2619H21.4663Z" fill="#4A78EC"/>
<path d="M89.7413 6.05708C87.7363 6.05708 86.1588 6.77077 84.9941 8.21272V0.755371H80.8955V21.2339H84.8319L84.8024 19.3696C85.8639 20.8844 87.4414 21.6418 89.5202 21.6418C91.4958 21.6418 93.1028 20.9135 94.3412 19.4424C95.5796 17.9714 96.1841 16.0488 96.1841 13.6746C96.1841 11.4753 95.6091 9.65467 94.4591 8.21272C93.3092 6.77077 91.7464 6.05708 89.7413 6.05708ZM91.0387 17.0974C90.39 17.9422 89.5349 18.3646 88.4587 18.3646C87.3382 18.3646 86.4536 17.9568 85.8049 17.1266C85.171 16.2964 84.8466 15.1748 84.8466 13.7329C84.8466 12.3346 85.171 11.2277 85.8197 10.4121C86.4684 9.59641 87.353 9.18858 88.4587 9.18858C89.5202 9.18858 90.39 9.5964 91.0387 10.4266C91.6874 11.2568 92.0118 12.3492 92.0118 13.7038C92.0118 15.1166 91.6874 16.2527 91.0387 17.0974Z" fill="#042051"/>
<path d="M74.7328 14.0388C74.7328 16.8353 73.6418 18.2335 71.4746 18.2335C70.9144 18.2335 70.4573 18.1462 70.0887 17.9859C69.7349 17.8257 69.4695 17.5635 69.3221 17.2285C69.1599 16.879 69.0715 16.544 69.0125 16.209C68.9683 15.874 68.9388 15.4225 68.9388 14.869V6.39209H64.7812V16.3692C64.7812 18.117 65.2383 19.4279 66.1671 20.3164C67.0959 21.2048 68.3786 21.6563 70.0298 21.6563C72.1233 21.6563 73.7598 20.8116 74.9245 19.122V21.2194H78.8609V6.39209H74.7623L74.7328 14.0388Z" fill="#042051"/>
<path d="M56.5989 5.99902C54.5791 5.99902 53.0311 6.74185 51.9401 8.24205V6.39228H48.0332V26.4922H52.1318V19.3844C53.1933 20.8555 54.7413 21.5983 56.7611 21.5983C58.7219 21.5983 60.2994 20.8992 61.4936 19.4863C62.6878 18.0735 63.2775 16.2092 63.2775 13.8933C63.2775 11.4901 62.6731 9.58205 61.4494 8.1401C60.2404 6.71271 58.6187 5.99902 56.5989 5.99902ZM58.2207 17.2142C57.5867 18.0153 56.7169 18.4231 55.6111 18.4231C54.4907 18.4231 53.6061 18.0153 52.9574 17.2142C52.3234 16.4131 51.9991 15.2916 51.9991 13.8496C51.9991 12.4077 52.3087 11.2862 52.9426 10.4851C53.5766 9.684 54.4464 9.27618 55.5816 9.27618C56.6874 9.27618 57.5572 9.684 58.2059 10.5142C58.8399 11.3444 59.1642 12.4659 59.1642 13.9079C59.1642 15.3061 58.8546 16.3985 58.2207 17.2142Z" fill="#042051"/>
<path d="M101.859 0.755371H97.7314V21.2339H101.859V0.755371Z" fill="#042051"/>
<path d="M139.528 17.214V10.8053C139.528 7.58646 137.346 5.96973 132.983 5.96973C128.574 5.96973 126.26 7.64472 126.024 10.9801H129.901C130.034 10.1354 130.329 9.55275 130.771 9.21775C131.213 8.88275 131.921 8.70797 132.865 8.70797C134.663 8.70797 135.577 9.3634 135.577 10.6888C135.577 11.2569 135.327 11.6501 134.84 11.8686C134.354 12.0871 133.366 12.2764 131.921 12.4658C131.258 12.5386 130.742 12.6114 130.373 12.6843C130.004 12.7571 129.518 12.8445 128.913 12.9901C128.309 13.1212 127.837 13.296 127.498 13.5145C127.159 13.7184 126.805 13.9951 126.422 14.3155C126.039 14.636 125.773 15.0438 125.611 15.5245C125.449 16.0051 125.36 16.5586 125.36 17.1849C125.36 18.5831 125.832 19.6755 126.79 20.4766C127.749 21.2777 129.046 21.6709 130.727 21.6709C132.702 21.6709 134.324 21.0446 135.592 19.8066C135.651 20.3746 135.754 20.8553 135.887 21.2485H140.059C139.705 20.4329 139.528 19.0929 139.528 17.214ZM135.548 15.6847C135.548 16.7188 135.209 17.5344 134.545 18.117C133.882 18.6996 132.983 18.991 131.877 18.991C131.154 18.991 130.594 18.8162 130.196 18.452C129.798 18.1025 129.606 17.6073 129.606 16.9955C129.606 16.3692 129.813 15.8594 130.24 15.4953C130.609 15.204 131.405 14.971 132.629 14.7816C134.088 14.5486 135.061 14.2864 135.533 14.0097L135.548 15.6847Z" fill="#042051"/>
<path d="M117.59 18.4961C116.484 18.4961 115.629 18.0883 115.01 17.2727C114.406 16.457 114.096 15.3064 114.096 13.8353C114.096 12.3205 114.406 11.1408 115.04 10.2814C115.674 9.42207 116.543 8.99968 117.679 8.99968C119.345 8.99968 120.332 9.85902 120.642 11.5631H124.682C124.505 9.84446 123.782 8.47533 122.529 7.47034C121.261 6.46535 119.64 5.95557 117.634 5.95557C115.305 5.95557 113.433 6.68382 112.032 8.14034C110.632 9.59685 109.924 11.5194 109.924 13.9227C109.924 16.2385 110.617 18.1029 112.017 19.5011C113.418 20.8994 115.261 21.5985 117.575 21.5985C119.581 21.5985 121.217 21.0596 122.485 19.9818C123.753 18.904 124.519 17.4183 124.77 15.4957H120.789C120.465 17.5057 119.404 18.4961 117.59 18.4961Z" fill="#042051"/>
<path d="M45.4379 13.7184C45.1136 13.4271 44.6418 13.1503 44.0373 12.9173C43.4329 12.6843 42.9316 12.5095 42.504 12.3929C42.0912 12.291 41.531 12.1745 40.8233 12.0288C40.7201 12.0143 40.5727 11.9851 40.3516 11.9414C39.1426 11.6938 38.317 11.4608 37.8452 11.2569C37.3735 11.0384 37.1523 10.6743 37.1523 10.1354C37.1523 9.66927 37.3587 9.31971 37.7568 9.05753C38.1696 8.79536 38.7298 8.66428 39.467 8.66428C40.3368 8.66428 41.0003 8.82449 41.4573 9.13036C41.9143 9.43623 42.1944 9.96057 42.3124 10.718H46.1603C46.1013 9.08666 45.4674 7.89232 44.2732 7.12037C43.0643 6.34842 41.531 5.96973 39.6439 5.96973C37.5504 5.96973 35.9286 6.36299 34.7787 7.1495C33.6287 7.93602 33.0685 9.05753 33.0685 10.514C33.0685 10.8927 33.098 11.2569 33.1717 11.5773C33.2454 11.8977 33.3633 12.189 33.555 12.4512C33.7319 12.7134 33.9088 12.9319 34.071 13.1212C34.2332 13.3106 34.4691 13.4853 34.7787 13.6601C35.103 13.8203 35.3537 13.9514 35.5453 14.0679C35.737 14.1699 36.0466 14.2864 36.4594 14.4029C36.8722 14.5195 37.1818 14.6068 37.3587 14.6505C37.5356 14.6942 37.8747 14.7671 38.3318 14.869C38.8035 14.971 39.0984 15.0292 39.2311 15.0729C39.2901 15.0875 39.3638 15.1166 39.467 15.1312C40.6759 15.3934 41.5015 15.6555 41.9438 15.874C42.3861 16.1071 42.6072 16.5003 42.6072 17.0538C42.6072 17.6073 42.3566 18.0588 41.8701 18.3938C41.3688 18.7288 40.7054 18.9036 39.8798 18.9036C37.8747 18.9036 36.8132 18.0733 36.6805 16.4275H32.7441C32.7589 18.2044 33.4371 19.5299 34.7492 20.3892C36.0761 21.2485 37.742 21.6855 39.7913 21.6855C41.9291 21.6855 43.6098 21.234 44.8334 20.3309C46.0571 19.4279 46.6616 18.2044 46.6616 16.646C46.6616 15.9905 46.5289 15.4225 46.2783 14.9273C46.0571 14.4029 45.7623 14.0097 45.4379 13.7184Z" fill="#042051"/>
<path d="M108.287 6.39209H104.159V21.234H108.287V6.39209Z" fill="#042051"/>
<path d="M106.385 0.464355C105.147 0.464355 104.145 1.45478 104.145 2.67825C104.145 3.90173 105.147 4.89215 106.385 4.89215C107.624 4.89215 108.626 3.90173 108.626 2.67825C108.626 1.44022 107.624 0.464355 106.385 0.464355Z" fill="#042051"/>
</g>
<defs>
<clipPath id="clip0_411_3740">
<rect width="140" height="25.9259" fill="white" transform="translate(0 0.537109)"/>
</clipPath>
</defs>
</svg>
