<svg width="140" height="53" viewBox="0 0 140 53" fill="none" xmlns="http://www.w3.org/2000/svg">
<g clip-path="url(#clip0_411_3703)">
<path fill-rule="evenodd" clip-rule="evenodd" d="M25.8813 1.29639C39.8549 1.29639 51.1825 12.6241 51.1825 26.5976C51.1825 40.5711 39.8549 51.8988 25.8813 51.8988C11.9078 51.8988 0.580078 40.5711 0.580078 26.5976C0.580078 12.6241 11.9078 1.29639 25.8813 1.29639Z" fill="#6A4BFF" stroke="#6A4BFF" stroke-width="0.755906" stroke-miterlimit="22.9256"/>
<path d="M15.3509 35.7052C13.5524 35.7052 11.9367 35.3445 10.5039 34.6231C9.0711 33.9017 7.94948 32.9037 7.13927 31.629C6.32893 30.3543 5.92383 28.9067 5.92383 27.2859C5.92383 25.6654 6.32893 24.2177 7.13927 22.9431C7.94948 21.6683 9.0711 20.6752 10.5039 19.9637C11.9367 19.2523 13.5524 18.8965 15.3509 18.8965C17.1692 18.8965 18.7945 19.2523 20.2275 19.9637C21.6603 20.6752 22.7769 21.6683 23.5773 22.9431C24.3777 24.2177 24.778 25.6654 24.778 27.2859C24.778 28.9067 24.3777 30.3543 23.5773 31.629C22.7769 32.9037 21.6603 33.9017 20.2275 34.6231C18.7945 35.3445 17.1692 35.7052 15.3509 35.7052ZM15.3509 30.4877C16.1216 30.4877 16.7541 30.206 17.2481 29.6428C17.7422 29.0795 17.9892 28.2939 17.9892 27.2859C17.9892 26.2781 17.7422 25.4974 17.2481 24.944C16.7541 24.3907 16.1216 24.1141 15.3509 24.1141C14.5801 24.1141 13.9476 24.3907 13.4536 24.944C12.9596 25.4974 12.7124 26.2781 12.7124 27.2859C12.7124 28.2939 12.9596 29.0795 13.4536 29.6428C13.9476 30.206 14.5801 30.4877 15.3509 30.4877Z" fill="#FEFEFE"/>
<path d="M38.1488 18.8965C40.1448 18.8965 41.7507 19.4992 42.9662 20.7048C44.1815 21.9104 44.7893 23.7286 44.7893 26.1594V35.4087H38.0894V27.3157C38.0894 25.4579 37.4274 24.529 36.1033 24.529C35.3523 24.529 34.7445 24.7908 34.2801 25.3146C33.8156 25.8383 33.5835 26.6635 33.5835 27.79V35.4087H26.8838V19.1929H33.2574V20.7937C33.8897 20.1613 34.621 19.687 35.4511 19.3708C36.2812 19.0546 37.1805 18.8965 38.1488 18.8965Z" fill="#FEFEFE"/>
<path d="M59.6381 34.8457C58.6302 35.4189 57.2567 35.7054 55.5175 35.7054C53.2447 35.7054 51.4956 35.1571 50.2703 34.0602C49.045 32.9632 48.4324 31.318 48.4324 29.1243V24.974H46.209V20.0826H48.4324V15.5469H55.1321V20.0826H58.4524V24.974H55.1321V29.065C55.1321 29.5591 55.2605 29.9445 55.5175 30.2212C55.7744 30.4979 56.1104 30.6362 56.5255 30.6362C57.0985 30.6362 57.6025 30.488 58.0373 30.1915L59.6381 34.8457Z" fill="#354671"/>
<path d="M61.3322 19.193H68.0318V35.4087H61.3322V19.193ZM64.6821 17.8886C63.4765 17.8886 62.5031 17.5674 61.762 16.9251C61.0209 16.2829 60.6504 15.4676 60.6504 14.4795C60.6504 13.4912 61.0209 12.676 61.762 12.0337C62.5031 11.3914 63.4765 11.0703 64.6821 11.0703C65.9074 11.0703 66.8856 11.3766 67.6169 11.9893C68.3481 12.602 68.7136 13.3925 68.7136 14.3609C68.7136 15.3886 68.3481 16.2334 67.6169 16.8955C66.8856 17.5575 65.9074 17.8886 64.6821 17.8886Z" fill="#354671"/>
<path d="M92.4594 18.8965C94.4152 18.8965 95.9822 19.4992 97.1579 20.7048C98.3335 21.9104 98.9214 23.7286 98.9214 26.1594V35.4087H92.2216V27.3157C92.2216 25.4579 91.6194 24.529 90.4134 24.529C89.7809 24.529 89.2723 24.7663 88.8869 25.2406C88.5015 25.7149 88.3084 26.4658 88.3084 27.4936V35.4087H81.609V27.3157C81.609 25.4579 81.0063 24.529 79.8007 24.529C79.1682 24.529 78.6593 24.7663 78.2739 25.2406C77.8886 25.7149 77.6959 26.4658 77.6959 27.4936V35.4087H70.9961V19.1929H77.3698V20.7048C78.5754 19.4992 80.107 18.8965 81.9648 18.8965C83.0516 18.8965 84.03 19.0991 84.8994 19.5042C85.769 19.9094 86.4808 20.5269 87.034 21.357C87.6859 20.5665 88.477 19.9588 89.4056 19.5338C90.3341 19.109 91.3521 18.8965 92.4594 18.8965Z" fill="#354671"/>
<path d="M119.377 27.2859C119.377 27.3848 119.347 27.9085 119.288 28.8571H108.023C108.26 29.4699 108.655 29.9392 109.208 30.2654C109.762 30.5914 110.454 30.7544 111.284 30.7544C111.996 30.7544 112.594 30.6655 113.078 30.4877C113.562 30.3099 114.091 30.0035 114.663 29.5687L118.162 33.0964C116.58 34.8356 114.219 35.7052 111.076 35.7052C109.12 35.7052 107.4 35.3445 105.918 34.6231C104.436 33.9017 103.289 32.8988 102.479 31.6142C101.669 30.3296 101.264 28.8868 101.264 27.2859C101.264 25.6654 101.664 24.2177 102.465 22.9431C103.265 21.6683 104.361 20.6752 105.755 19.9637C107.149 19.2523 108.715 18.8965 110.454 18.8965C112.094 18.8965 113.591 19.2225 114.945 19.8747C116.298 20.5269 117.376 21.4856 118.176 22.7504C118.977 24.0153 119.377 25.5271 119.377 27.2859ZM110.513 23.4618C109.821 23.4618 109.248 23.6497 108.793 24.0251C108.339 24.4006 108.043 24.9341 107.904 25.6259H113.122C112.983 24.954 112.687 24.4252 112.233 24.0399C111.778 23.6545 111.205 23.4618 110.513 23.4618Z" fill="#354671"/>
<path d="M139.414 13.4121V35.4086H133.04V34.0746C132.071 35.1615 130.589 35.705 128.593 35.705C127.17 35.705 125.861 35.3641 124.666 34.6823C123.47 34.0004 122.521 33.0173 121.819 31.7326C121.117 30.448 120.767 28.9657 120.767 27.2859C120.767 25.6061 121.117 24.1287 121.819 22.854C122.521 21.5793 123.47 20.601 124.666 19.9191C125.861 19.2373 127.17 18.8964 128.593 18.8964C130.392 18.8964 131.765 19.3608 132.714 20.2897V13.4121H139.414ZM130.194 30.4876C130.965 30.4876 131.597 30.206 132.091 29.6427C132.586 29.0794 132.833 28.2938 132.833 27.2859C132.833 26.278 132.586 25.4973 132.091 24.9439C131.597 24.3906 130.965 24.1139 130.194 24.1139C129.423 24.1139 128.79 24.3906 128.296 24.9439C127.803 25.4973 127.556 26.278 127.556 27.2859C127.556 28.2938 127.803 29.0794 128.296 29.6427C128.79 30.206 129.423 30.4876 130.194 30.4876Z" fill="#354671"/>
</g>
<defs>
<clipPath id="clip0_411_3703">
<rect width="140" height="51.4458" fill="white" transform="translate(0 0.777344)"/>
</clipPath>
</defs>
</svg>
