<svg width="140" height="49" viewBox="0 0 140 49" fill="none" xmlns="http://www.w3.org/2000/svg">
<g clip-path="url(#clip0_411_3752)">
<path fill-rule="evenodd" clip-rule="evenodd" d="M4.58301 10.576C8.13383 10.6241 9.54596 11.3443 11.5894 13.0692C13.1763 14.4087 14.4972 16.338 15.8121 18.3128C17.6091 21.0117 20.9761 27.1534 22.7684 30.2916C23.9176 32.3035 25.1288 34.2161 26.3317 36.1964C29.0085 40.6023 32.5478 43.9338 38.3629 42.4175C39.5546 42.1069 40.672 41.5767 41.6292 40.9422C42.3424 40.4694 43.7775 39.2766 44.0058 38.4375C40.5117 38.4319 39.0424 37.6645 36.9864 35.9686C34.3271 33.7754 31.0538 28.0633 29.2402 24.7798C27.0959 20.8976 24.5697 16.5416 22.2401 12.8468C20.8541 10.6486 19.8752 9.14794 17.8378 7.77848C11.5747 3.56852 4.65246 9.12193 4.58301 10.576V10.576Z" fill="#28C397"/>
<path fill-rule="evenodd" clip-rule="evenodd" d="M13.5762 2.88789C14.8018 3.42603 18.8363 2.89168 23.0125 8.07157C24.0858 9.40284 24.9574 10.9424 25.9157 12.4743C26.8598 13.9834 27.7798 15.4962 28.6932 17.106C30.4461 20.1952 32.2068 23.3811 34.0085 26.3981C35.7115 29.2496 37.9906 33.091 40.6485 34.4822C44.9909 36.7549 49.076 32.9433 46.5814 28.5765C45.065 25.9218 41.4195 23.5344 38.9372 21.4964C36.5998 19.5773 33.4953 17.0512 32.4148 13.4008C31.5072 10.3339 32.4724 7.21473 34.8971 5.48788C35.9061 4.76932 36.2395 4.8429 37.4411 4.35827C37.2576 3.67708 33.2836 2.03303 32.4633 1.7461C28.1943 0.253008 23.5859 -0.117713 19.1288 0.885638C17.881 1.16648 14.1804 2.24111 13.5762 2.88789V2.88789Z" fill="#338DE0"/>
<path fill-rule="evenodd" clip-rule="evenodd" d="M34.9742 46.0822C32.3968 45.6198 31.3588 45.5353 29.329 44.3044C27.7688 43.3586 26.5353 42.1715 25.4739 40.8501C23.0584 37.843 16.6377 26.1564 14.4796 22.5188C12.7697 19.6367 10.5811 15.9089 7.8714 14.5101C3.40038 12.202 -0.56019 16.2431 2.06035 20.599C4.21591 24.1823 10.215 27.2615 13.4944 31.0987C16.0336 34.0701 17.7394 38.0723 15.3768 41.7287C13.7407 44.2607 11.5818 44.3454 11.0933 44.7211C11.5461 45.3557 15.0508 46.8997 16.1247 47.277C20.5815 48.8425 24.8895 49.0581 29.5318 48.1071C30.5124 47.9061 34.6919 46.674 34.9742 46.0822V46.0822Z" fill="#338DE0"/>
<path fill-rule="evenodd" clip-rule="evenodd" d="M48.5043 25.3779C48.8019 23.724 48.2072 19.97 47.7868 18.4446C46.8972 15.2163 44.8245 10.4662 42.193 8.60159C37.89 5.55236 33.3176 9.34402 36.4172 14.2485C38.5083 17.5572 43.373 20.4915 46.5639 23.4588C46.8081 23.6858 48.3429 25.3158 48.5043 25.3779V25.3779Z" fill="#FF575F"/>
<path fill-rule="evenodd" clip-rule="evenodd" d="M0.0146887 23.6636C-0.15017 28.3917 1.08751 32.7178 2.98098 36.1138C3.945 37.8427 4.99252 39.4645 6.38778 40.4298C10.9608 43.5943 15.1144 39.3097 12.154 34.7929C9.50289 30.7479 4.3106 28.2194 0.575571 24.1313C0.310177 23.8409 0.380453 23.7594 0.0146887 23.6636V23.6636Z" fill="#FCC865"/>
<path d="M77.7101 30.7998V38.5915H72.1314V30.7998L62.9805 14.2178H68.8001L73.6162 22.9284C74.1515 23.9406 74.5796 24.8595 74.9007 25.6854C75.2486 24.753 75.6899 23.834 76.2252 22.9284L81.0013 14.2178H86.8611L77.7101 30.7998V30.7998ZM87.5032 21.7496C89.2692 19.9783 91.6908 19.0926 94.7677 19.0926C97.8448 19.0926 100.266 19.9783 102.032 21.7496C103.798 23.521 104.681 25.9785 104.681 29.1217C104.681 32.1851 103.798 34.5892 102.032 36.334C100.266 38.0787 97.8314 38.9511 94.7277 38.9511C91.6772 38.9511 89.2692 38.0787 87.5032 36.334C85.7372 34.5892 84.8544 32.1851 84.8544 29.1217C84.8544 25.9785 85.7372 23.521 87.5032 21.7496V21.7496ZM91.3965 33.1971C92.1723 34.1029 93.2827 34.5559 94.7277 34.5559C96.1724 34.5559 97.2963 34.1029 98.0989 33.1971C98.9017 32.2916 99.3031 30.933 99.3031 29.1217C99.3031 27.257 98.9085 25.8519 98.1191 24.9063C97.3297 23.9606 96.2126 23.4878 94.7677 23.4878C93.3228 23.4878 92.2057 23.9606 91.4165 24.9063C90.6271 25.8519 90.2325 27.257 90.2325 29.1217C90.2325 30.933 90.6205 32.2916 91.3965 33.1971V33.1971ZM119.772 34.2362L120.294 37.6725C118.688 38.445 116.949 38.8312 115.076 38.8312C112.909 38.8312 111.344 38.2852 110.38 37.1929C109.417 36.1009 108.936 34.3161 108.936 31.8387V23.9273H106.166V19.4522H108.936V15.017H114.394V19.4522H119.451V23.9273H114.394V31.599C114.394 32.6113 114.595 33.3237 114.996 33.7368C115.397 34.1496 116.107 34.3561 117.123 34.3561C118.086 34.3561 118.969 34.3161 119.772 34.2362V34.2362ZM138.194 32.7578L139.84 35.9143C137.191 37.9388 134.275 38.9511 131.09 38.9511C128.147 38.9511 125.819 38.1253 124.107 36.4737C122.394 34.8223 121.538 32.3848 121.538 29.1617C121.538 25.8586 122.401 23.3546 124.127 21.6498C125.853 19.9449 128.201 19.0926 131.171 19.0926C133.9 19.0926 136.047 19.8849 137.612 21.47C139.178 23.0548 139.974 25.3391 140 28.3225C140 29.015 139.947 29.7742 139.84 30.6001H126.836C127.21 33.3172 128.709 34.6758 131.331 34.6758C133.712 34.6758 136 34.0364 138.194 32.7578V32.7578ZM126.836 27.1239H135.265C135.077 24.3802 133.712 23.0082 131.171 23.0082C128.655 23.0082 127.21 24.3802 126.836 27.1239Z" fill="#121F3E"/>
</g>
<defs>
<clipPath id="clip0_411_3752">
<rect width="140" height="48.3636" fill="white" transform="translate(0 0.318359)"/>
</clipPath>
</defs>
</svg>
