<svg xmlns="http://www.w3.org/2000/svg">
  <defs>
    <g id="logo-simple" width="97" height="52" viewBox="0 0 97 52" xmlns="http://www.w3.org/2000/svg">
      <path d="M0.0977847 50.5558L1.046 43.1748L0.822405 43.0778L1.15604 42.3184L3.41752 24.7151C7.76657 18.9659 12.1164 13.2173 16.4667 7.46903L16.5276 7.33033L16.5607 7.34473L21.1637 1.2627L55.5947 20.6152L88.2472 29.9576C91.1046 37.0388 93.9603 44.1204 96.8161 51.2019C64.5444 51.2414 32.2721 51.2791 0 51.3172L0.0977847 50.5558ZM3.09216 37.9115L14.1114 12.83L4.71986 25.2413L3.09216 37.9115ZM17.6559 8.14586L2.47786 42.6933L1.54379 49.964L9.70716 49.9543L20.2891 4.66598L17.6559 8.14586ZM68.6947 25.7737L89.8448 37.5524L87.2326 31.0777L68.6947 25.7737ZM90.6524 39.5548L62.9613 24.1332L58.0076 22.7159L91.2442 49.8194L91.2132 49.8573L94.8068 49.8531L90.6524 39.5548ZM89.1507 49.8598L54.2921 21.4339L46.8212 17.2347L76.9838 49.8743L89.1507 49.8598ZM75.1369 49.8765L42.974 15.0724L39.1319 12.9128L62.4801 49.8915L75.1369 49.8765ZM60.8752 49.8934L36.6424 11.5135L33.8601 9.94972L48.1798 49.9086L60.8752 49.8934ZM46.7348 49.9102L32.129 9.15313L32.3222 9.08536L29.5958 7.55285L36.7606 49.9221L46.7348 49.9102ZM35.3804 49.9237L28.0703 6.69544L25.2604 5.11608L24.0252 49.9373L35.3804 49.9237ZM22.6653 49.9389L23.9212 4.36335L22.0084 3.28821L11.1049 49.9527L22.6653 49.9389Z"/>
    </g>

    <g id="logo-title" width="1540" height="228" viewBox="0 0 1540 228" xmlns="http://www.w3.org/2000/svg">
      <g clip-path="url(#clip0_273_554)">
      <path d="M177.759 207.422H226.556C224.995 226.042 219.789 242.643 210.941 257.227C202.092 271.68 189.665 283.073 173.66 291.406C157.655 299.74 138.202 303.906 115.3 303.906C97.7331 303.906 81.923 300.781 67.8697 294.531C53.8163 288.151 41.7798 279.167 31.7602 267.578C21.7407 255.859 14.0634 241.732 8.72833 225.195C3.52337 208.659 0.920898 190.169 0.920898 169.727V146.094C0.920898 125.651 3.58844 107.161 8.92352 90.625C14.3887 74.0885 22.1961 59.9609 32.3458 48.2422C42.4954 36.3932 54.662 27.3438 68.8455 21.0938C83.1591 14.8438 99.2295 11.7188 117.057 11.7188C139.698 11.7188 158.826 15.8854 174.441 24.2188C190.056 32.5521 202.157 44.0755 210.746 58.7891C219.464 73.5026 224.799 90.3646 226.75 109.375H177.954C176.653 97.1354 173.791 86.6536 169.367 77.9297C165.072 69.2057 158.696 62.5651 150.238 58.0078C141.78 53.3203 130.72 50.9766 117.057 50.9766C105.866 50.9766 96.1065 53.0599 87.7785 57.2266C79.4506 61.3932 72.4891 67.513 66.8937 75.5859C61.2983 83.6589 57.0694 93.6198 54.2066 105.469C51.474 117.188 50.1077 130.599 50.1077 145.703V169.727C50.1077 184.049 51.3439 197.07 53.8163 208.789C56.4187 220.378 60.3224 230.339 65.5274 238.672C70.8625 247.005 77.6289 253.451 85.8267 258.008C94.0245 262.565 103.849 264.844 115.3 264.844C129.223 264.844 140.478 262.63 149.067 258.203C157.785 253.776 164.357 247.331 168.781 238.867C173.335 230.273 176.328 219.792 177.759 207.422ZM257.395 196.68V192.188C257.395 176.953 259.607 162.826 264.031 149.805C268.455 136.654 274.831 125.26 283.16 115.625C291.617 105.859 301.898 98.3073 313.999 92.9688C326.231 87.5 340.024 84.7656 355.378 84.7656C370.863 84.7656 384.656 87.5 396.758 92.9688C408.989 98.3073 419.334 105.859 427.792 115.625C436.25 125.26 442.691 136.654 447.115 149.805C451.539 162.826 453.752 176.953 453.752 192.188V196.68C453.752 211.914 451.539 226.042 447.115 239.062C442.691 252.083 436.25 263.477 427.792 273.242C419.334 282.878 409.054 290.43 396.953 295.898C384.852 301.237 371.124 303.906 355.769 303.906C340.284 303.906 326.426 301.237 314.194 295.898C302.092 290.43 291.813 282.878 283.355 273.242C274.897 263.477 268.455 252.083 264.031 239.062C259.607 226.042 257.395 211.914 257.395 196.68ZM304.435 192.188V196.68C304.435 206.185 305.41 215.169 307.362 223.633C309.315 232.096 312.373 239.518 316.536 245.898C320.7 252.279 326.035 257.292 332.542 260.938C339.047 264.583 346.79 266.406 355.769 266.406C364.487 266.406 372.034 264.583 378.41 260.938C384.917 257.292 390.251 252.279 394.415 245.898C398.58 239.518 401.637 232.096 403.59 223.633C405.671 215.169 406.713 206.185 406.713 196.68V192.188C406.713 182.812 405.671 173.958 403.59 165.625C401.637 157.161 398.514 149.674 394.221 143.164C390.056 136.654 384.721 131.576 378.215 127.93C371.839 124.154 364.227 122.266 355.378 122.266C346.53 122.266 338.853 124.154 332.346 127.93C325.97 131.576 320.7 136.654 316.536 143.164C312.373 149.674 309.315 157.161 307.362 165.625C305.41 173.958 304.435 182.812 304.435 192.188ZM622.002 256.25V0H669.237V300H626.491L622.002 256.25ZM484.591 196.68V192.578C484.591 176.562 486.478 161.979 490.251 148.828C494.025 135.547 499.49 124.154 506.648 114.648C513.804 105.013 522.522 97.6562 532.802 92.5781C543.082 87.3698 554.662 84.7656 567.545 84.7656C580.297 84.7656 591.488 87.2396 601.117 92.1875C610.746 97.1354 618.944 104.232 625.71 113.477C632.477 122.591 637.877 133.529 641.911 146.289C645.945 158.919 648.807 172.982 650.499 188.477V201.562C648.807 216.667 645.945 230.469 641.911 242.969C637.877 255.469 632.477 266.276 625.71 275.391C618.944 284.505 610.681 291.536 600.921 296.484C591.293 301.432 580.037 303.906 567.154 303.906C554.403 303.906 542.887 301.237 532.607 295.898C522.457 290.56 513.804 283.073 506.648 273.438C499.49 263.802 494.025 252.474 490.251 239.453C486.478 226.302 484.591 212.044 484.591 196.68ZM531.631 192.578V196.68C531.631 206.315 532.477 215.299 534.169 223.633C535.991 231.966 538.788 239.323 542.561 245.703C546.335 251.953 551.215 256.901 557.2 260.547C563.316 264.062 570.603 265.82 579.062 265.82C589.732 265.82 598.515 263.477 605.411 258.789C612.308 254.102 617.708 247.786 621.612 239.844C625.645 231.771 628.378 222.786 629.81 212.891V177.539C629.029 169.857 627.402 162.695 624.93 156.055C622.587 149.414 619.399 143.62 615.366 138.672C611.332 133.594 606.322 129.688 600.337 126.953C594.481 124.089 587.519 122.656 579.451 122.656C570.863 122.656 563.577 124.479 557.591 128.125C551.605 131.771 546.661 136.784 542.756 143.164C538.983 149.544 536.185 156.966 534.364 165.43C532.542 173.893 531.631 182.943 531.631 192.578ZM811.528 303.906C795.913 303.906 781.794 301.367 769.172 296.289C756.68 291.081 746.01 283.854 737.162 274.609C728.444 265.365 721.742 254.492 717.057 241.992C712.373 229.492 710.031 216.016 710.031 201.562V193.75C710.031 177.214 712.438 162.24 717.253 148.828C722.067 135.417 728.768 123.958 737.357 114.453C745.945 104.818 756.095 97.4609 767.806 92.3828C779.516 87.3047 792.204 84.7656 805.867 84.7656C820.962 84.7656 834.169 87.3047 845.49 92.3828C856.81 97.4609 866.179 104.622 873.596 113.867C881.143 122.982 886.739 133.854 890.382 146.484C894.156 159.115 896.043 173.047 896.043 188.281V208.398H732.868V174.609H849.589V170.898C849.328 162.435 847.637 154.492 844.513 147.07C841.521 139.648 836.901 133.659 830.655 129.102C824.409 124.544 816.082 122.266 805.671 122.266C797.865 122.266 790.903 123.958 784.787 127.344C778.801 130.599 773.791 135.352 769.758 141.602C765.723 147.852 762.6 155.404 760.389 164.258C758.306 172.982 757.266 182.812 757.266 193.75V201.562C757.266 210.807 758.502 219.401 760.974 227.344C763.577 235.156 767.35 241.992 772.295 247.852C777.24 253.711 783.225 258.333 790.253 261.719C797.279 264.974 805.282 266.602 814.26 266.602C825.581 266.602 835.665 264.323 844.513 259.766C853.362 255.208 861.04 248.763 867.545 240.43L892.334 264.453C887.78 271.094 881.859 277.474 874.573 283.594C867.285 289.583 858.372 294.466 847.832 298.242C837.422 302.018 825.321 303.906 811.528 303.906ZM1054.34 15.625V300H1005.74V15.625H1054.34ZM1143.54 15.625V54.6875H917.318V15.625H1143.54ZM1269.24 257.617V156.836C1269.24 149.284 1267.88 142.773 1265.14 137.305C1262.41 131.836 1258.24 127.604 1252.65 124.609C1247.18 121.615 1240.28 120.117 1231.96 120.117C1224.28 120.117 1217.64 121.419 1212.05 124.023C1206.46 126.628 1202.1 130.143 1198.97 134.57C1195.84 138.997 1194.28 144.01 1194.28 149.609H1147.44C1147.44 141.276 1149.46 133.203 1153.49 125.391C1157.53 117.578 1163.38 110.612 1171.06 104.492C1178.73 98.3724 1187.91 93.5547 1198.58 90.0391C1209.25 86.5234 1221.23 84.7656 1234.5 84.7656C1250.37 84.7656 1264.42 87.4349 1276.65 92.7734C1289.01 98.112 1298.71 106.185 1305.74 116.992C1312.9 127.669 1316.47 141.081 1316.47 157.227V251.172C1316.47 260.807 1317.12 269.466 1318.42 277.148C1319.85 284.701 1321.87 291.276 1324.48 296.875V300H1276.26C1274.05 294.922 1272.29 288.477 1270.99 280.664C1269.83 272.721 1269.24 265.039 1269.24 257.617ZM1276.07 171.484L1276.46 200.586H1242.69C1233.98 200.586 1226.29 201.432 1219.66 203.125C1213.02 204.688 1207.5 207.031 1203.07 210.156C1198.64 213.281 1195.32 217.057 1193.11 221.484C1190.91 225.911 1189.8 230.924 1189.8 236.523C1189.8 242.122 1191.1 247.266 1193.7 251.953C1196.3 256.51 1200.08 260.091 1205.02 262.695C1210.09 265.299 1216.21 266.602 1223.37 266.602C1233 266.602 1241.39 264.648 1248.55 260.742C1255.83 256.706 1261.56 251.823 1265.73 246.094C1269.89 240.234 1272.1 234.701 1272.36 229.492L1287.58 250.391C1286.02 255.729 1283.36 261.458 1279.58 267.578C1275.81 273.698 1270.86 279.557 1264.75 285.156C1258.76 290.625 1251.54 295.117 1243.08 298.633C1234.76 302.148 1225.12 303.906 1214.19 303.906C1200.4 303.906 1188.11 301.172 1177.31 295.703C1166.5 290.104 1158.05 282.617 1151.93 273.242C1145.82 263.737 1142.76 252.995 1142.76 241.016C1142.76 229.818 1144.84 219.922 1149 211.328C1153.3 202.604 1159.55 195.312 1167.74 189.453C1176.07 183.594 1186.22 179.167 1198.19 176.172C1210.16 173.047 1223.82 171.484 1239.17 171.484H1276.07ZM1492.73 250.195V88.6719H1539.96V300H1495.46L1492.73 250.195ZM1499.37 206.25L1515.18 205.859C1515.18 220.052 1513.61 233.138 1510.49 245.117C1507.36 256.966 1502.55 267.318 1496.05 276.172C1489.54 284.896 1481.21 291.732 1471.06 296.68C1460.91 301.497 1448.74 303.906 1434.56 303.906C1424.28 303.906 1414.85 302.409 1406.26 299.414C1397.67 296.419 1390.26 291.797 1384.01 285.547C1377.89 279.297 1373.14 271.159 1369.76 261.133C1366.37 251.107 1364.68 239.128 1364.68 225.195V88.6719H1411.72V225.586C1411.72 233.268 1412.63 239.714 1414.46 244.922C1416.28 250 1418.75 254.102 1421.88 257.227C1424.99 260.352 1428.64 262.565 1432.8 263.867C1436.97 265.169 1441.39 265.82 1446.08 265.82C1459.48 265.82 1470.02 263.216 1477.7 258.008C1485.51 252.669 1491.03 245.508 1494.29 236.523C1497.67 227.539 1499.37 217.448 1499.37 206.25Z"/>
      </g>
    </g>


    <g id="logo" width="72" height="49" viewBox="0 0 72 49" xmlns="http://www.w3.org/2000/svg">
      <g clip-path="url(#clip0_389_1054)">
      <path d="M0.0715744 36.0219L0.765627 30.6281L0.601966 30.5572L0.846174 30.0022L2.50148 17.1383C5.68481 12.9369 8.86872 8.73606 12.0529 4.5354L12.0975 4.43404L12.1218 4.44456L15.491 0L40.6931 14.1422L64.5933 20.9693C66.6848 26.1441 68.7751 31.3191 70.8654 36.494C47.2438 36.5229 23.6219 36.5505 0 36.5783L0.0715744 36.0219ZM2.26333 26.7818L10.329 8.45302L3.45475 17.5228L2.26333 26.7818ZM12.9234 5.03001L1.81369 30.2762L1.12999 35.5894L7.10524 35.5824L14.8508 2.48702L12.9234 5.03001ZM50.2817 17.9119L65.7627 26.5194L63.8506 21.7879L50.2817 17.9119ZM66.3538 27.9827L46.0851 16.7131L42.4592 15.6773L66.787 35.4837L66.7643 35.5115L69.3946 35.5083L66.3538 27.9827ZM65.2546 35.5132L39.7396 14.7405L34.2712 11.6719L56.349 35.5238L65.2546 35.5132ZM54.9971 35.5255L31.4552 10.0917L28.6429 8.51355L45.7328 35.5364L54.9971 35.5255ZM44.5581 35.5379L26.8207 7.491L24.7842 6.34821L35.2656 35.5489L44.5581 35.5379ZM34.208 35.5501L23.5171 5.76609L23.6585 5.71656L21.6629 4.59665L26.9073 35.5588L34.208 35.5501ZM25.897 35.56L20.5463 3.97008L18.4895 2.81593L17.5855 35.5699L25.897 35.56ZM16.5901 35.5711L17.5094 2.26586L16.1092 1.48018L8.12833 35.5811L16.5901 35.5711Z"/>
      <path d="M12.9939 42.6758C13.3698 43.0343 13.8396 43.2136 14.4033 43.2136C14.9611 43.2136 15.4278 43.0343 15.8037 42.6758C16.1795 42.3173 16.3675 41.8651 16.3675 41.319C16.3675 40.7729 16.1795 40.3206 15.8037 39.9621C15.4278 39.6036 14.9611 39.4244 14.4033 39.4244C13.8396 39.4244 13.3698 39.6036 12.9939 39.9621C12.6241 40.3151 12.4392 40.7674 12.4392 41.319C12.4392 41.8705 12.6241 42.3228 12.9939 42.6758ZM11.1025 41.319C11.1025 40.4695 11.4148 39.7581 12.0392 39.1844C12.6635 38.5998 13.4516 38.3075 14.4033 38.3075C15.349 38.3075 16.1341 38.5998 16.7585 39.1844C17.389 39.7691 17.7042 40.4806 17.7042 41.319C17.7042 42.1518 17.389 42.8633 16.7585 43.4535C16.1341 44.0381 15.349 44.3305 14.4033 44.3305C13.4516 44.3305 12.6635 44.0381 12.0392 43.4535C11.4148 42.8689 11.1025 42.1573 11.1025 41.319Z"/>
      <path d="M25.7658 44.2146H23.2959V38.4232H25.7658C26.8342 38.4232 27.7047 38.6935 28.3772 39.234C29.0496 39.7746 29.3859 40.4695 29.3859 41.3189C29.3859 42.1738 29.0496 42.8716 28.3772 43.4121C27.711 43.9471 26.8405 44.2146 25.7658 44.2146ZM24.6534 39.4905V43.1473H25.6527C26.388 43.1473 26.9615 42.986 27.3731 42.6633C27.7848 42.3407 27.9906 41.8925 27.9906 41.3189C27.9906 40.7453 27.7848 40.2972 27.3731 39.9745C26.9615 39.6518 26.388 39.4905 25.6527 39.4905H24.6534Z"/>
      <path d="M39.636 44.2146H34.8223V38.4232H39.5351V39.4905H36.1426V40.6074H38.875V41.6581H36.1426V43.1473H39.636V44.2146Z"/>
      <path d="M44.8232 39.4905V38.4232H49.7149V39.4905H47.8649V44.2146H46.6649V39.4905H44.8232Z"/>
      <path d="M55.6218 44.2146H54.3252L56.9014 38.3901H58.0863L60.6626 44.2146H59.3486L58.7563 42.8743H56.2144L55.6218 44.2146ZM57.4853 39.8794L56.6008 41.8898H58.3615L57.4853 39.8794Z"/>
      <path d="M68.5393 44.3304C67.7571 44.3304 67.1155 44.107 66.6138 43.6603C66.1122 43.2135 65.8613 42.5875 65.8613 41.7823V38.4232H67.1422V41.8236C67.1422 42.2704 67.2694 42.6137 67.5231 42.8537C67.7769 43.0935 68.1154 43.2135 68.5393 43.2135C68.9695 43.2135 69.3109 43.0935 69.5647 42.8537C69.8184 42.6137 69.9456 42.2704 69.9456 41.8236V38.4232H71.2352V41.7823C71.2352 42.5875 70.9815 43.2135 70.474 43.6603C69.9723 44.107 69.3272 44.3304 68.5393 44.3304Z"/>
      <path fill-rule="evenodd" clip-rule="evenodd" d="M2.26051 42.6758C2.63637 43.0344 3.10621 43.2136 3.66995 43.2136C4.2277 43.2136 4.69443 43.0344 5.0703 42.6758C5.12856 42.6202 5.1823 42.5624 5.23155 42.5023L6.11924 43.3621C6.0887 43.3929 6.05728 43.4234 6.02506 43.4536C5.40069 44.0382 4.61561 44.3305 3.66995 44.3305C2.71822 44.3305 1.93016 44.0382 1.30571 43.4536C0.68138 42.8689 0.369141 42.1574 0.369141 41.319C0.369141 40.4696 0.68138 39.7581 1.30571 39.1844C1.93016 38.5998 2.71822 38.3075 3.66995 38.3075C4.61561 38.3075 5.40069 38.5998 6.02506 39.1844C6.08219 39.2375 6.13672 39.2915 6.18868 39.3466L5.28726 40.2073C5.22368 40.1212 5.15136 40.0396 5.0703 39.9622C4.69443 39.6036 4.2277 39.4244 3.66995 39.4244C3.10621 39.4244 2.63637 39.6036 2.26051 39.9622C1.89071 40.3152 1.70586 40.7674 1.70586 41.319C1.70586 41.8706 1.89071 42.3228 2.26051 42.6758Z"/>
      <path d="M1.24487 48.9638H0.561523V47.1513H1.24487C1.54042 47.1513 1.78124 47.2359 1.96727 47.4051C2.15333 47.5742 2.24632 47.7918 2.24632 48.0576C2.24632 48.3251 2.15333 48.5435 1.96727 48.7126C1.78297 48.8801 1.54219 48.9638 1.24487 48.9638ZM0.937074 47.4854V48.6298H1.21357C1.41699 48.6298 1.57565 48.5793 1.68951 48.4783C1.80341 48.3774 1.86033 48.2371 1.86033 48.0576C1.86033 47.8781 1.80341 47.7378 1.68951 47.6368C1.57565 47.5358 1.41699 47.4854 1.21357 47.4854H0.937074ZM2.97135 48.9638H2.5984V47.1513H2.97135V48.9638ZM4.29623 49.0001C4.01804 49.0001 3.78678 48.912 3.60249 48.736C3.41647 48.5565 3.32344 48.3303 3.32344 48.0576C3.32344 47.7814 3.41647 47.5552 3.60249 47.3792C3.78678 47.2031 4.02237 47.1151 4.30926 47.1151C4.51965 47.1151 4.70221 47.1608 4.85693 47.2523V47.62C4.68831 47.5165 4.51442 47.4646 4.33536 47.4646C4.1493 47.4646 3.99804 47.5199 3.88154 47.6303C3.76505 47.7391 3.70682 47.8841 3.70682 48.0653C3.70682 48.2449 3.76332 48.3881 3.87635 48.4952C3.98934 48.6022 4.1293 48.6557 4.29623 48.6557C4.45618 48.6557 4.57875 48.616 4.66394 48.5366V47.9126H5.03949V48.7126C4.96126 48.7955 4.85693 48.8637 4.72654 48.9172C4.59095 48.9724 4.44749 49.0001 4.29623 49.0001ZM5.77236 48.9638H5.39941V47.1513H5.77236V48.9638ZM6.06447 47.4854V47.1513H7.5954V47.4854H7.01638V48.9638H6.64082V47.4854H6.06447ZM7.84838 48.9638H7.45453L8.23695 47.1409H8.59689L9.37925 48.9638H8.98023L8.80029 48.5444H8.02832L7.84838 48.9638ZM8.41434 47.607L8.14567 48.2362H8.68033L8.41434 47.607ZM10.9232 48.9638H9.62185V47.1513H9.99735V48.6298H10.9232V48.9638ZM12.3106 49.0001C12.0359 49.0001 11.8047 48.9353 11.6169 48.8058V48.4175C11.6934 48.4831 11.7943 48.54 11.9195 48.5884C12.0464 48.635 12.1715 48.6583 12.295 48.6583C12.3976 48.6583 12.4819 48.6397 12.548 48.6026C12.614 48.5655 12.6471 48.5141 12.6471 48.4485C12.6471 48.3778 12.6158 48.3277 12.5532 48.2984C12.5271 48.2829 12.4923 48.2673 12.4488 48.2518L12.3862 48.231L12.2402 48.1871L12.1046 48.143C12.0855 48.1378 12.0446 48.1232 11.9821 48.099C11.9282 48.0783 11.889 48.0602 11.8647 48.0446C11.7742 47.9825 11.7169 47.9298 11.6925 47.8867C11.6509 47.8038 11.63 47.7193 11.63 47.633C11.63 47.4724 11.6917 47.3464 11.8151 47.2549C11.9386 47.1617 12.1063 47.1151 12.3185 47.1151C12.5323 47.1151 12.7314 47.1651 12.9157 47.2653V47.6278C12.7297 47.5138 12.5323 47.4568 12.3237 47.4568C12.1168 47.4568 12.0134 47.5165 12.0134 47.6356C12.0134 47.6873 12.0455 47.7288 12.1099 47.7598C12.1481 47.7805 12.1976 47.7986 12.2585 47.8142C12.3402 47.8366 12.4063 47.8556 12.4567 47.8712C12.6079 47.9177 12.7401 47.9807 12.8531 48.0602C12.9748 48.1447 13.0357 48.2708 13.0357 48.4382C13.0357 48.6126 12.967 48.7498 12.8296 48.8499C12.6923 48.95 12.5193 49.0001 12.3106 49.0001ZM13.1713 47.4854V47.1513H14.7023V47.4854H14.1232V48.9638H13.7477V47.4854H13.1713ZM15.7377 49.0001C15.5099 49.0001 15.323 48.9302 15.1769 48.7903C15.0308 48.6505 14.9579 48.4546 14.9579 48.2026V47.1513H15.3308V48.2155C15.3308 48.3553 15.3677 48.4628 15.4417 48.5379C15.5155 48.613 15.6142 48.6505 15.7377 48.6505C15.8628 48.6505 15.9624 48.613 16.0362 48.5379C16.1102 48.4628 16.1471 48.3553 16.1471 48.2155V47.1513H16.5226V48.2026C16.5226 48.4546 16.4488 48.6505 16.301 48.7903C16.1549 48.9302 15.9671 49.0001 15.7377 49.0001ZM17.5815 48.9638H16.8982V47.1513H17.5815C17.8771 47.1513 18.1179 47.2359 18.3039 47.4051C18.49 47.5742 18.5829 47.7918 18.5829 48.0576C18.5829 48.3251 18.49 48.5435 18.3039 48.7126C18.1196 48.8801 17.8789 48.9638 17.5815 48.9638ZM17.2738 47.4854V48.6298H17.5502C17.7536 48.6298 17.9123 48.5793 18.0262 48.4783C18.14 48.3774 18.197 48.2371 18.197 48.0576C18.197 47.8781 18.14 47.7378 18.0262 47.6368C17.9123 47.5358 17.7536 47.4854 17.5502 47.4854H17.2738ZM19.308 48.9638H18.935V47.1513H19.308V48.9638ZM20.2025 48.4822C20.3104 48.5944 20.4451 48.6505 20.6068 48.6505C20.7668 48.6505 20.9006 48.5944 21.0085 48.4822C21.1162 48.37 21.1701 48.2284 21.1701 48.0576C21.1701 47.8867 21.1162 47.7451 21.0085 47.633C20.9006 47.5207 20.7668 47.4646 20.6068 47.4646C20.4451 47.4646 20.3104 47.5207 20.2025 47.633C20.0965 47.7434 20.0434 47.8849 20.0434 48.0576C20.0434 48.2302 20.0965 48.3717 20.2025 48.4822ZM19.6601 48.0576C19.6601 47.7918 19.7496 47.5691 19.9287 47.3896C20.1078 47.2065 20.3338 47.1151 20.6068 47.1151C20.8781 47.1151 21.1032 47.2065 21.2823 47.3896C21.4631 47.5725 21.5535 47.7952 21.5535 48.0576C21.5535 48.3182 21.4631 48.5409 21.2823 48.7256C21.1032 48.9086 20.8781 49.0001 20.6068 49.0001C20.3338 49.0001 20.1078 48.9086 19.9287 48.7256C19.7496 48.5426 19.6601 48.3199 19.6601 48.0576ZM25.489 49.0001C25.2055 49.0001 24.97 48.912 24.7822 48.736C24.5944 48.5565 24.5005 48.3303 24.5005 48.0576C24.5005 47.7814 24.5936 47.5552 24.7796 47.3792C24.9674 47.2031 25.2038 47.1151 25.489 47.1151C25.6663 47.1151 25.8271 47.153 25.9715 47.229V47.6045C25.8306 47.5112 25.6706 47.4646 25.4916 47.4646C25.3195 47.4646 25.1743 47.5207 25.056 47.633C24.9412 47.7434 24.8839 47.8849 24.8839 48.0576C24.8839 48.2302 24.943 48.3726 25.0612 48.4848C25.1777 48.5953 25.3264 48.6505 25.5072 48.6505C25.7072 48.6505 25.874 48.5979 26.0079 48.4926V48.868C25.8602 48.956 25.6872 49.0001 25.489 49.0001ZM26.7826 48.4822C26.8904 48.5944 27.0251 48.6505 27.1868 48.6505C27.3467 48.6505 27.4806 48.5944 27.5885 48.4822C27.6962 48.37 27.7502 48.2284 27.7502 48.0576C27.7502 47.8867 27.6962 47.7451 27.5885 47.633C27.4806 47.5207 27.3467 47.4646 27.1868 47.4646C27.0251 47.4646 26.8904 47.5207 26.7826 47.633C26.6765 47.7434 26.6235 47.8849 26.6235 48.0576C26.6235 48.2302 26.6765 48.3717 26.7826 48.4822ZM26.2401 48.0576C26.2401 47.7918 26.3296 47.5691 26.5087 47.3896C26.6878 47.2065 26.9138 47.1151 27.1868 47.1151C27.458 47.1151 27.6832 47.2065 27.8623 47.3896C28.0432 47.5725 28.1335 47.7952 28.1335 48.0576C28.1335 48.3182 28.0432 48.5409 27.8623 48.7256C27.6832 48.9086 27.458 49.0001 27.1868 49.0001C26.9138 49.0001 26.6878 48.9086 26.5087 48.7256C26.3296 48.5426 26.2401 48.3199 26.2401 48.0576ZM28.8403 48.9638H28.4726V47.1513H28.7934L29.714 48.3113V47.1513H30.0791V48.9638H29.7688L28.8403 47.7986V48.9638ZM31.0884 49.0001C30.8137 49.0001 30.5824 48.9353 30.3947 48.8058V48.4175C30.4712 48.4831 30.572 48.54 30.6972 48.5884C30.8242 48.635 30.9493 48.6583 31.0728 48.6583C31.1754 48.6583 31.2596 48.6397 31.3258 48.6026C31.3918 48.5655 31.4248 48.5141 31.4248 48.4485C31.4248 48.3778 31.3935 48.3277 31.3309 48.2984C31.3049 48.2829 31.2701 48.2673 31.2266 48.2518L31.164 48.231L31.018 48.1871L30.8824 48.143C30.8632 48.1378 30.8224 48.1232 30.7598 48.099C30.7059 48.0783 30.6668 48.0602 30.6425 48.0446C30.552 47.9825 30.4946 47.9298 30.4703 47.8867C30.4286 47.8038 30.4077 47.7193 30.4077 47.633C30.4077 47.4724 30.4694 47.3464 30.5929 47.2549C30.7163 47.1617 30.8841 47.1151 31.0963 47.1151C31.3101 47.1151 31.5092 47.1651 31.6934 47.2653V47.6278C31.5075 47.5138 31.3101 47.4568 31.1015 47.4568C30.8945 47.4568 30.7911 47.5165 30.7911 47.6356C30.7911 47.6873 30.8233 47.7288 30.8876 47.7598C30.9258 47.7805 30.9754 47.7986 31.0363 47.8142C31.118 47.8366 31.184 47.8556 31.2344 47.8712C31.3857 47.9177 31.5179 47.9807 31.6309 48.0602C31.7526 48.1447 31.8134 48.2708 31.8134 48.4382C31.8134 48.6126 31.7448 48.7498 31.6074 48.8499C31.4701 48.95 31.297 49.0001 31.0884 49.0001ZM32.8801 49.0001C32.6523 49.0001 32.4654 48.9302 32.3194 48.7903C32.1733 48.6505 32.1003 48.4546 32.1003 48.2026V47.1513H32.4733V48.2155C32.4733 48.3553 32.5102 48.4628 32.5841 48.5379C32.658 48.613 32.7567 48.6505 32.8801 48.6505C33.0053 48.6505 33.1048 48.613 33.1787 48.5379C33.2526 48.4628 33.2896 48.3553 33.2896 48.2155V47.1513H33.6651V48.2026C33.6651 48.4546 33.5912 48.6505 33.4434 48.7903C33.2974 48.9302 33.1096 49.0001 32.8801 49.0001ZM35.3421 48.9638H34.0406V47.1513H34.4163V48.6298H35.3421V48.9638ZM35.1778 47.4854V47.1513H36.7087V47.4854H36.1297V48.9638H35.7541V47.4854H35.1778ZM40.4459 48.9638H39.5279V47.1513H40.3859C40.5546 47.1513 40.6889 47.191 40.7889 47.2704C40.8889 47.3499 40.9389 47.4612 40.9389 47.6045C40.9389 47.6925 40.9172 47.7676 40.8737 47.8297C40.8302 47.8918 40.7755 47.9368 40.7094 47.9644C40.8085 47.9851 40.8955 48.0386 40.9702 48.1249C41.0432 48.2095 41.0797 48.3173 41.0797 48.4485C41.0797 48.6022 41.0224 48.7265 40.9076 48.8214C40.7945 48.9164 40.6407 48.9638 40.4459 48.9638ZM39.9035 48.1689V48.6428H40.3755C40.4694 48.6428 40.5424 48.6225 40.5946 48.5819C40.6467 48.5413 40.6728 48.4831 40.6728 48.4072C40.6728 48.3312 40.6467 48.2725 40.5946 48.231C40.5424 48.1897 40.4694 48.1689 40.3755 48.1689H39.9035ZM39.9035 47.462V47.8608H40.326C40.4042 47.8608 40.4655 47.8435 40.5098 47.809C40.5541 47.7745 40.5763 47.7261 40.5763 47.664C40.5763 47.6001 40.5541 47.5505 40.5098 47.5151C40.4655 47.4797 40.4042 47.462 40.326 47.462H39.9035ZM42.1516 49.0001C41.9238 49.0001 41.737 48.9302 41.5909 48.7903C41.4449 48.6505 41.3718 48.4546 41.3718 48.2026V47.1513H41.7448V48.2155C41.7448 48.3553 41.7817 48.4628 41.8556 48.5379C41.9295 48.613 42.0282 48.6505 42.1516 48.6505C42.2768 48.6505 42.3764 48.613 42.4502 48.5379C42.5241 48.4628 42.5611 48.3553 42.5611 48.2155V47.1513H42.9367V48.2026C42.9367 48.4546 42.8627 48.6505 42.715 48.7903C42.5689 48.9302 42.3811 49.0001 42.1516 49.0001ZM43.9172 49.0001C43.6425 49.0001 43.4113 48.9353 43.2235 48.8058V48.4175C43.3 48.4831 43.4008 48.54 43.5261 48.5884C43.653 48.635 43.7781 48.6583 43.9016 48.6583C44.0042 48.6583 44.0885 48.6397 44.1546 48.6026C44.2206 48.5655 44.2537 48.5141 44.2537 48.4485C44.2537 48.3778 44.2224 48.3277 44.1598 48.2984C44.1337 48.2829 44.0989 48.2673 44.0554 48.2518L43.9928 48.231L43.8468 48.1871L43.7112 48.143C43.6921 48.1378 43.6513 48.1232 43.5887 48.099C43.5347 48.0783 43.4956 48.0602 43.4713 48.0446C43.3808 47.9825 43.3235 47.9298 43.2991 47.8867C43.2574 47.8038 43.2366 47.7193 43.2366 47.633C43.2366 47.4724 43.2983 47.3464 43.4217 47.2549C43.5452 47.1617 43.7129 47.1151 43.9251 47.1151C44.1389 47.1151 44.338 47.1651 44.5223 47.2653V47.6278C44.3363 47.5138 44.1389 47.4568 43.9303 47.4568C43.7234 47.4568 43.62 47.5165 43.62 47.6356C43.62 47.6873 43.6521 47.7288 43.7165 47.7598C43.7547 47.7805 43.8043 47.7986 43.8651 47.8142C43.9468 47.8366 44.0128 47.8556 44.0633 47.8712C44.2145 47.9177 44.3467 47.9807 44.4597 48.0602C44.5814 48.1447 44.6422 48.2708 44.6422 48.4382C44.6422 48.6126 44.5736 48.7498 44.4362 48.8499C44.2988 48.95 44.1259 49.0001 43.9172 49.0001ZM45.3386 48.9638H44.9657V47.1513H45.3386V48.9638ZM46.121 48.9638H45.7532V47.1513H46.0741L46.9947 48.3113V47.1513H47.3598V48.9638H47.0494L46.121 47.7986V48.9638ZM49.1333 48.9638H47.7641V47.1513H49.1046V47.4854H48.1396V47.8349H48.9168V48.1638H48.1396V48.6298H49.1333V48.9638ZM50.0382 49.0001C49.7636 49.0001 49.5323 48.9353 49.3445 48.8058V48.4175C49.4211 48.4831 49.5219 48.54 49.6471 48.5884C49.774 48.635 49.8992 48.6583 50.0226 48.6583C50.1252 48.6583 50.2095 48.6397 50.2756 48.6026C50.3417 48.5655 50.3747 48.5141 50.3747 48.4485C50.3747 48.3778 50.3434 48.3277 50.2808 48.2984C50.2548 48.2829 50.2199 48.2673 50.1765 48.2518L50.1139 48.231L49.9679 48.1871L49.8322 48.143C49.8131 48.1378 49.7722 48.1232 49.7096 48.099C49.6558 48.0783 49.6166 48.0602 49.5923 48.0446C49.5019 47.9825 49.4445 47.9298 49.4202 47.8867C49.3784 47.8038 49.3576 47.7193 49.3576 47.633C49.3576 47.4724 49.4193 47.3464 49.5428 47.2549C49.6662 47.1617 49.834 47.1151 50.0461 47.1151C50.2599 47.1151 50.459 47.1651 50.6433 47.2653V47.6278C50.4573 47.5138 50.2599 47.4568 50.0513 47.4568C49.8444 47.4568 49.7409 47.5165 49.7409 47.6356C49.7409 47.6873 49.7731 47.7288 49.8374 47.7598C49.8757 47.7805 49.9252 47.7986 49.9861 47.8142C50.0678 47.8366 50.1339 47.8556 50.1843 47.8712C50.3356 47.9177 50.4677 47.9807 50.5807 48.0602C50.7024 48.1447 50.7633 48.2708 50.7633 48.4382C50.7633 48.6126 50.6947 48.7498 50.5573 48.8499C50.4199 48.95 50.2469 49.0001 50.0382 49.0001ZM51.6787 49.0001C51.404 49.0001 51.1728 48.9353 50.9849 48.8058V48.4175C51.0614 48.4831 51.1623 48.54 51.2875 48.5884C51.4144 48.635 51.5396 48.6583 51.6631 48.6583C51.7657 48.6583 51.8499 48.6397 51.916 48.6026C51.9821 48.5655 52.0152 48.5141 52.0152 48.4485C52.0152 48.3778 51.9838 48.3277 51.9212 48.2984C51.8952 48.2829 51.8604 48.2673 51.8169 48.2518L51.7543 48.231L51.6083 48.1871L51.4727 48.143C51.4535 48.1378 51.4127 48.1232 51.3501 48.099C51.2962 48.0783 51.2571 48.0602 51.2327 48.0446C51.1423 47.9825 51.085 47.9298 51.0606 47.8867C51.0189 47.8038 50.998 47.7193 50.998 47.633C50.998 47.4724 51.0597 47.3464 51.1832 47.2549C51.3067 47.1617 51.4744 47.1151 51.6865 47.1151C51.9004 47.1151 52.0995 47.1651 52.2838 47.2653V47.6278C52.0977 47.5138 51.9004 47.4568 51.6917 47.4568C51.4848 47.4568 51.3814 47.5165 51.3814 47.6356C51.3814 47.6873 51.4136 47.7288 51.4779 47.7598C51.5161 47.7805 51.5657 47.7986 51.6265 47.8142C51.7082 47.8366 51.7743 47.8556 51.8248 47.8712C51.976 47.9177 52.1082 47.9807 52.2212 48.0602C52.3429 48.1447 52.4037 48.2708 52.4037 48.4382C52.4037 48.6126 52.335 48.7498 52.1977 48.8499C52.0603 48.95 51.8874 49.0001 51.6787 49.0001ZM53.7677 48.9638H53.3947V47.1513H53.7677V48.9638ZM54.5501 48.9638H54.1824V47.1513H54.5032L55.4238 48.3113V47.1513H55.7889V48.9638H55.4786L54.5501 47.7986V48.9638ZM56.0706 47.4854V47.1513H57.6015V47.4854H57.0225V48.9638H56.647V47.4854H56.0706ZM59.2501 48.9638H57.8805V47.1513H59.221V47.4854H58.256V47.8349H59.0335V48.1638H58.256V48.6298H59.2501V48.9638ZM60.4206 49.0001C60.1425 49.0001 59.9114 48.912 59.7268 48.736C59.541 48.5565 59.4481 48.3303 59.4481 48.0576C59.4481 47.7814 59.541 47.5552 59.7268 47.3792C59.9114 47.2031 60.1471 47.1151 60.434 47.1151C60.6442 47.1151 60.8265 47.1608 60.9815 47.2523V47.62C60.8132 47.5165 60.639 47.4646 60.4601 47.4646C60.2737 47.4646 60.1228 47.5199 60.0061 47.6303C59.8893 47.7391 59.8313 47.8841 59.8313 48.0653C59.8313 48.2449 59.8876 48.3881 60.0008 48.4952C60.1141 48.6022 60.254 48.6557 60.4206 48.6557C60.5809 48.6557 60.7034 48.616 60.7888 48.5366V47.9126H61.1639V48.7126C61.0861 48.7955 60.9815 48.8637 60.8509 48.9172C60.7156 48.9724 60.5722 49.0001 60.4206 49.0001ZM61.8868 48.9638H61.5111V47.1513H62.3559C62.5504 47.1513 62.7037 47.2014 62.8152 47.3015C62.9279 47.3999 62.9848 47.5285 62.9848 47.6873C62.9848 47.8081 62.9511 47.913 62.8843 48.0019C62.817 48.0908 62.7246 48.1534 62.6062 48.1897L63.1694 48.9638H62.7339L62.2021 48.231H61.8868V48.9638ZM61.8868 47.4776V47.9177H62.335C62.4204 47.9177 62.4866 47.8988 62.5348 47.8608C62.5824 47.8228 62.6062 47.7684 62.6062 47.6977C62.6062 47.6286 62.5824 47.5747 62.5348 47.5358C62.4866 47.497 62.4204 47.4776 62.335 47.4776H61.8868ZM63.6496 48.9638H63.2559L64.0381 47.1409H64.3981L65.1802 48.9638H64.7813L64.6013 48.5444H63.8296L63.6496 48.9638ZM64.2157 47.607L63.9469 48.2362H64.4817L64.2157 47.607ZM65.0397 47.4854V47.1513H66.5702V47.4854H65.9913V48.9638H65.6157V47.4854H65.0397ZM67.2357 48.9638H66.8623V47.1513H67.2357V48.9638ZM68.1299 48.4822C68.2379 48.5944 68.3726 48.6505 68.5346 48.6505C68.6942 48.6505 68.8284 48.5944 68.9358 48.4822C69.0438 48.37 69.0978 48.2284 69.0978 48.0576C69.0978 47.8867 69.0438 47.7451 68.9358 47.633C68.8284 47.5207 68.6942 47.4646 68.5346 47.4646C68.3726 47.4646 68.2379 47.5207 68.1299 47.633C68.0242 47.7434 67.9708 47.8849 67.9708 48.0576C67.9708 48.2302 68.0242 48.3717 68.1299 48.4822ZM67.5875 48.0576C67.5875 47.7918 67.677 47.5691 67.8564 47.3896C68.0352 47.2065 68.2611 47.1151 68.5346 47.1151C68.8057 47.1151 69.031 47.2065 69.2099 47.3896C69.3904 47.5725 69.481 47.7952 69.481 48.0576C69.481 48.3182 69.3904 48.5409 69.2099 48.7256C69.031 48.9086 68.8057 49.0001 68.5346 49.0001C68.2611 49.0001 68.0352 48.9086 67.8564 48.7256C67.677 48.5426 67.5875 48.3199 67.5875 48.0576ZM70.1877 48.9638H69.8201V47.1513H70.1406L71.0615 48.3113V47.1513H71.4268V48.9638H71.1161L70.1877 47.7986V48.9638Z"/>
      <path fill-rule="evenodd" clip-rule="evenodd" d="M22.958 47.8984C23.1392 47.8984 23.2861 48.0443 23.2861 48.2242C23.2861 48.4041 23.1392 48.5499 22.958 48.5499C22.7768 48.5499 22.6299 48.4041 22.6299 48.2242C22.6299 48.0443 22.7768 47.8984 22.958 47.8984Z"/>
      <path fill-rule="evenodd" clip-rule="evenodd" d="M37.9209 47.8984C38.1021 47.8984 38.249 48.0443 38.249 48.2242C38.249 48.4041 38.1021 48.5499 37.9209 48.5499C37.7397 48.5499 37.5928 48.4041 37.5928 48.2242C37.5928 48.0443 37.7397 47.8984 37.9209 47.8984Z"/>
      </g>
      <defs>
      <clipPath id="clip0_389_1054">
      <rect width="72" height="49"/>
      </clipPath>
      </defs>
    </g>


    <g id="globus" width="32" height="32" viewBox="0 0 32 32" fill="none" xmlns="http://www.w3.org/2000/svg">
      <circle cx="16" cy="16" r="15.4105" stroke="white" stroke-width="1.17895"/>
      <path d="M25.5163 16C25.5163 20.3289 24.453 24.2195 22.765 27.0085C21.0703 29.8084 18.8099 31.4105 16.4215 31.4105C14.0332 31.4105 11.7727 29.8084 10.078 27.0085C8.39 24.2195 7.32678 20.3289 7.32678 16C7.32678 11.6711 8.39 7.78045 10.078 4.99152C11.7727 2.19165 14.0332 0.589474 16.4215 0.589474C18.8099 0.589474 21.0703 2.19165 22.765 4.99152C24.453 7.78045 25.5163 11.6711 25.5163 16Z" stroke="white" stroke-width="1.17895"/>
      <rect x="16" width="1.17895" height="32" fill="white"/>
      <rect x="0.420898" y="16.4209" width="1.17895" height="31.1579" transform="rotate(-90 0.420898 16.4209)" fill="white"/>
    </g>

    <g id="plus" width="38" height="38" viewBox="0 0 38 38" xmlns="http://www.w3.org/2000/svg">
      <path d="M28.5003 20.5834H20.5837V28.5001C20.5837 29.3709 19.8712 30.0834 19.0003 30.0834C18.1295 30.0834 17.417 29.3709 17.417 28.5001V20.5834H9.50033C8.62949 20.5834 7.91699 19.8709 7.91699 19.0001C7.91699 18.1292 8.62949 17.4167 9.50033 17.4167H17.417V9.50008C17.417 8.62925 18.1295 7.91675 19.0003 7.91675C19.8712 7.91675 20.5837 8.62925 20.5837 9.50008V17.4167H28.5003C29.3712 17.4167 30.0837 18.1292 30.0837 19.0001C30.0837 19.8709 29.3712 20.5834 28.5003 20.5834Z"/>
      </g>
      <defs>
      <clipPath id="clip0_143_516">
      <rect width="38" height="38" fill="white"/>
      </clipPath>
      </defs>
    </g>

    <g id="slider-arrow-prev" width="24" height="24" viewBox="0 0 24 24" xmlns="http://www.w3.org/2000/svg">
      <path d="M19.0005 11H7.83047L12.7105 6.11997C13.1005 5.72997 13.1005 5.08997 12.7105 4.69997C12.3205 4.30997 11.6905 4.30997 11.3005 4.69997L4.71047 11.29C4.32047 11.68 4.32047 12.31 4.71047 12.7L11.3005 19.29C11.6905 19.68 12.3205 19.68 12.7105 19.29C13.1005 18.9 13.1005 18.27 12.7105 17.88L7.83047 13H19.0005C19.5505 13 20.0005 12.55 20.0005 12C20.0005 11.45 19.5505 11 19.0005 11Z" />
      </g>
    </g>

    <g id="slider-arrow-next" width="24" height="24" viewBox="0 0 24 24" xmlns="http://www.w3.org/2000/svg">
      <path d="M5 12.5925H16.17L11.29 17.4725C10.9 17.8625 10.9 18.5025 11.29 18.8925C11.68 19.2825 12.31 19.2825 12.7 18.8925L19.29 12.3025C19.68 11.9125 19.68 11.2825 19.29 10.8925L12.71 4.2925C12.32 3.9025 11.69 3.9025 11.3 4.2925C10.91 4.6825 10.91 5.3125 11.3 5.7025L16.17 10.5925H5C4.45 10.5925 4 11.0425 4 11.5925C4 12.1425 4.45 12.5925 5 12.5925Z" />
    </g>

  </defs>
</svg>