<svg xmlns="http://www.w3.org/2000/svg" version="1.1" xmlns:xlink="http://www.w3.org/1999/xlink" xmlns:svgjs="http://svgjs.dev/svgjs" width="100" height="100"><svg width="100" height="100" viewBox="0 0 100 100" fill="none" xmlns="http://www.w3.org/2000/svg">
<path d="M6.08871 71.695L6.94895 65.0237L6.7461 64.936L7.04878 64.2496L9.10043 48.339C13.046 43.1425 16.9922 37.9467 20.9388 32.7512L20.9941 32.6258L21.0242 32.6388L25.2001 27.1416L56.4365 44.6333L86.0593 53.0774C88.6516 59.4777 91.2424 65.8783 93.8332 72.279C64.5557 72.3147 35.2778 72.3488 6 72.3831L6.08871 71.695ZM8.80526 60.2665L18.8021 37.5967L10.2819 48.8145L8.80526 60.2665ZM22.0177 33.3629L8.24796 64.5885L7.40056 71.1601L14.8065 71.1514L24.4066 30.2176L22.0177 33.3629ZM68.3209 49.2957L87.5087 59.942L85.1388 54.0898L68.3209 49.2957ZM88.2413 61.7518L63.1196 47.8131L58.6254 46.532L88.7782 71.0294L88.7501 71.0637L92.0103 71.0598L88.2413 61.7518ZM86.879 71.0659L55.2547 45.3732L48.477 41.5778L75.841 71.079L86.879 71.0659ZM74.1655 71.081L44.9867 39.6234L41.5011 37.6715L62.6829 71.0945L74.1655 71.081ZM61.227 71.0963L39.2426 36.4068L36.7184 34.9933L49.7095 71.11L61.227 71.0963ZM48.3986 71.1115L35.148 34.2733L35.3232 34.2121L32.8498 32.8269L39.3499 71.1222L48.3986 71.1115ZM38.0977 71.1237L31.4658 32.052L28.9166 30.6245L27.7961 71.136L38.0977 71.1237ZM26.5623 71.1374L27.7017 29.9441L25.9664 28.9724L16.0746 71.1499L26.5623 71.1374Z" fill="#0F1110"></path>
</svg><style>@media (prefers-color-scheme: light) { :root { filter: none; } }
@media (prefers-color-scheme: dark) { :root { filter: none; } }
</style></svg>